<svg width="12" height="10" viewBox="0 0 12 10" fill="none" xmlns="http://www.w3.org/2000/svg">
<path d="M11.3255 4.04254L11.3442 4.04663H3.31434L5.83864 1.51678C5.96224 1.39327 6.03005 1.22595 6.03005 1.05034C6.03005 0.874732 5.96224 0.708585 5.83864 0.58478L5.44585 0.191805C5.32234 0.0682926 5.15776 0 4.98225 0C4.80664 0 4.64195 0.0678049 4.51844 0.191317L0.19132 4.51805C0.0673197 4.64205 -0.000485191 4.80722 2.61379e-06 4.98293C-0.000485191 5.15961 0.0673197 5.32488 0.19132 5.44868L4.51844 9.7758C4.64195 9.89922 4.80654 9.96712 4.98225 9.96712C5.15776 9.96712 5.32234 9.89912 5.44585 9.7758L5.83864 9.38283C5.96224 9.25951 6.03005 9.09483 6.03005 8.91922C6.03005 8.74371 5.96224 8.58771 5.83864 8.46429L3.28586 5.92029H11.3344C11.6961 5.92029 12 5.60858 12 5.24712V4.69132C12 4.32985 11.6871 4.04254 11.3255 4.04254Z" fill="white"/>
</svg>
