<svg width="12" height="20" viewBox="0 0 12 20" fill="none" xmlns="http://www.w3.org/2000/svg">
<path d="M11.5 14.5C11.5 17.5 9 20 6 20C3 20 0.5 17.5 0.5 14.5L0.499999 4C0.499999 1.8 2.3 3.73602e-06 4.5 3.63985e-06C6.7 3.54369e-06 8.5 1.8 8.5 4L8.5 12.5C8.5 13.9 7.4 15 6 15C4.6 15 3.5 13.9 3.5 12.5L3.5 5L5 5L5 12.5C5 13.1 5.4 13.5 6 13.5C6.6 13.5 7 13.1 7 12.5L7 4C7 2.6 5.9 1.5 4.5 1.5C3.1 1.5 2 2.6 2 4L2 14.5C2 16.7 3.8 18.5 6 18.5C8.2 18.5 10 16.7 10 14.5L10 5L11.5 5L11.5 14.5Z" fill="white"/>
</svg>
