<svg width="83" height="40" viewBox="0 0 83 40" fill="none" xmlns="http://www.w3.org/2000/svg">
<g clip-path="url(#clip0)">
<path d="M33.8448 6.05451L33.1068 8.58701C32.2012 8.20126 31.2284 8.01678 30.2054 8.01678C29.4171 8.01678 29.0314 8.30189 29.0314 8.8889C29.0314 9.1237 29.132 9.30818 29.3165 9.45913C29.501 9.5933 29.7861 9.72747 30.1886 9.79456C32.7378 10.1803 34.0125 11.2201 34.0125 12.9141C34.0125 14.0545 33.5932 14.9434 32.7714 15.5639C31.9496 16.1845 30.9265 16.4864 29.6854 16.4864C28.0921 16.4864 26.7672 16.218 25.7441 15.7149L26.633 13.434C27.5722 13.87 28.5617 14.1048 29.6351 14.1048C30.0209 14.1048 30.3395 14.021 30.5743 13.87C30.8091 13.7359 30.9433 13.5346 30.9433 13.2663C30.9433 12.7967 30.524 12.4948 29.7022 12.327C28.5114 12.109 27.5722 11.7736 26.9349 11.2872C26.2641 10.8176 25.9454 10.1132 25.9454 9.19078C25.9454 8.08386 26.3479 7.1782 27.1697 6.49057C27.9747 5.81971 29.0146 5.48428 30.2892 5.48428C31.5471 5.48428 32.7211 5.66877 33.8448 6.05451Z" fill="white"/>
<path d="M38.7926 1.32495C39.0945 1.62684 39.2622 2.04612 39.2622 2.56604C39.2622 3.06918 39.0945 3.48847 38.7926 3.79036C38.4739 4.09224 38.0547 4.25996 37.5515 4.25996C37.0484 4.25996 36.6291 4.09224 36.3272 3.79036C36.0085 3.48847 35.8408 3.06918 35.8408 2.56604C35.8408 2.04612 36.0085 1.62684 36.3272 1.32495C36.6291 1.02306 37.0484 0.855347 37.5515 0.855347C38.0379 0.872118 38.4572 1.02306 38.7926 1.32495ZM36.0085 5.75262H39.0442V16.2516H36.0085V5.75262Z" fill="white"/>
<path d="M42.264 5.75262V3.45493H45.2997V5.75262H48.0334V8.33543H45.2997V12.6792C45.2997 13.4004 45.6351 13.7694 46.306 13.7694C46.8426 13.7694 47.3458 13.652 47.7986 13.3836L48.6036 15.782C47.6812 16.2683 46.5911 16.5031 45.35 16.5031C44.4275 16.5031 43.6728 16.2348 43.1194 15.7149C42.5491 15.195 42.2808 14.3732 42.2808 13.2159V8.33543H40.6875V5.75262H42.264Z" fill="white"/>
<path d="M57.8948 6.74214C58.6328 7.56395 59.0185 8.60378 59.0185 9.86164C59.0185 10.5996 58.9011 11.2872 58.6831 11.9413H52.7124C52.9808 13.2327 53.8194 13.87 55.2449 13.87C56.1171 13.87 56.9389 13.7023 57.7607 13.3837L58.4483 15.782C57.2575 16.2683 56.05 16.5032 54.8424 16.5032C53.3498 16.5032 52.1087 16.0335 51.1024 15.1111C50.0793 14.2055 49.5762 12.8637 49.5762 11.1027C49.5762 9.45913 50.0458 8.10064 50.9682 7.0608C51.8906 6.02097 53.1485 5.48428 54.725 5.48428C56.0835 5.48428 57.1569 5.92034 57.8948 6.74214ZM52.6957 9.84487H56.3183C56.3351 9.30818 56.2177 8.83858 55.9326 8.46961C55.6475 8.13418 55.2282 7.94969 54.6412 7.94969C53.551 7.94969 52.9137 8.57024 52.6957 9.84487Z" fill="white"/>
<path d="M82.1301 0L60.6794 40H51.8408L73.2245 0H82.1301Z" fill="#F7931E"/>
<path d="M3.03564 20.847V27.5388C3.03564 28.4109 3.42138 28.8302 4.1761 28.8302C4.81342 28.8302 5.46751 28.5618 6.10482 28.0587V20.8302H9.12369V31.3291H6.10482V29.9539C5.18239 31.0273 4.10901 31.5639 2.8847 31.5639C1.97904 31.5639 1.27463 31.2788 0.771488 30.7254C0.268344 30.2054 0 29.4172 0 28.4109V20.847H3.03564Z" fill="white"/>
<path d="M14.6919 20.847V21.9706C15.5305 21.0482 16.52 20.5786 17.6269 20.5786C18.6332 20.5786 19.4718 21.0482 20.1762 21.9539C20.8638 22.8763 21.1992 24.1845 21.1992 25.8616C21.1992 27.7065 20.7129 29.1153 19.7737 30.1048C18.8344 31.0943 17.7443 31.5975 16.52 31.5975C15.8324 31.5975 15.2286 31.4969 14.6919 31.2956V35.3878H11.6562V20.8637H14.6919V20.847ZM14.6919 24.0503V28.7296C15.1783 28.914 15.5975 28.9979 15.9833 28.9979C16.6542 28.9979 17.1573 28.7296 17.5263 28.2264C17.912 27.7233 18.0965 26.9853 18.0965 26.0126C18.0965 24.2348 17.5095 23.3627 16.3187 23.3627C15.782 23.3627 15.2286 23.5807 14.6919 24.0503Z" fill="white"/>
<path d="M31.3792 21.8365C32.1171 22.6583 32.5029 23.6981 32.5029 24.956C32.5029 25.6939 32.3855 26.3815 32.1675 27.0356H26.1968C26.4652 28.327 27.3037 28.9644 28.7293 28.9644C29.6014 28.9644 30.4232 28.7966 31.245 28.478L31.9327 30.8763C30.7419 31.3627 29.5343 31.5975 28.3268 31.5975C26.8341 31.5975 25.593 31.1279 24.5868 30.2054C23.5637 29.2998 23.0605 27.9581 23.0605 26.1971C23.0605 24.5535 23.5301 23.195 24.4526 22.1551C25.375 21.1153 26.6329 20.5786 28.2094 20.5786C29.5679 20.5786 30.6245 21.0147 31.3792 21.8365ZM26.1633 24.9392H29.7859C29.8027 24.4025 29.6853 23.9329 29.4002 23.5639C29.1151 23.2285 28.6958 23.044 28.1088 23.044C27.0354 23.044 26.3813 23.6646 26.1633 24.9392Z" fill="white"/>
<path d="M37.4673 20.847V22.9266C37.7356 22.3396 38.1549 21.8365 38.6916 21.4172C39.2451 20.9979 39.8656 20.7128 40.57 20.5954L41.0899 23.5807C40.5029 23.6478 39.8656 23.8155 39.1612 24.0839C38.4568 24.3522 37.8866 24.6709 37.4673 25.0231V31.3627H34.4316V20.8637H37.4673V20.847Z" fill="white"/>
<path d="M49.7276 21.1488L48.9896 23.6813C48.084 23.2956 47.1112 23.1111 46.0882 23.1111C45.2999 23.1111 44.9142 23.3962 44.9142 23.9832C44.9142 24.218 45.0148 24.4025 45.1993 24.5535C45.3838 24.7044 45.6689 24.8218 46.0546 24.8889C48.6039 25.2746 49.8785 26.3145 49.8785 28.0084C49.8785 29.1488 49.4592 30.0377 48.6374 30.6583C47.8156 31.2788 46.7926 31.5807 45.5683 31.5807C43.975 31.5807 42.65 31.3124 41.627 30.8092L42.5158 28.5283C43.455 28.9644 44.4446 29.1992 45.5179 29.1992C45.9037 29.1992 46.2223 29.1153 46.4571 28.9644C46.6919 28.8302 46.8261 28.6289 46.8261 28.3606C46.8261 27.891 46.4068 27.5891 45.585 27.4214C44.3943 27.2034 43.4718 26.8511 42.8345 26.3815C42.1636 25.9119 41.845 25.2075 41.845 24.2851C41.845 23.1782 42.2475 22.2725 43.0693 21.5849C43.8743 20.914 44.9142 20.5786 46.1888 20.5786C47.4131 20.5786 48.6039 20.7631 49.7276 21.1488Z" fill="white"/>
</g>
<defs>
<clipPath id="clip0">
<rect width="82.13" height="40" fill="white"/>
</clipPath>
</defs>
</svg>
