<?xml version="1.0" standalone="no"?>
<!DOCTYPE svg PUBLIC "-//W3C//DTD SVG 1.1//EN" "http://www.w3.org/Graphics/SVG/1.1/DTD/svg11.dtd" >
<svg xmlns="http://www.w3.org/2000/svg" xmlns:xlink="http://www.w3.org/1999/xlink" version="1.1">
<metadata>
Created by FontForge 20170731 at Fri Jan 18 19:07:34 2019
 By Aleksey,,,
Copyright (c) 2018 by Svet Simov. All rights reserved.
</metadata>
<defs>
<font id="Noah-BoldItalic" horiz-adv-x="0" >
  <font-face 
    font-family="Noah"
    font-weight="700"
    font-style="italic"
    font-stretch="normal"
    units-per-em="1000"
    panose-1="0 0 8 0 0 0 0 0 0 0"
    ascent="800"
    descent="-200"
    x-height="446"
    cap-height="680"
    bbox="-353 -294 1229 966"
    underline-thickness="50"
    underline-position="-200"
    slope="-10"
    unicode-range="U+0020-FB01"
  />
<missing-glyph horiz-adv-x="464" 
d="M380 713v-927h-294v927h294zM309 651h-153v-31h60v-34h-61v-31h154v31h-61v34h61v31zM248 531h-93v-96h154v31h-61v65zM216 500v-34h-31v34h31zM309 410h-154v-31h61v-34h-61v-31h93v65h61v31zM309 354h-31v-61h-123v-31h154v92zM309 241h-93v-52h32v22h30v-44h-93v74
h-30v-105h154v105zM309 81h-154v-105h154v105zM278 50v-43h-93v43h93zM309 -45h-154v-31h65l-65 -43v-31h154v31h-95l65 43h30v31z" />
    <glyph glyph-name="fi" unicode="fi" horiz-adv-x="590" 
d="M566 446l-79 -446h-109l62 354h-211l-62 -354h-109l62 354h-81l16 92h82l19 110q31 177 212 177q114 0 204 -68l-51 -75q-59 46 -142 46q-99 0 -117 -97l-16 -93h320z" />
    <glyph glyph-name="f_f" unicode="ff" horiz-adv-x="683" 
d="M694 636q-75 0 -88 -84l-19 -106h122l-16 -92h-122l-63 -354h-109l63 354h-233l-62 -354h-109l62 354h-81l16 92h81l21 118q14 82 60.5 125.5t121.5 43.5q61 0 115 -30l-40 -79q-27 12 -59 12q-78 0 -91 -85l-18 -105h232l21 119q14 81 60.5 124.5t121.5 43.5
q66 0 124 -40l-47 -77q-28 20 -64 20z" />
    <glyph glyph-name="f_f_i" unicode="ffi" horiz-adv-x="933" 
d="M908 446l-78 -446h-110l63 354h-213l-62 -354h-109l63 354h-233l-62 -354h-109l62 354h-81l16 92h81l21 118q14 82 60.5 125.5t121.5 43.5q61 0 115 -30l-40 -79q-27 12 -59 12q-78 0 -91 -85l-18 -105h232l19 108q31 179 216 179q109 0 190 -68l-51 -73q-51 44 -123 44
q-108 0 -126 -97l-16 -93h321z" />
    <glyph glyph-name="f_f_l" unicode="ffl" horiz-adv-x="929" 
d="M862 720h91l-127 -720h-109l107 607q-41 29 -105 29q-48 0 -77 -24.5t-37 -68.5l-17 -97h123l-16 -92h-123l-63 -354h-109l62 354h-233l-62 -354h-109l62 354h-81l16 92h81l21 118q14 82 60.5 125.5t121.5 43.5q61 0 115 -30l-40 -79q-27 12 -59 12q-78 0 -91 -85
l-18 -105h232l20 112q31 175 203 175q84 0 145 -48z" />
    <glyph glyph-name="f_l" unicode="fl" horiz-adv-x="582" 
d="M513 720h93l-127 -720h-109l106 607q-41 29 -103 29q-46 0 -74 -24.5t-36 -68.5l-17 -97h123l-16 -92h-123l-63 -354h-109l62 354h-81l16 92h81l20 112q31 175 198 175q84 0 143 -48z" />
    <glyph glyph-name=".notdef" horiz-adv-x="464" 
d="M380 713v-927h-294v927h294zM309 651h-153v-31h60v-34h-61v-31h154v31h-61v34h61v31zM248 531h-93v-96h154v31h-61v65zM216 500v-34h-31v34h31zM309 410h-154v-31h61v-34h-61v-31h93v65h61v31zM309 354h-31v-61h-123v-31h154v92zM309 241h-93v-52h32v22h30v-44h-93v74
h-30v-105h154v105zM309 81h-154v-105h154v105zM278 50v-43h-93v43h93zM309 -45h-154v-31h65l-65 -43v-31h154v31h-95l65 43h30v31z" />
    <glyph glyph-name=".null" 
 />
    <glyph glyph-name="nonmarkingreturn" horiz-adv-x="333" 
 />
    <glyph glyph-name="space" unicode=" " horiz-adv-x="240" 
 />
    <glyph glyph-name="exclam" unicode="!" horiz-adv-x="275" 
d="M81 188l74 492h125l-100 -492h-99zM104 -12q-29 0 -47.5 16.5t-18.5 45.5q0 36 22 56t53 20q28 0 46.5 -16.5t18.5 -45.5q0 -36 -22 -56t-52 -20z" />
    <glyph glyph-name="quotedbl" unicode="&#x22;" horiz-adv-x="357" 
d="M84 454l40 226h105l-60 -226h-85zM250 454l40 226h105l-60 -226h-85z" />
    <glyph glyph-name="numbersign" unicode="#" horiz-adv-x="558" 
d="M46 0l59 180h-83l15 86h95l41 126h-86l15 86h99l65 202h95l-66 -202h108l65 202h94l-65 -202h77l-15 -86h-90l-41 -126h80l-15 -86h-92l-59 -180h-94l58 180h-107l-59 -180h-94zM227 266h107l41 126h-107z" />
    <glyph glyph-name="dollar" unicode="$" horiz-adv-x="543" 
d="M183 -101l16 91q-113 12 -192 86l68 81q72 -67 167 -67q61 0 106 27.5t45 67.5q0 37 -32 62t-95 52q-76 32 -118 74.5t-42 106.5q0 77 61 129.5t156 61.5l16 91h84l-17 -93q83 -13 155 -68l-59 -83q-64 53 -146 53q-56 0 -94 -23t-38 -62q0 -37 28 -59.5t88 -49.5
q82 -35 126.5 -75.5t44.5 -105.5q0 -83 -63.5 -139t-164.5 -67l-16 -91h-84z" />
    <glyph glyph-name="percent" unicode="%" horiz-adv-x="771" 
d="M224 385q-66 0 -102 38t-36 95q0 67 48 120.5t127 53.5q65 0 101 -39t36 -95q0 -68 -47 -120.5t-127 -52.5zM105 0l508 680h101l-507 -680h-102zM226 460q42 0 65.5 30t23.5 65q0 26 -14 44t-44 18q-42 0 -65 -30.5t-23 -66.5q0 -25 13.5 -42.5t43.5 -17.5zM551 -12
q-65 0 -101 38.5t-36 94.5q0 67 48 120.5t127 53.5q65 0 101 -39t36 -95q0 -68 -47.5 -120.5t-127.5 -52.5zM554 63q43 0 65.5 30t22.5 66q0 25 -14 43t-43 18q-42 0 -65 -29.5t-23 -65.5q0 -26 13.5 -44t43.5 -18z" />
    <glyph glyph-name="ampersand" unicode="&#x26;" horiz-adv-x="633" 
d="M222 -12q-88 0 -139.5 45.5t-51.5 112.5q0 127 171 223q-48 78 -48 133q0 83 62.5 136.5t155.5 53.5q71 0 114.5 -41t43.5 -100q0 -64 -50.5 -113t-138.5 -96l104 -133q53 73 70 148h99q-28 -127 -110 -224l92 -122l-96 -26l-63 83q-98 -80 -215 -80zM290 414
q62 32 99 62.5t37 66.5q0 24 -17 39t-48 15q-45 0 -74 -27t-29 -73q0 -37 32 -83zM231 85q79 0 147 58l-119 149q-51 -23 -83.5 -58t-32.5 -74q0 -31 24 -53t64 -22z" />
    <glyph glyph-name="quotesingle" unicode="'" horiz-adv-x="191" 
d="M84 454l40 226h105l-60 -226h-85z" />
    <glyph glyph-name="parenleft" unicode="(" horiz-adv-x="321" 
d="M158 -193q-42 63 -66 155t-24 195q0 71 12 141q23 134 85.5 256.5t150.5 210.5l62 -54q-75 -85 -129 -196t-71 -226q-11 -72 -11 -139q0 -180 62 -294z" />
    <glyph glyph-name="parenright" unicode=")" horiz-adv-x="321" 
d="M186 765q42 -63 65.5 -155t23.5 -195q0 -71 -12 -141q-23 -134 -85.5 -256.5t-150.5 -210.5l-62 54q75 85 129 196t72 226q10 66 10 137q0 184 -62 296z" />
    <glyph glyph-name="asterisk" unicode="*" horiz-adv-x="353" 
d="M139 377l-53 43l92 94l-103 29l33 66l98 -40l15 111h72l-25 -111l112 41l11 -68l-115 -29l63 -93l-59 -43l-54 101z" />
    <glyph glyph-name="plus" unicode="+" horiz-adv-x="533" 
d="M206 136l28 158h-159l16 89h159l28 159h90l-28 -159h158l-16 -89h-158l-28 -158h-90z" />
    <glyph glyph-name="comma" unicode="," horiz-adv-x="267" 
d="M109 126q28 0 46.5 -17t18.5 -48q0 -16 -4 -29q-26 -107 -134 -179l-24 29q65 49 85 106h-5q-24 0 -41 17.5t-17 45.5q0 9 1 14q6 29 26.5 45t47.5 16z" />
    <glyph glyph-name="hyphen" unicode="-" horiz-adv-x="389" 
d="M47 180l16 93h281l-17 -93h-280z" />
    <glyph glyph-name="period" unicode="." horiz-adv-x="267" 
d="M100 -12q-29 0 -47.5 16.5t-18.5 45.5q0 36 22 56t53 20q28 0 46.5 -16.5t18.5 -45.5q0 -36 -22 -56t-52 -20z" />
    <glyph glyph-name="slash" unicode="/" horiz-adv-x="399" 
d="M-14 -12l384 704h85l-383 -704h-86z" />
    <glyph glyph-name="zero" unicode="0" horiz-adv-x="583" 
d="M256 -12q-93 0 -145.5 66t-52.5 182q0 41 10 103q29 160 103 247t194 87q91 0 144 -66.5t53 -182.5q0 -47 -9 -101q-28 -158 -103.5 -246.5t-193.5 -88.5zM264 90q63 0 108.5 64.5t65.5 177.5q9 51 9 95q0 68 -22.5 106t-67.5 38q-63 0 -109 -64.5t-66 -176.5
q-9 -51 -9 -94q0 -68 23 -107t68 -39z" />
    <glyph glyph-name="one" unicode="1" horiz-adv-x="370" 
d="M300 666h65l-117 -666h-117l83 460q10 49 12 55l-25 -13l-89 -44l-41 83z" />
    <glyph glyph-name="two" unicode="2" horiz-adv-x="490" 
d="M230 141q-37 -37 -44 -43q40 2 61 2l188 1l-17 -101h-425l8 45l317 336q61 64 61 119q0 30 -18.5 48.5t-52.5 18.5q-66 0 -136 -79l-74 70q98 115 222 115q78 0 126.5 -45.5t48.5 -117.5q0 -12 -4 -38q-12 -72 -85 -147z" />
    <glyph glyph-name="three" unicode="3" horiz-adv-x="541" 
d="M218 -12q-135 0 -215 100l78 70q53 -68 141 -68q63 0 108 36.5t45 90.5q0 41 -30 60t-72 19h-105l17 96h78q62 0 98 34t36 77q0 30 -22.5 49.5t-58.5 19.5q-76 0 -154 -63l-58 71q111 93 228 93q79 0 129 -43t50 -110q0 -16 -3 -33q-8 -41 -37 -79.5t-76 -61.5
q45 -14 69.5 -51t24.5 -86q0 -17 -3 -35q-16 -84 -89 -135t-179 -51z" />
    <glyph glyph-name="four" unicode="4" horiz-adv-x="542" 
d="M523 668l-79 -448h77l-17 -95h-77l-21 -125h-108l21 125h-320l10 61l447 482h67zM338 219l31 176q10 53 14 70q-19 -25 -45 -51l-139 -152q-22 -26 -44 -45q22 2 56 2h127z" />
    <glyph glyph-name="five" unicode="5" horiz-adv-x="491" 
d="M497 560h-239l-44 -145q26 2 43 2q93 0 147.5 -45.5t54.5 -129.5q0 -20 -5 -50q-16 -94 -88 -149.5t-176 -55.5q-133 0 -200 87l70 77q39 -58 127 -58q59 0 101 30t52 86q2 9 2 25q0 47 -35 72t-92 25q-54 0 -114 -21l-17 13l98 338h333z" />
    <glyph glyph-name="six" unicode="6" horiz-adv-x="535" 
d="M326 412q76 0 124.5 -47.5t48.5 -125.5q0 -22 -4 -42q-17 -95 -83 -152t-160 -57q-98 0 -150 58.5t-52 156.5q0 38 7 74l3 14q33 171 140.5 274t290.5 108l7 -102q-112 2 -190.5 -53.5t-117.5 -154.5q62 49 136 49zM384 200q2 16 2 24q0 42 -24.5 67.5t-70.5 25.5
q-53 -1 -86.5 -31t-42.5 -78q-2 -16 -2 -23q0 -43 26.5 -69t70.5 -26q49 0 83.5 29.5t43.5 80.5z" />
    <glyph glyph-name="seven" unicode="7" horiz-adv-x="451" 
d="M95 661h417l-8 -43l-339 -618h-124l287 520q4 8 13 22.5t11 18.5q-17 -1 -50 -1h-225z" />
    <glyph glyph-name="eight" unicode="8" horiz-adv-x="567" 
d="M245 -11q-96 0 -152 43t-56 117q0 18 3 36q11 58 51 103t97 62q-33 14 -53 47t-20 74q0 18 2 27q14 80 81 128t164 48q86 0 137 -41.5t51 -107.5q0 -63 -36 -108t-88 -67q40 -19 64 -55.5t24 -85.5q0 -17 -3 -35q-16 -88 -86 -136.5t-180 -48.5zM316 397q52 0 86 31
t34 79q0 33 -24.5 52t-66.5 19q-53 0 -86.5 -29.5t-33.5 -78.5q0 -34 24 -53.5t67 -19.5zM262 90q58 0 97.5 34t39.5 92q0 40 -27 63t-76 23q-54 0 -92 -31t-46 -79q-2 -14 -2 -20q0 -40 28.5 -61t77.5 -21z" />
    <glyph glyph-name="nine" unicode="9" horiz-adv-x="537" 
d="M323 674q97 0 149.5 -59t52.5 -157q0 -37 -7 -72l-3 -14q-34 -171 -142.5 -274.5t-289.5 -106.5l-7 96q113 4 190.5 57t115.5 147q-58 -43 -133 -43q-73 0 -122.5 49t-49.5 129q0 24 4 45q17 92 82.5 147.5t159.5 55.5zM283 344q54 0 87.5 31t42.5 81q2 16 2 22
q0 42 -27.5 68.5t-69.5 26.5q-50 -1 -83 -29t-43 -79q-2 -16 -2 -24q0 -42 24.5 -69.5t68.5 -27.5z" />
    <glyph glyph-name="colon" unicode=":" horiz-adv-x="265" 
d="M156 311q-28 0 -46.5 16.5t-18.5 45.5q0 34 21.5 53.5t51.5 19.5q29 0 47 -16.5t18 -45.5q0 -34 -21.5 -53.5t-51.5 -19.5zM99 -12q-28 0 -46.5 16.5t-18.5 45.5q0 33 22 53.5t51 20.5q28 0 46.5 -17t18.5 -46q0 -8 -1 -13q-6 -28 -26 -44t-46 -16z" />
    <glyph glyph-name="semicolon" unicode=";" horiz-adv-x="269" 
d="M166 447q28 0 46.5 -16.5t18.5 -42.5q0 -35 -22 -56t-52 -21q-28 0 -46.5 16.5t-18.5 43.5q0 35 22 55.5t52 20.5zM110 125q28 0 46 -17.5t18 -48.5q0 -12 -3 -27q-24 -104 -133 -179l-25 29q66 50 86 106h-6q-24 0 -41 16.5t-17 43.5q0 35 22 56t53 21z" />
    <glyph glyph-name="less" unicode="&#x3c;" horiz-adv-x="430" 
d="M365 154l-313 151l16 91l366 150l-19 -108l-239 -93l207 -92z" />
    <glyph glyph-name="equal" unicode="=" horiz-adv-x="500" 
d="M93 390l15 90h374l-15 -90h-374zM59 200l15 90h374l-15 -90h-374z" />
    <glyph glyph-name="greater" unicode="&#x3e;" horiz-adv-x="430" 
d="M41 154l19 110l239 92l-207 93l18 97l312 -151l-16 -91z" />
    <glyph glyph-name="question" unicode="?" horiz-adv-x="490" 
d="M152 188q5 57 23 99.5t38.5 66t56.5 52.5q5 4 19 15t19 15.5t16 14.5t16 16.5t11.5 15.5t10 18t5.5 19q1 4 1 12q0 25 -17.5 42.5t-53.5 17.5q-66 -2 -128 -62l-57 80q87 82 201 82q79 0 127 -43.5t48 -106.5q0 -9 -2 -25q-3 -18 -11 -35t-15 -28t-24 -28t-24.5 -23.5
t-33 -27t-32.5 -26.5q-43 -36 -65 -70.5t-26 -90.5h-103zM179 -12q-29 0 -47.5 16.5t-18.5 45.5q0 36 22 56t53 20q28 0 47 -16.5t19 -44.5q0 -36 -22.5 -56.5t-52.5 -20.5z" />
    <glyph glyph-name="at" unicode="@" horiz-adv-x="831" 
d="M315 -145q-128 0 -203 73t-75 198q0 134 65 251t178 186.5t247 69.5q120 0 200 -65.5t80 -187.5q0 -123 -63.5 -221t-159.5 -98q-39 0 -60 17.5t-23 43.5q-21 -29 -59 -48.5t-83 -19.5q-57 0 -88.5 34.5t-31.5 90.5q0 102 76.5 177.5t181.5 75.5q67 0 128 -38l-56 -205
q-4 -13 -4 -28q0 -31 30 -31q56 0 95 80.5t39 164.5q0 93 -57.5 138.5t-154.5 45.5q-165 0 -283.5 -129.5t-118.5 -299.5q0 -97 54.5 -149t156.5 -52q79 0 155 31l21 -68q-94 -37 -187 -37zM376 121q44 0 81 33.5t53 93.5l27 102q-29 13 -57 13q-68 0 -115.5 -55t-47.5 -123
q0 -30 15 -47t44 -17z" />
    <glyph glyph-name="A" unicode="A" horiz-adv-x="688" 
d="M444 684l201 -681v-3h-118l-34 123h-321l-78 -123h-127v3l440 681h37zM396 489q-30 -57 -68 -117l-98 -156h239l-44 155q-21 79 -29 118z" />
    <glyph glyph-name="B" unicode="B" horiz-adv-x="624" 
d="M44 0l120 680h255q80 0 130.5 -41t50.5 -112q0 -16 -3 -34q-17 -101 -109 -145q39 -14 61.5 -48.5t22.5 -81.5q0 -18 -3 -37q-15 -87 -78.5 -134t-164.5 -47h-282zM231 396h132q49 0 84 32.5t35 82.5q0 36 -25 54t-69 18h-124zM178 97h142q54 0 90.5 28t45.5 78
q2 14 2 20q0 38 -26 58t-68 20h-150z" />
    <glyph glyph-name="C" unicode="C" horiz-adv-x="693" 
d="M365 -13q-139 0 -220.5 82t-81.5 211q0 35 6 71q26 149 136.5 245.5t261.5 96.5q146 0 249 -105l-68 -74q-71 73 -180 73q-105 0 -183.5 -69.5t-96.5 -177.5q-5 -28 -5 -51q0 -85 51 -140t141 -55q121 0 214 98l64 -78q-123 -127 -288 -127z" />
    <glyph glyph-name="D" unicode="D" horiz-adv-x="718" 
d="M44 0l120 680h243q130 0 210 -78.5t80 -203.5q0 -32 -6 -67q-27 -152 -132 -241.5t-268 -89.5h-247zM179 102h122q103 0 179 67t95 175q4 21 4 48q0 81 -50 133.5t-143 52.5h-123z" />
    <glyph glyph-name="E" unicode="E" horiz-adv-x="560" 
d="M577 576h-313l-32 -181h273l-17 -99h-274l-34 -192h320l-18 -104h-438l120 680h431z" />
    <glyph glyph-name="F" unicode="F" horiz-adv-x="545" 
d="M573 572h-311l-35 -197h273l-19 -107h-273l-47 -268h-117l120 680h428z" />
    <glyph glyph-name="G" unicode="G" horiz-adv-x="731" 
d="M402 283l18 97h288l-50 -280q-125 -113 -290 -113q-144 0 -224 82t-80 212q0 35 6 73q26 150 137 244.5t262 94.5q78 0 136 -25.5t110 -77.5l-67 -76q-39 39 -80 56.5t-103 17.5q-103 0 -182 -68t-98 -172q-5 -33 -5 -57q0 -90 52 -144.5t148 -54.5q112 0 182 61l23 130
h-183z" />
    <glyph glyph-name="H" unicode="H" horiz-adv-x="736" 
d="M615 680h118l-119 -680h-118l50 288h-334l-50 -288h-118l119 680h118l-50 -283h334z" />
    <glyph glyph-name="I" unicode="I" horiz-adv-x="285" 
d="M44 0l119 680h118l-119 -680h-118z" />
    <glyph glyph-name="J" unicode="J" horiz-adv-x="498" 
d="M162 -13q-107 0 -184 65l67 87q52 -47 121 -47q120 0 142 134l80 454h117l-82 -470q-40 -223 -261 -223z" />
    <glyph glyph-name="K" unicode="K" horiz-adv-x="612" 
d="M662 680v-3l-336 -340l241 -334v-3h-133l-219 303l-53 -303h-118l119 680h118l-52 -298l296 298h137z" />
    <glyph glyph-name="L" unicode="L" horiz-adv-x="521" 
d="M44 0l120 680h117l-100 -572h296l-19 -108h-414z" />
    <glyph glyph-name="M" unicode="M" horiz-adv-x="855" 
d="M752 684h40l-20 -684h-116l12 347q2 55 5 86q-14 -17 -56 -69l-189 -227h-24l-104 222q-2 5 -15.5 35t-21.5 48q-16 -61 -25 -88l-113 -354h-121l222 684h35l137 -294q10 -21 39 -85q5 6 68 84z" />
    <glyph glyph-name="N" unicode="N" horiz-adv-x="750" 
d="M629 680h118l-121 -684h-35l-291 388q-53 70 -59 78q-7 -58 -16 -109l-63 -353h-118l120 684h35l292 -381q54 -74 58 -80q6 41 15 93z" />
    <glyph glyph-name="O" unicode="O" horiz-adv-x="799" 
d="M371 -13q-141 0 -225 80t-84 210q0 28 7 72q26 151 136 247.5t271 96.5q133 0 217.5 -82t84.5 -212q0 -32 -6 -68q-26 -150 -135.5 -247t-265.5 -97zM378 94q106 0 182 69t94 176q4 23 4 50q0 87 -51.5 142t-139.5 55q-107 0 -184 -68.5t-97 -176.5q-5 -30 -5 -52
q0 -87 52.5 -141t144.5 -54z" />
    <glyph glyph-name="P" unicode="P" horiz-adv-x="596" 
d="M420 680q90 0 142 -51t52 -132q0 -24 -4 -44q-15 -87 -81.5 -146t-175.5 -59h-148l-44 -248h-117l120 680h256zM498 490q0 42 -26 65t-74 23h-135l-40 -229h121q73 0 113.5 42.5t40.5 98.5z" />
    <glyph glyph-name="Q" unicode="Q" horiz-adv-x="805" 
d="M772 331q-30 -170 -160 -266l103 -94l-79 -79l-131 117q-64 -22 -134 -22q-137 0 -222.5 82.5t-85.5 211.5q0 33 6 68q26 150 137 247t270 97q134 0 218 -82.5t84 -212.5q0 -32 -6 -67zM378 94q106 0 182 69t94 176q4 23 4 50q0 87 -51.5 142t-139.5 55
q-105 0 -183.5 -69.5t-97.5 -175.5q-4 -23 -4 -49q0 -87 53 -142.5t143 -55.5z" />
    <glyph glyph-name="R" unicode="R" horiz-adv-x="628" 
d="M620 459q-13 -74 -61.5 -122t-126.5 -67l131 -267v-3h-127l-122 259h-107l-46 -259h-117l120 680h262q86 0 142 -49t56 -130q0 -23 -4 -42zM507 467q2 14 2 21q0 41 -28 66t-76 25h-142l-39 -222h133q59 0 100 29t50 81z" />
    <glyph glyph-name="S" unicode="S" horiz-adv-x="573" 
d="M263 -13q-142 0 -249 95l65 84q78 -73 187 -73q59 0 99 27.5t40 69.5q0 35 -29 59t-95 54q-79 37 -122 81t-43 110q0 93 68.5 145.5t171.5 52.5q121 0 222 -77l-60 -81q-75 55 -159 55q-54 0 -89.5 -23t-35.5 -65q0 -35 28 -58.5t88 -51.5q85 -39 130.5 -85t45.5 -111
q0 -93 -74.5 -150.5t-188.5 -57.5z" />
    <glyph glyph-name="T" unicode="T" horiz-adv-x="542" 
d="M603 680l-19 -108h-193l-100 -572h-118l101 572h-193l19 108h503z" />
    <glyph glyph-name="U" unicode="U" horiz-adv-x="692" 
d="M310 -13q-105 0 -171.5 56t-66.5 149q0 24 4 44l78 444h118l-78 -444q-3 -18 -3 -33q0 -53 34.5 -81t94.5 -28q78 0 125 40t59 111l77 435h118l-80 -452q-20 -118 -99 -179.5t-210 -61.5z" />
    <glyph glyph-name="V" unicode="V" horiz-adv-x="693" 
d="M632 680h134v-3l-441 -681h-36l-201 682v2h121l112 -402q12 -40 17 -63q8 16 37 62z" />
    <glyph glyph-name="W" unicode="W" horiz-adv-x="966" 
d="M905 680h127v-2l-360 -682h-34l-98 346q-17 63 -21 84q-19 -35 -50 -83l-220 -347h-35l-119 682v2h117l61 -361l12 -81q30 49 50 80l204 322h28l88 -317q11 -37 22 -81q12 25 41 81z" />
    <glyph glyph-name="X" unicode="X" horiz-adv-x="646" 
d="M-27 0v2l304 357l-164 319v2h128l93 -183q17 -37 23 -53q17 22 41 51l159 185h142v-2l-283 -325l179 -351v-2h-127l-94 184q-28 55 -38 82q-32 -46 -55 -71l-167 -195h-141z" />
    <glyph glyph-name="Y" unicode="Y" horiz-adv-x="647" 
d="M225 0l54 302l-184 378h122l99 -204q29 -66 32 -75q24 37 57 74l172 205h136l-317 -378l-53 -302h-118z" />
    <glyph glyph-name="Z" unicode="Z" horiz-adv-x="564" 
d="M604 645l-389 -502q-5 -8 -29 -36q16 1 49 1h282l-19 -108h-504l4 35l390 505q12 16 27 33q-14 -1 -42 -1h-266l19 108h483z" />
    <glyph glyph-name="bracketleft" unicode="[" horiz-adv-x="276" 
d="M-7 -187l166 946h180l-16 -90h-81l-136 -766h82l-15 -90h-180z" />
    <glyph glyph-name="backslash" unicode="\" horiz-adv-x="398" 
d="M254 -12l-144 704h75l145 -704h-76z" />
    <glyph glyph-name="bracketright" unicode="]" horiz-adv-x="276" 
d="M305 759l-166 -946h-180l16 90h81l136 766h-82l15 90h180z" />
    <glyph glyph-name="asciicircum" unicode="^" horiz-adv-x="483" 
d="M52 356l230 344h83l113 -344h-107l-63 211l-137 -211h-119z" />
    <glyph glyph-name="underscore" unicode="_" horiz-adv-x="492" 
d="M-16 -109l15 84h407l-15 -84h-407z" />
    <glyph glyph-name="grave" unicode="`" horiz-adv-x="294" 
d="M262 521l-144 101l69 70l124 -124z" />
    <glyph glyph-name="a" unicode="a" horiz-adv-x="573" 
d="M468 446h80l-79 -446h-82l-3 60q-67 -71 -166 -71q-84 0 -133 53t-49 138q0 31 5 55q18 100 84 161t158 61q104 0 152 -81zM253 84q58 0 98.5 39t51.5 98q3 18 3 34q0 48 -28.5 77.5t-80.5 29.5q-55 0 -95.5 -37.5t-51.5 -97.5q-4 -24 -4 -35q0 -49 29 -78.5t78 -29.5z
" />
    <glyph glyph-name="b" unicode="b" horiz-adv-x="572" 
d="M353 457q86 0 135 -52t49 -137q0 -24 -5 -56q-18 -102 -82.5 -162.5t-162.5 -60.5q-110 0 -156 81l-30 -70h-76l127 720h109l-47 -268q-8 -38 -13 -51q63 56 152 56zM423 220q3 18 3 35q0 50 -28 78t-78 28q-58 0 -99 -38.5t-51 -97.5q-3 -17 -3 -31q0 -49 28.5 -79.5
t80.5 -30.5q56 0 96 37t51 99z" />
    <glyph glyph-name="c" unicode="c" horiz-adv-x="463" 
d="M233 -13q-83 0 -141 53t-58 145q0 20 5 50q19 104 92.5 163.5t171.5 59.5q94 0 159 -64l-62 -71q-39 40 -96 40q-55 0 -100 -37.5t-56 -101.5q-3 -15 -3 -30q0 -49 29.5 -80t79.5 -31q64 0 119 44l45 -77q-81 -63 -185 -63z" />
    <glyph glyph-name="d" unicode="d" horiz-adv-x="572" 
d="M486 720h110l-127 -720h-76l-7 63q-65 -74 -169 -74q-79 0 -130.5 53t-51.5 141q0 22 5 52q17 95 82 158.5t161 63.5q100 0 148 -73q1 34 8 71zM251 84q60 0 100 38.5t51 99.5q3 18 3 33q0 48 -28 77t-79 29q-56 0 -97.5 -37t-51.5 -97q-3 -16 -3 -32q0 -52 29 -81.5
t76 -29.5z" />
    <glyph glyph-name="e" unicode="e" horiz-adv-x="479" 
d="M457 327q0 -43 -21.5 -76t-58.5 -51.5t-82 -27.5t-96 -9q-31 0 -54 3q7 -43 37.5 -66t78.5 -23q67 0 123 34l33 -76q-82 -47 -178 -47q-91 0 -147.5 54t-56.5 140q0 116 75.5 196t188.5 80q73 0 115.5 -35.5t42.5 -95.5zM148 242q22 -2 43 -2q69 0 117 18.5t48 60.5
q0 49 -61 49q-54 0 -94 -36t-53 -90z" />
    <glyph glyph-name="f" unicode="f" horiz-adv-x="341" 
d="M353 636q-74 0 -89 -83l-19 -107h124l-16 -92h-124l-62 -354h-109l62 354h-81l16 92h81l21 120q14 80 60.5 123.5t121.5 43.5q66 0 124 -40l-47 -77q-28 20 -63 20z" />
    <glyph glyph-name="g" unicode="g" horiz-adv-x="571" 
d="M472 446h73l-82 -472q-18 -103 -88 -154.5t-172 -51.5q-117 0 -195 73l52 80q61 -55 139 -55q63 0 104 30.5t52 87.5q7 36 15 66q-65 -58 -154 -58q-84 0 -132.5 51.5t-48.5 135.5q0 22 5 54q18 101 84 162.5t161 61.5q106 0 153 -78zM402 225q3 15 3 30q0 47 -27.5 76.5
t-79.5 29.5q-57 0 -97.5 -37t-51.5 -101q-3 -18 -3 -33q0 -49 28.5 -77t75.5 -28q60 0 100 38.5t52 101.5z" />
    <glyph glyph-name="h" unicode="h" horiz-adv-x="525" 
d="M25 0l127 720h109l-43 -245q-6 -35 -19 -86q64 69 149 69q66 0 99.5 -35t33.5 -98q0 -25 -4 -48l-49 -277h-110l49 275q2 16 2 22q0 63 -65 63q-50 0 -84.5 -37.5t-44.5 -92.5l-40 -230h-110z" />
    <glyph glyph-name="i" unicode="i" horiz-adv-x="238" 
d="M182 538q-28 0 -44.5 17t-16.5 42q0 29 19 51t50 22q29 0 45.5 -17t16.5 -43q0 -29 -20 -50.5t-50 -21.5zM25 0l79 446h109l-79 -446h-109z" />
    <glyph glyph-name="j" unicode="j" horiz-adv-x="247" 
d="M192 538q-28 0 -44.5 17t-16.5 42q0 29 19 51t50 22q29 0 45.5 -17t16.5 -43q0 -29 -20 -50.5t-50 -21.5zM-115 -232l1 91q77 3 105.5 31.5t41.5 103.5l79 452h110l-82 -463q-21 -120 -77 -167.5t-178 -47.5z" />
    <glyph glyph-name="k" unicode="k" horiz-adv-x="467" 
d="M483 446v-3l-214 -216l151 -224v-3h-118l-133 195l-34 -195h-110l127 720h109l-78 -445l169 171h131z" />
    <glyph glyph-name="l" unicode="l" horiz-adv-x="237" 
d="M25 0l127 720h109l-127 -720h-109z" />
    <glyph glyph-name="m" unicode="m" horiz-adv-x="793" 
d="M617 458q61 0 96.5 -35t35.5 -97q0 -23 -4 -43l-50 -283h-108l49 278q2 16 2 21q0 61 -62 61q-47 0 -79.5 -37.5t-41.5 -90.5l-41 -232h-108l48 278q2 14 2 22q0 27 -14.5 43.5t-42.5 16.5q-49 0 -82.5 -37.5t-42.5 -89.5l-40 -233h-109l78 446h73l10 -71q60 83 152 83
q97 0 119 -80q63 80 160 80z" />
    <glyph glyph-name="n" unicode="n" horiz-adv-x="525" 
d="M347 458q64 0 99 -33.5t35 -97.5q0 -20 -5 -50l-49 -277h-109l48 272q2 9 2 25q0 63 -65 63q-51 0 -85 -36.5t-44 -94.5l-40 -229h-110l79 446h73l10 -72q66 84 161 84z" />
    <glyph glyph-name="o" unicode="o" horiz-adv-x="553" 
d="M243 -12q-93 0 -150.5 55t-57.5 142q0 25 4 46q18 102 91 164.5t181 62.5q93 0 150.5 -55t57.5 -143q0 -25 -4 -45q-18 -103 -90.5 -165t-181.5 -62zM251 84q61 0 102.5 38.5t52.5 101.5q3 15 3 30q0 49 -28.5 78.5t-78.5 29.5q-61 0 -102.5 -39.5t-51.5 -100.5
q-3 -16 -3 -31q0 -48 28.5 -77.5t77.5 -29.5z" />
    <glyph glyph-name="p" unicode="p" horiz-adv-x="571" 
d="M352 457q84 0 134 -53t50 -139q0 -23 -5 -53q-18 -99 -82 -161t-159 -62q-102 0 -151 75q-2 -44 -7 -73l-37 -211h-109l117 666h74l8 -61q66 72 167 72zM422 218q3 18 3 34q0 50 -28.5 79.5t-78.5 29.5q-59 0 -99 -38t-50 -95q-3 -18 -3 -34q0 -50 28.5 -80t79.5 -30
q55 0 96 37t52 97z" />
    <glyph glyph-name="q" unicode="q" horiz-adv-x="572" 
d="M474 446h73l-117 -666h-110l39 217q6 30 11 46q-64 -54 -150 -54q-83 0 -133.5 53t-50.5 140q0 31 5 56q19 100 85 159.5t159 59.5q105 0 155 -82zM404 221q3 17 3 33q0 48 -27.5 77.5t-79.5 29.5q-57 0 -98 -36.5t-52 -97.5q-4 -17 -4 -37q0 -50 29.5 -78t80.5 -28
q58 0 97.5 39t50.5 98z" />
    <glyph glyph-name="r" unicode="r" horiz-adv-x="371" 
d="M320 455q46 0 81 -18l-40 -92q-24 10 -55 10q-48 0 -84.5 -32.5t-48.5 -99.5l-39 -223h-109l78 446h74l10 -66q54 75 133 75z" />
    <glyph glyph-name="s" unicode="s" horiz-adv-x="400" 
d="M166 -10q-100 0 -165 52l46 76q51 -40 116 -40q34 0 56.5 13.5t22.5 36.5q0 18 -15.5 32.5t-52.5 30.5q-53 24 -81 54t-28 75q0 61 46 97t118 36q83 0 151 -45l-42 -71q-51 30 -102 30q-64 0 -64 -42q0 -18 16 -31t51 -30q60 -27 86.5 -57.5t26.5 -72.5q0 -68 -52 -106
t-134 -38z" />
    <glyph glyph-name="t" unicode="t" horiz-adv-x="371" 
d="M201 -10q-55 0 -88.5 29.5t-33.5 84.5q0 16 3 36l37 214l-81 5l15 87h82l28 143h107l-25 -143h138l-16 -92h-138l-36 -209q-2 -14 -2 -19q0 -36 40 -36q34 0 74 24l27 -86q-61 -38 -131 -38z" />
    <glyph glyph-name="u" unicode="u" horiz-adv-x="523" 
d="M389 446h110l-79 -446h-76l-9 67q-59 -76 -154 -76q-63 0 -99.5 36.5t-36.5 99.5q0 22 4 41l49 278h109l-48 -274q-2 -14 -2 -21q0 -28 16 -45t47 -17q52 0 85.5 36t43.5 94z" />
    <glyph glyph-name="v" unicode="v" horiz-adv-x="495" 
d="M186 -4l-140 447v3h113l58 -213q9 -36 13 -71q10 21 38 71l136 213h123v-3l-296 -447h-45z" />
    <glyph glyph-name="w" unicode="w" horiz-adv-x="685" 
d="M592 446h119v-3l-251 -447h-33l-80 247l-167 -247h-34l-94 447v3h109l43 -215l6 -39q8 13 24 37l128 192h23l61 -193q2 -6 5.5 -17t5.5 -16q3 8 17 33z" />
    <glyph glyph-name="x" unicode="x" horiz-adv-x="464" 
d="M478 446v-3l-176 -213l109 -228v-2h-117l-50 107q-11 28 -20 58q-21 -35 -39 -59l-85 -106h-125v2l191 233l-98 208v3h114l41 -91q13 -27 20 -56q16 26 40 57l71 90h124z" />
    <glyph glyph-name="y" unicode="y" horiz-adv-x="490" 
d="M399 446h121v-3l-374 -663h-118v2l142 239l-122 422v3h111l66 -249q8 -34 12 -57q10 23 28 57z" />
    <glyph glyph-name="z" unicode="z" horiz-adv-x="421" 
d="M419 415l-222 -285q-27 -32 -31 -37q20 1 50 1h150l-16 -94h-355l5 31l226 289q10 14 26 33q-16 -1 -43 -1h-145l17 94h343z" />
    <glyph glyph-name="braceleft" unicode="{" horiz-adv-x="327" 
d="M227 -190q-9 -1 -25 -1q-59 0 -91.5 28.5t-32.5 81.5q0 17 3 36l35 200q3 17 3 31q0 29 -16 42.5t-54 12.5l16 90q47 -1 68.5 22t30.5 72l35 201q13 75 51.5 106t103.5 31q27 0 41 -2l-16 -89q-41 2 -60 -14t-26 -55l-36 -203q-10 -56 -30 -80.5t-65 -34.5q56 -16 56 -87
q0 -17 -3 -35l-35 -203q-2 -16 -2 -20q0 -24 15.5 -32.5t49.5 -6.5z" />
    <glyph glyph-name="bar" unicode="|" horiz-adv-x="231" 
d="M-2 -166l159 905h99l-159 -905h-99z" />
    <glyph glyph-name="braceright" unicode="}" horiz-adv-x="327" 
d="M123 763q8 1 23 1q59 0 93 -28.5t34 -81.5q0 -10 -4 -36l-35 -200q-3 -18 -3 -31q0 -29 16 -42.5t54 -12.5l-16 -90q-47 0 -68.5 -23t-30.5 -72l-35 -200q-13 -75 -51.5 -106.5t-103.5 -31.5q-27 0 -41 2l15 90q42 -3 61 13t26 56l36 202q10 56 30 81t65 35
q-56 16 -56 86q0 16 3 36l35 202q2 16 2 21q0 24 -15.5 32.5t-49.5 6.5z" />
    <glyph glyph-name="asciitilde" unicode="~" horiz-adv-x="564" 
d="M411 261q-2 0 -6.5 -0.5t-6.5 -0.5q-44 0 -95 33q-56 33 -83 33q-26 0 -43 -14t-35 -44l-70 47q53 111 143 111q44 0 98 -35q52 -32 80 -32q40 0 70 62l72 -45q-45 -109 -124 -115z" />
    <glyph glyph-name="uni00A0" unicode="&#xa0;" horiz-adv-x="240" 
 />
    <glyph glyph-name="exclamdown" unicode="&#xa1;" horiz-adv-x="274" 
d="M162 412q29 0 47.5 -16.5t18.5 -45.5q0 -36 -22 -56t-53 -20q-28 0 -46.5 16.5t-18.5 45.5q0 36 22 56t52 20zM185 212l-74 -492h-125l100 492h99z" />
    <glyph glyph-name="cent" unicode="&#xa2;" horiz-adv-x="452" 
d="M372 213l38 -81q-58 -50 -139 -58l-15 -82h-74l15 86q-66 14 -104.5 64t-38.5 123q0 26 4 47q17 91 76.5 148.5t141.5 69.5l15 81h75l-15 -83q64 -10 106 -63l-58 -68q-30 39 -83 39t-95.5 -34.5t-53.5 -97.5q-3 -16 -3 -31q0 -47 26.5 -75.5t72.5 -28.5q57 0 109 44z
" />
    <glyph glyph-name="sterling" unicode="&#xa3;" horiz-adv-x="491" 
d="M353 572q-48 0 -77.5 -28.5t-29.5 -76.5q0 -18 3.5 -35t11.5 -43t10 -34h151l-15 -77h-128q-7 -92 -101 -177l269 1l-18 -102h-408l-18 68q65 43 111.5 100t52.5 110h-99l14 77h75q-2 8 -8.5 27.5t-9.5 30.5t-6 29t-3 34q0 84 59 141t151 57q115 0 180 -73l-69 -66
q-38 37 -98 37z" />
    <glyph glyph-name="currency" unicode="&#xa4;" horiz-adv-x="535" 
d="M91 127l-52 58l75 64q-13 33 -13 71q0 18 3 38q9 55 46 99l-55 63l60 53l51 -61q49 32 110 32q63 0 101 -33l71 62l53 -57l-75 -65q13 -33 13 -68q0 -22 -4 -41q-9 -55 -43 -99l53 -62l-60 -54l-52 61q-51 -33 -110 -33t-101 33zM269 246q44 0 75 28.5t39 75.5q2 16 2 24
q0 37 -19.5 58.5t-54.5 21.5q-44 0 -75.5 -28.5t-39.5 -75.5q-2 -16 -2 -23q0 -37 20 -59t55 -22z" />
    <glyph glyph-name="yen" unicode="&#xa5;" horiz-adv-x="604" 
d="M202 0l27 160h-153l13 74h154l9 55h-153l13 73h124l-148 299h123l116 -253l203 253h141l-255 -299h121l-14 -73h-153l-9 -55h153l-13 -74h-153l-28 -160h-118z" />
    <glyph glyph-name="brokenbar" unicode="&#xa6;" horiz-adv-x="231" 
d="M89 353l68 386h99l-68 -386h-99zM-3 -166l72 404h99l-72 -404h-99z" />
    <glyph glyph-name="section" unicode="&#xa7;" horiz-adv-x="533" 
d="M229 -58q-125 0 -198 68l61 80q52 -52 129 -52q84 0 100 51q3 9 3 16q0 22 -20.5 40.5t-67.5 39.5q-73 31 -115 67t-42 88q0 24 8 45q16 50 73 79q-24 32 -24 72q0 23 9 50q19 54 73.5 80t122.5 26q99 0 168 -52l-56 -79q-50 39 -114 39q-35 0 -60 -11.5t-31 -33.5
q-2 -10 -2 -15q0 -24 22 -42t68 -37q32 -13 56 -25.5t48.5 -30.5t37.5 -41t13 -50q0 -29 -18 -65q-17 -34 -60 -69q21 -29 21 -67q0 -27 -10 -57q-18 -54 -71 -83.5t-124 -30.5zM340 235q22 14 36 39q9 15 9 28q0 25 -25 42t-67 34q-43 19 -61 31q-46 -18 -46 -58
q0 -45 88 -83q40 -17 66 -33z" />
    <glyph glyph-name="dieresis" unicode="&#xa8;" horiz-adv-x="439" 
d="M188 543q-26 0 -41.5 16t-15.5 39t18 42.5t44 19.5q25 0 40.5 -16t15.5 -39q0 -25 -17 -43.5t-44 -18.5zM381 543q-25 0 -40.5 16t-15.5 39q0 7 1 11q3 20 20 35.5t40 15.5q26 0 41 -16t15 -39q0 -24 -17.5 -43t-43.5 -19z" />
    <glyph glyph-name="copyright" unicode="&#xa9;" horiz-adv-x="776" 
d="M357 -3q-130 0 -212 80.5t-82 205.5q0 32 6 65q25 143 134.5 238.5t258.5 95.5q129 0 210.5 -80.5t81.5 -204.5q0 -32 -6 -65q-25 -144 -133.5 -239.5t-257.5 -95.5zM357 58q126 0 217 78.5t113 200.5q5 32 5 57q0 100 -62 163t-168 63q-126 0 -217.5 -78t-113.5 -199
q-5 -25 -5 -58q0 -100 62.5 -163.5t168.5 -63.5zM389 155q-67 0 -114 39t-47 112q0 21 4 40q15 81 74 130.5t137 49.5q72 0 121 -50l-52 -58q-29 30 -72 30q-46 0 -78 -29.5t-41 -78.5q-2 -8 -2 -24q0 -38 22.5 -60t59.5 -22q50 0 94 37l34 -61q-70 -55 -140 -55z" />
    <glyph glyph-name="ordfeminine" unicode="&#xaa;" horiz-adv-x="307" 
d="M164 448q-31 0 -51.5 19t-20.5 48q0 47 41 70t96 23q10 0 28 -2l2 15q2 15 -7 23t-26 8q-40 0 -80 -20l-19 52q57 28 107 28q42 0 68 -22t26 -60q0 -6 -2 -20l-27 -155h-54l-2 33q-26 -40 -79 -40zM186 499q23 0 42 17.5t24 47.5q-5 1 -16 1q-30 0 -54 -10.5t-24 -32.5
q0 -23 28 -23zM67 343l11 61h212l-11 -61h-212z" />
    <glyph glyph-name="guillemotleft" unicode="&#xab;" horiz-adv-x="456" 
d="M136 45l-106 200l151 197l77 -49l-110 -156l74 -156zM302 45l-93 197l157 200l78 -49l-117 -156l60 -156z" />
    <glyph glyph-name="logicalnot" unicode="&#xac;" horiz-adv-x="534" 
d="M378 192l23 131h-328l17 94h418l-39 -225h-91z" />
    <glyph glyph-name="registered" unicode="&#xae;" horiz-adv-x="541" 
d="M273 237q-86 0 -137 50t-51 132q0 24 4 45q18 99 87.5 161t173.5 62q88 0 139.5 -48.5t51.5 -129.5q0 -26 -4 -47q-18 -101 -89.5 -163t-174.5 -62zM276 286q80 0 137 50t72 132q3 20 3 37q0 60 -37.5 96t-103.5 36q-81 0 -136.5 -49.5t-69.5 -131.5q-4 -26 -4 -38
q0 -61 36.5 -96.5t102.5 -35.5zM210 356l39 217h101q29 0 46 -15.5t17 -41.5q0 -59 -62 -73l42 -87h-58l-36 83h-24l-15 -83h-50zM281 477h46q15 0 24.5 8t11.5 20q5 28 -26 28h-46z" />
    <glyph glyph-name="macron" unicode="&#xaf;" horiz-adv-x="401" 
d="M119 547l14 79h275l-15 -79h-274z" />
    <glyph glyph-name="degree" unicode="&#xb0;" horiz-adv-x="353" 
d="M219 417q-57 0 -92.5 33t-35.5 86q0 67 46 111.5t115 44.5q57 0 92.5 -33t35.5 -86q0 -67 -46 -111.5t-115 -44.5zM223 488q61 0 75 66q2 10 2 15q0 24 -15 38t-38 14q-28 0 -48 -16.5t-26 -48.5q-2 -10 -2 -16q0 -24 15 -38t37 -14z" />
    <glyph glyph-name="plusminus" unicode="&#xb1;" horiz-adv-x="487" 
d="M205 243l24 139h-142l15 86h142l25 139h86l-25 -139h141l-15 -86h-141l-24 -139h-86zM43 92l14 85h358l-15 -85h-357z" />
    <glyph glyph-name="acute" unicode="&#xb4;" horiz-adv-x="307" 
d="M154 521l-39 54l159 119l51 -78z" />
    <glyph glyph-name="uni00B5" unicode="&#xb5;" horiz-adv-x="528" 
d="M392 444h111l-79 -444h-83l2 68q-52 -74 -134 -74q-51 0 -81 29q-1 -55 -15 -129l-19 -108h-107l116 658h109l-44 -248q-3 -18 -3 -35q0 -71 62 -71q51 0 83.5 37.5t41.5 90.5z" />
    <glyph glyph-name="paragraph" unicode="&#xb6;" horiz-adv-x="627" 
d="M177 -98l70 381q-78 1 -124.5 48t-46.5 120q0 19 3 39q15 84 75.5 137t155.5 53h314l-137 -778h-98l121 684h-115l-120 -684h-98z" />
    <glyph glyph-name="periodcentered" unicode="&#xb7;" horiz-adv-x="268" 
d="M152 281q-28 0 -46.5 16.5t-18.5 45.5q0 35 22 55.5t52 20.5q29 0 47.5 -16.5t18.5 -45.5q0 -36 -22 -56t-53 -20z" />
    <glyph glyph-name="cedilla" unicode="&#xb8;" horiz-adv-x="331" 
d="M88 -221q-63 0 -108 29l33 57q25 -19 64 -19q51 0 57 33q4 20 -20 29.5t-63 7.5l48 86h73l-33 -52q34 -5 55.5 -25t21.5 -50q0 -46 -36 -71t-92 -25z" />
    <glyph glyph-name="ordmasculine" unicode="&#xba;" horiz-adv-x="318" 
d="M207 449q-48 0 -75.5 29t-27.5 78q0 16 3 33q10 56 46 89.5t85 33.5q48 0 75.5 -29t27.5 -78q0 -15 -3 -32q-10 -56 -45 -90t-86 -34zM210 512q23 0 39 18t22 49q2 8 2 24q0 47 -38 47q-26 0 -44.5 -25.5t-18.5 -65.5q0 -47 38 -47zM75 343l11 61h214l-11 -61h-214z" />
    <glyph glyph-name="guillemotright" unicode="&#xbb;" horiz-adv-x="457" 
d="M97 45l-77 50l118 160l-60 151l86 36l92 -193zM283 45l-78 50l112 160l-73 151l86 36l105 -197z" />
    <glyph glyph-name="onequarter" unicode="&#xbc;" horiz-adv-x="629" 
d="M132 397l33 179l-43 -33l-33 41l119 99h38l-50 -286h-64zM43 0l472 680h80l-471 -680h-81zM451 0l8 46h-132l4 28l200 212h29l-33 -189h34l-9 -51h-34l-8 -46h-59zM418 97h50l13 66z" />
    <glyph glyph-name="onehalf" unicode="&#xbd;" horiz-adv-x="652" 
d="M165 576l-43 -33l-33 41l119 99h38l-50 -286h-64zM515 680h80l-471 -680h-81zM600 211q0 -45 -41 -86l-67 -68h92l-9 -57h-203l3 24l132 132q28 28 28 51q0 25 -25 25q-29 0 -46 -36l-53 28q35 70 106 70q36 0 59.5 -24t23.5 -59z" />
    <glyph glyph-name="threequarters" unicode="&#xbe;" horiz-adv-x="690" 
d="M175 386q-63 0 -96 38l34 44q23 -23 57 -23q47 0 55 35q1 3 1 8q0 30 -35 30h-38l10 51h23q41 0 47 32q3 14 -5.5 22t-23.5 8q-26 0 -49 -18l-32 48q41 29 92 29q34 0 59 -20.5t25 -51.5q0 -55 -53 -74q17 -5 30.5 -22.5t13.5 -40.5q0 -9 -1 -13q-7 -39 -37.5 -60.5
t-76.5 -21.5zM104 0l472 680h80l-471 -680h-81zM512 0l8 46h-132l4 28l200 212h29l-33 -189h34l-9 -51h-34l-8 -46h-59zM479 97h50l13 66z" />
    <glyph glyph-name="questiondown" unicode="&#xbf;" horiz-adv-x="446" 
d="M289 412q29 0 47.5 -16.5t18.5 -45.5q0 -36 -22 -56t-53 -20q-28 0 -47 16.5t-19 44.5q0 36 22.5 56.5t52.5 20.5zM316 212q-5 -57 -23 -99.5t-38.5 -66t-56.5 -52.5q-5 -4 -19 -15t-19 -15.5t-16 -14.5t-16 -16.5t-11.5 -15.5t-10 -18t-5.5 -19q-1 -4 -1 -12
q0 -25 17.5 -42.5t53.5 -17.5q66 2 128 62l57 -80q-87 -82 -202 -82q-79 0 -126.5 43.5t-47.5 106.5q0 9 2 25q3 18 11 35t15 28t23.5 28t25 24t32.5 26.5t32 26.5q43 36 65.5 70t26.5 91h103z" />
    <glyph glyph-name="Agrave" unicode="&#xc0;" horiz-adv-x="688" 
d="M531 795l-51 -49l-150 105l72 73zM444 684l201 -681v-3h-118l-34 123h-321l-78 -123h-127v3l440 681h37zM396 489q-30 -57 -68 -117l-98 -156h239l-44 155q-21 79 -29 118z" />
    <glyph glyph-name="Aacute" unicode="&#xc1;" horiz-adv-x="688" 
d="M571 844l-181 -100l-41 57l167 125zM444 684l201 -681v-3h-118l-34 123h-321l-78 -123h-127v3l440 681h37zM396 489q-30 -57 -68 -117l-98 -156h239l-44 155q-21 79 -29 118z" />
    <glyph glyph-name="Acircumflex" unicode="&#xc2;" horiz-adv-x="688" 
d="M455 806l-117 -68l-40 52l159 110h18l123 -112l-46 -50zM444 684l201 -681v-3h-118l-34 123h-321l-78 -123h-127v3l440 681h37zM396 489q-30 -57 -68 -117l-98 -156h239l-44 155q-21 79 -29 118z" />
    <glyph glyph-name="Atilde" unicode="&#xc3;" horiz-adv-x="688" 
d="M452 783q-31 14 -47 14q-29 0 -50 -37l-63 43q34 79 99 79q29 0 65 -17q28 -13 44 -13q26 0 48 36l63 -44q-39 -77 -99 -77q-28 0 -60 16zM444 684l201 -681v-3h-118l-34 123h-321l-78 -123h-127v3l440 681h37zM396 489q-30 -57 -68 -117l-98 -156h239l-44 155
q-21 79 -29 118z" />
    <glyph glyph-name="Adieresis" unicode="&#xc4;" horiz-adv-x="688" 
d="M353 765q-26 0 -42.5 17t-16.5 40q0 7 1 11q5 22 22 37.5t41 15.5q27 0 42.5 -16.5t15.5 -40.5t-18 -44t-45 -20zM550 765q-27 0 -42.5 17t-15.5 41q0 7 1 11q3 21 21 36.5t41 15.5q26 0 41.5 -16.5t15.5 -39.5q0 -25 -17.5 -45t-44.5 -20zM444 684l201 -681v-3h-118
l-34 123h-321l-78 -123h-127v3l440 681h37zM396 489q-30 -57 -68 -117l-98 -156h239l-44 155q-21 79 -29 118z" />
    <glyph glyph-name="Aring" unicode="&#xc5;" horiz-adv-x="688" 
d="M443 722q-47 0 -76.5 26.5t-29.5 68.5q0 52 37.5 87t91.5 35q46 0 75.5 -27t29.5 -70q0 -51 -37 -85.5t-91 -34.5zM404 823q0 -18 11.5 -29t30.5 -11q25 0 41.5 16.5t16.5 40.5q0 17 -11.5 28t-30.5 11q-24 0 -41 -16t-17 -40zM444 684l201 -681v-3h-118l-34 123h-321
l-78 -123h-127v3l440 681h37zM396 489q-30 -57 -68 -117l-98 -156h239l-44 155q-21 79 -29 118z" />
    <glyph glyph-name="AE" unicode="&#xc6;" horiz-adv-x="885" 
d="M899 576h-283l-32 -180h248l-17 -99h-248l-34 -193h292l-18 -104h-403l22 125h-234l-103 -125h-135v3l566 677h397zM474 398q8 46 22 106q-26 -37 -69 -90l-163 -198h178z" />
    <glyph glyph-name="Ccedilla" unicode="&#xc7;" horiz-adv-x="693" 
d="M375 94q121 0 214 98l64 -78q-108 -113 -252 -125l-26 -41q33 -4 55.5 -23.5t22.5 -51.5q0 -12 -5 -29q-26 -72 -130 -72q-67 0 -111 30l33 59q28 -20 65 -20q53 0 60 33q1 3 1 9q0 34 -84 32l39 74q-120 13 -189 93t-69 198q0 35 6 71q26 149 136.5 245.5t261.5 96.5
q146 0 249 -105l-68 -74q-71 73 -180 73q-105 0 -183.5 -69.5t-96.5 -177.5q-5 -28 -5 -51q0 -85 51 -140t141 -55z" />
    <glyph glyph-name="Egrave" unicode="&#xc8;" horiz-adv-x="560" 
d="M477 795l-51 -49l-150 105l72 73zM577 576h-313l-32 -181h273l-17 -99h-274l-34 -192h320l-18 -104h-438l120 680h431z" />
    <glyph glyph-name="Eacute" unicode="&#xc9;" horiz-adv-x="560" 
d="M517 844l-181 -100l-41 57l167 125zM577 576h-313l-32 -181h273l-17 -99h-274l-34 -192h320l-18 -104h-438l120 680h431z" />
    <glyph glyph-name="Ecircumflex" unicode="&#xca;" horiz-adv-x="560" 
d="M401 806l-117 -68l-40 52l159 110h18l123 -112l-46 -50zM577 576h-313l-32 -181h273l-17 -99h-274l-34 -192h320l-18 -104h-438l120 680h431z" />
    <glyph glyph-name="Edieresis" unicode="&#xcb;" horiz-adv-x="560" 
d="M299 765q-26 0 -42.5 17t-16.5 40q0 7 1 11q5 22 22 37.5t41 15.5q27 0 42.5 -16.5t15.5 -40.5t-18 -44t-45 -20zM496 765q-27 0 -42.5 17t-15.5 41q0 7 1 11q3 21 21 36.5t41 15.5q26 0 41.5 -16.5t15.5 -39.5q0 -25 -17.5 -45t-44.5 -20zM577 576h-313l-32 -181h273
l-17 -99h-274l-34 -192h320l-18 -104h-438l120 680h431z" />
    <glyph glyph-name="Igrave" unicode="&#xcc;" horiz-adv-x="285" 
d="M274 746l-150 105l72 73l129 -129zM44 0l119 680h118l-119 -680h-118z" />
    <glyph glyph-name="Iacute" unicode="&#xcd;" horiz-adv-x="285" 
d="M184 744l-41 57l167 125l55 -82zM44 0l119 680h118l-119 -680h-118z" />
    <glyph glyph-name="Icircumflex" unicode="&#xce;" horiz-adv-x="285" 
d="M132 738l-40 52l159 110h18l123 -112l-46 -50l-97 68zM44 0l119 680h118l-119 -680h-118z" />
    <glyph glyph-name="Idieresis" unicode="&#xcf;" horiz-adv-x="285" 
d="M147 765q-26 0 -42.5 17t-16.5 40q0 7 1 11q5 22 22 37.5t41 15.5q27 0 42.5 -16.5t15.5 -40.5t-18 -44t-45 -20zM344 765q-27 0 -42.5 17t-15.5 41q0 7 1 11q3 21 21 36.5t41 15.5q26 0 41.5 -16.5t15.5 -39.5q0 -25 -17.5 -45t-44.5 -20zM44 0l119 680h118l-119 -680
h-118z" />
    <glyph glyph-name="Eth" unicode="&#xd0;" horiz-adv-x="723" 
d="M411 680q130 0 210.5 -79t80.5 -204q0 -31 -6 -66q-27 -152 -132.5 -241.5t-267.5 -89.5h-245l54 304h-64l15 83h63l52 293h240zM579 344q5 28 5 49q0 81 -50.5 133t-142.5 52h-120l-34 -191h171l-15 -83h-171l-36 -202h120q103 0 178.5 67t94.5 175z" />
    <glyph glyph-name="Ntilde" unicode="&#xd1;" horiz-adv-x="750" 
d="M476 783q-32 14 -47 14q-29 0 -50 -37l-63 43q34 79 99 79q29 0 65 -17q28 -13 44 -13q26 0 48 36l63 -44q-39 -77 -99 -77q-28 0 -60 16zM629 680h118l-121 -684h-35l-291 388q-53 70 -59 78q-7 -58 -16 -109l-63 -353h-118l120 684h35l292 -381q54 -74 58 -80
q6 41 15 93z" />
    <glyph glyph-name="Ograve" unicode="&#xd2;" horiz-adv-x="799" 
d="M531 746l-150 105l72 73l129 -129zM371 -13q-141 0 -225 80t-84 210q0 28 7 72q26 151 136 247.5t271 96.5q133 0 217.5 -82t84.5 -212q0 -32 -6 -68q-26 -150 -135.5 -247t-265.5 -97zM378 94q106 0 182 69t94 176q4 23 4 50q0 87 -51.5 142t-139.5 55
q-107 0 -184 -68.5t-97 -176.5q-5 -30 -5 -52q0 -87 52.5 -141t144.5 -54z" />
    <glyph glyph-name="Oacute" unicode="&#xd3;" horiz-adv-x="799" 
d="M441 744l-41 57l167 125l55 -82zM371 -13q-141 0 -225 80t-84 210q0 28 7 72q26 151 136 247.5t271 96.5q133 0 217.5 -82t84.5 -212q0 -32 -6 -68q-26 -150 -135.5 -247t-265.5 -97zM378 94q106 0 182 69t94 176q4 23 4 50q0 87 -51.5 142t-139.5 55q-107 0 -184 -68.5
t-97 -176.5q-5 -30 -5 -52q0 -87 52.5 -141t144.5 -54z" />
    <glyph glyph-name="Ocircumflex" unicode="&#xd4;" horiz-adv-x="799" 
d="M389 738l-40 52l159 110h18l123 -112l-46 -50l-97 68zM371 -13q-141 0 -225 80t-84 210q0 28 7 72q26 151 136 247.5t271 96.5q133 0 217.5 -82t84.5 -212q0 -32 -6 -68q-26 -150 -135.5 -247t-265.5 -97zM378 94q106 0 182 69t94 176q4 23 4 50q0 87 -51.5 142
t-139.5 55q-107 0 -184 -68.5t-97 -176.5q-5 -30 -5 -52q0 -87 52.5 -141t144.5 -54z" />
    <glyph glyph-name="Otilde" unicode="&#xd5;" horiz-adv-x="799" 
d="M406 760l-63 43q34 79 99 79q29 0 65 -17q28 -13 44 -13q26 0 48 36l63 -44q-39 -77 -99 -77q-28 0 -60 16q-31 14 -47 14q-29 0 -50 -37zM371 -13q-141 0 -225 80t-84 210q0 28 7 72q26 151 136 247.5t271 96.5q133 0 217.5 -82t84.5 -212q0 -32 -6 -68
q-26 -150 -135.5 -247t-265.5 -97zM378 94q106 0 182 69t94 176q4 23 4 50q0 87 -51.5 142t-139.5 55q-107 0 -184 -68.5t-97 -176.5q-5 -30 -5 -52q0 -87 52.5 -141t144.5 -54z" />
    <glyph glyph-name="Odieresis" unicode="&#xd6;" horiz-adv-x="799" 
d="M404 765q-26 0 -42.5 17t-16.5 40q0 7 1 11q5 22 22 37.5t41 15.5q27 0 42.5 -16.5t15.5 -40.5t-18 -44t-45 -20zM601 765q-27 0 -42.5 17t-15.5 41q0 7 1 11q3 21 21 36.5t41 15.5q26 0 41.5 -16.5t15.5 -39.5q0 -25 -17.5 -45t-44.5 -20zM371 -13q-141 0 -225 80
t-84 210q0 28 7 72q26 151 136 247.5t271 96.5q133 0 217.5 -82t84.5 -212q0 -32 -6 -68q-26 -150 -135.5 -247t-265.5 -97zM378 94q106 0 182 69t94 176q4 23 4 50q0 87 -51.5 142t-139.5 55q-107 0 -184 -68.5t-97 -176.5q-5 -30 -5 -52q0 -87 52.5 -141t144.5 -54z" />
    <glyph glyph-name="multiply" unicode="&#xd7;" horiz-adv-x="487" 
d="M128 165l-58 63l132 115l-91 112l66 60l94 -113l129 113l59 -63l-133 -115l92 -112l-67 -60l-93 113z" />
    <glyph glyph-name="Oslash" unicode="&#xd8;" horiz-adv-x="799" 
d="M691 613q87 -82 87 -214q0 -32 -6 -68q-26 -149 -135.5 -246t-265.5 -97q-107 0 -183 48l-83 -94l-55 44l83 95q-70 76 -70 197q0 34 6 71q26 151 136 247t271 96q90 0 158 -38l78 89l56 -43zM185 341q-5 -30 -5 -52q0 -70 34 -119l346 396q-40 20 -93 20
q-107 0 -184.5 -68.5t-97.5 -176.5zM655 339q4 23 4 50q0 84 -47 137l-350 -402q49 -30 116 -30q106 0 182.5 69t94.5 176z" />
    <glyph glyph-name="Ugrave" unicode="&#xd9;" horiz-adv-x="692" 
d="M474 746l-150 105l72 73l129 -129zM310 -13q-105 0 -171.5 56t-66.5 149q0 24 4 44l78 444h118l-78 -444q-3 -18 -3 -33q0 -53 34.5 -81t94.5 -28q78 0 125 40t59 111l77 435h118l-80 -452q-20 -118 -99 -179.5t-210 -61.5z" />
    <glyph glyph-name="Uacute" unicode="&#xda;" horiz-adv-x="692" 
d="M384 744l-41 57l167 125l55 -82zM310 -13q-105 0 -171.5 56t-66.5 149q0 24 4 44l78 444h118l-78 -444q-3 -18 -3 -33q0 -53 34.5 -81t94.5 -28q78 0 125 40t59 111l77 435h118l-80 -452q-20 -118 -99 -179.5t-210 -61.5z" />
    <glyph glyph-name="Ucircumflex" unicode="&#xdb;" horiz-adv-x="692" 
d="M332 738l-40 52l159 110h18l123 -112l-46 -50l-97 68zM310 -13q-105 0 -171.5 56t-66.5 149q0 24 4 44l78 444h118l-78 -444q-3 -18 -3 -33q0 -53 34.5 -81t94.5 -28q78 0 125 40t59 111l77 435h118l-80 -452q-20 -118 -99 -179.5t-210 -61.5z" />
    <glyph glyph-name="Udieresis" unicode="&#xdc;" horiz-adv-x="692" 
d="M348 765q-26 0 -42.5 17t-16.5 40q0 7 1 11q5 22 22 37.5t41 15.5q27 0 42.5 -16.5t15.5 -40.5t-18 -44t-45 -20zM545 765q-27 0 -42.5 17t-15.5 41q0 7 1 11q3 21 21 36.5t41 15.5q26 0 41.5 -16.5t15.5 -39.5q0 -25 -17.5 -45t-44.5 -20zM310 -13q-105 0 -171.5 56
t-66.5 149q0 24 4 44l78 444h118l-78 -444q-3 -18 -3 -33q0 -53 34.5 -81t94.5 -28q78 0 125 40t59 111l77 435h118l-80 -452q-20 -118 -99 -179.5t-210 -61.5z" />
    <glyph glyph-name="Yacute" unicode="&#xdd;" horiz-adv-x="647" 
d="M357 744l-41 57l167 125l55 -82zM225 0l54 302l-184 378h122l99 -204q29 -66 32 -75q24 37 57 74l172 205h136l-317 -378l-53 -302h-118z" />
    <glyph glyph-name="Thorn" unicode="&#xde;" horiz-adv-x="593" 
d="M44 0l120 680h119l-20 -114h135q91 0 142 -53.5t51 -131.5q0 -17 -3 -37q-17 -96 -84.5 -155t-185.5 -59h-132l-23 -130h-119zM204 232h114q75 0 115.5 40.5t40.5 97.5q0 43 -26.5 68.5t-74.5 25.5h-128z" />
    <glyph glyph-name="germandbls" unicode="&#xdf;" horiz-adv-x="528" 
d="M300 -7q-61 0 -114 26l34 86q27 -15 67 -15q41 0 69.5 20.5t28.5 57.5q0 24 -14.5 47t-32.5 39t-32.5 42t-14.5 55q0 7 2 23q7 41 33 71.5t51.5 57t30.5 57.5q1 4 1 13q0 27 -18 42.5t-47 15.5q-99 0 -124 -141l-86 -490h-109l87 497q19 110 78 171.5t161 61.5
q74 0 121.5 -38.5t47.5 -102.5q0 -15 -3 -30q-6 -36 -25 -65.5t-38 -45.5t-36.5 -37.5t-21.5 -43.5q-1 -3 -1 -10q0 -19 15 -40.5t33.5 -39t33.5 -48t15 -65.5q0 -15 -3 -33q-11 -67 -64 -102.5t-125 -35.5z" />
    <glyph glyph-name="agrave" unicode="&#xe0;" horiz-adv-x="573" 
d="M420 567l-49 -47l-144 101l69 70zM468 446h80l-79 -446h-82l-3 60q-67 -71 -166 -71q-84 0 -133 53t-49 138q0 31 5 55q18 100 84 161t158 61q104 0 152 -81zM253 84q58 0 98.5 39t51.5 98q3 18 3 34q0 48 -28.5 77.5t-80.5 29.5q-55 0 -95.5 -37.5t-51.5 -97.5
q-4 -24 -4 -35q0 -49 29 -78.5t78 -29.5z" />
    <glyph glyph-name="aacute" unicode="&#xe1;" horiz-adv-x="573" 
d="M459 615l-171 -95l-39 54l159 119zM468 446h80l-79 -446h-82l-3 60q-67 -71 -166 -71q-84 0 -133 53t-49 138q0 31 5 55q18 100 84 161t158 61q104 0 152 -81zM253 84q58 0 98.5 39t51.5 98q3 18 3 34q0 48 -28.5 77.5t-80.5 29.5q-55 0 -95.5 -37.5t-51.5 -97.5
q-4 -24 -4 -35q0 -49 29 -78.5t78 -29.5z" />
    <glyph glyph-name="acircumflex" unicode="&#xe2;" horiz-adv-x="573" 
d="M350 581l-113 -67l-38 50l152 106h18l118 -108l-44 -48zM468 446h80l-79 -446h-82l-3 60q-67 -71 -166 -71q-84 0 -133 53t-49 138q0 31 5 55q18 100 84 161t158 61q104 0 152 -81zM253 84q58 0 98.5 39t51.5 98q3 18 3 34q0 48 -28.5 77.5t-80.5 29.5q-55 0 -95.5 -37.5
t-51.5 -97.5q-4 -24 -4 -35q0 -49 29 -78.5t78 -29.5z" />
    <glyph glyph-name="atilde" unicode="&#xe3;" horiz-adv-x="573" 
d="M303 570q-27 0 -47 -34l-56 36q32 75 91 75q22 0 55.5 -13.5t44.5 -13.5q24 0 44 32l56 -38q-35 -72 -89 -72q-21 0 -53 14t-46 14zM468 446h80l-79 -446h-82l-3 60q-67 -71 -166 -71q-84 0 -133 53t-49 138q0 31 5 55q18 100 84 161t158 61q104 0 152 -81zM253 84
q58 0 98.5 39t51.5 98q3 18 3 34q0 48 -28.5 77.5t-80.5 29.5q-55 0 -95.5 -37.5t-51.5 -97.5q-4 -24 -4 -35q0 -49 29 -78.5t78 -29.5z" />
    <glyph glyph-name="adieresis" unicode="&#xe4;" horiz-adv-x="573" 
d="M251 542q-26 0 -41.5 16t-15.5 39t18 42.5t44 19.5q25 0 40.5 -16t15.5 -39q0 -25 -17 -43.5t-44 -18.5zM444 542q-25 0 -40.5 16t-15.5 39q0 7 1 11q3 20 20 35.5t40 15.5q26 0 41 -16t15 -39q0 -24 -17.5 -43t-43.5 -19zM468 446h80l-79 -446h-82l-3 60
q-67 -71 -166 -71q-84 0 -133 53t-49 138q0 31 5 55q18 100 84 161t158 61q104 0 152 -81zM253 84q58 0 98.5 39t51.5 98q3 18 3 34q0 48 -28.5 77.5t-80.5 29.5q-55 0 -95.5 -37.5t-51.5 -97.5q-4 -24 -4 -35q0 -49 29 -78.5t78 -29.5z" />
    <glyph glyph-name="aring" unicode="&#xe5;" horiz-adv-x="573" 
d="M338 499q-44 0 -72 25.5t-28 66.5q0 49 36 82t86 33q44 0 72 -26t28 -66q0 -49 -35.5 -82t-86.5 -33zM301 595q0 -17 11 -28t29 -11q21 0 36.5 13t19.5 34q3 20 -8.5 33.5t-31.5 13.5q-24 0 -40 -16t-16 -39zM468 446h80l-79 -446h-82l-3 60q-67 -71 -166 -71
q-84 0 -133 53t-49 138q0 31 5 55q18 100 84 161t158 61q104 0 152 -81zM253 84q58 0 98.5 39t51.5 98q3 18 3 34q0 48 -28.5 77.5t-80.5 29.5q-55 0 -95.5 -37.5t-51.5 -97.5q-4 -24 -4 -35q0 -49 29 -78.5t78 -29.5z" />
    <glyph glyph-name="ae" unicode="&#xe6;" horiz-adv-x="827" 
d="M807 335q0 -81 -74 -126.5t-194 -45.5q-15 0 -49 2q12 -89 113 -89q71 0 132 35l32 -70q-81 -52 -174 -52q-100 0 -140 73l-18 -62h-74l3 57q-70 -68 -161 -68q-76 0 -121.5 48.5t-45.5 134.5q0 123 69.5 204.5t174.5 81.5q95 0 140 -71l20 59h72l-1 -57q61 67 157 67
q64 0 101.5 -33.5t37.5 -87.5zM495 241q30 -2 43 -2q75 0 122 21t48 60q0 50 -63 50q-56 0 -96 -35.5t-54 -93.5zM245 84q64 0 105 49.5t41 121.5q0 50 -25.5 78.5t-72.5 28.5q-63 0 -105 -48.5t-42 -123.5q0 -49 26 -77.5t73 -28.5z" />
    <glyph glyph-name="ccedilla" unicode="&#xe7;" horiz-adv-x="463" 
d="M418 50q-68 -53 -147 -61l-25 -39q34 -5 55.5 -25t21.5 -50q0 -46 -36 -71t-92 -25q-63 0 -108 29l33 57q25 -19 64 -19q52 0 57 33q4 20 -20 29.5t-63 7.5l41 74q-71 10 -117.5 62t-46.5 133q0 27 4 50q19 104 92.5 163.5t171.5 59.5q94 0 159 -64l-62 -71
q-39 40 -96 40q-55 0 -100 -37.5t-56 -101.5q-3 -15 -3 -30q0 -49 29.5 -80t79.5 -31q64 0 119 44z" />
    <glyph glyph-name="egrave" unicode="&#xe8;" horiz-adv-x="479" 
d="M391 568l-49 -47l-144 101l69 70zM457 327q0 -43 -21.5 -76t-58.5 -51.5t-82 -27.5t-96 -9q-31 0 -54 3q7 -43 37.5 -66t78.5 -23q67 0 123 34l33 -76q-82 -47 -178 -47q-91 0 -147.5 54t-56.5 140q0 116 75.5 196t188.5 80q73 0 115.5 -35.5t42.5 -95.5zM148 242
q22 -2 43 -2q69 0 117 18.5t48 60.5q0 49 -61 49q-54 0 -94 -36t-53 -90z" />
    <glyph glyph-name="eacute" unicode="&#xe9;" horiz-adv-x="479" 
d="M430 616l-171 -95l-39 54l159 119zM457 327q0 -43 -21.5 -76t-58.5 -51.5t-82 -27.5t-96 -9q-31 0 -54 3q7 -43 37.5 -66t78.5 -23q67 0 123 34l33 -76q-82 -47 -178 -47q-91 0 -147.5 54t-56.5 140q0 116 75.5 196t188.5 80q73 0 115.5 -35.5t42.5 -95.5zM148 242
q22 -2 43 -2q69 0 117 18.5t48 60.5q0 49 -61 49q-54 0 -94 -36t-53 -90z" />
    <glyph glyph-name="ecircumflex" unicode="&#xea;" horiz-adv-x="479" 
d="M321 582l-113 -67l-38 50l152 106h18l118 -108l-44 -48zM299 458q73 0 115.5 -35.5t42.5 -95.5q0 -43 -21.5 -76t-58.5 -51.5t-82 -27.5t-96 -9q-31 0 -54 3q7 -43 37.5 -66t78.5 -23q67 0 123 34l33 -76q-82 -47 -178 -47q-91 0 -147.5 54t-56.5 140q0 116 75.5 196
t188.5 80zM191 240q69 0 117 18.5t48 60.5q0 49 -61 49q-54 0 -94 -36t-53 -90q22 -2 43 -2z" />
    <glyph glyph-name="edieresis" unicode="&#xeb;" horiz-adv-x="479" 
d="M222 543q-26 0 -41.5 16t-15.5 39t18 42.5t44 19.5q25 0 40.5 -16t15.5 -39q0 -25 -17 -43.5t-44 -18.5zM420 660q26 0 41 -16t15 -39q0 -24 -17.5 -43t-43.5 -19q-25 0 -40.5 16t-15.5 39q0 7 1 11q3 20 20 35.5t40 15.5zM299 458q73 0 115.5 -35.5t42.5 -95.5
q0 -43 -21.5 -76t-58.5 -51.5t-82 -27.5t-96 -9q-31 0 -54 3q7 -43 37.5 -66t78.5 -23q67 0 123 34l33 -76q-82 -47 -178 -47q-91 0 -147.5 54t-56.5 140q0 116 75.5 196t188.5 80zM191 240q69 0 117 18.5t48 60.5q0 49 -61 49q-54 0 -94 -36t-53 -90q22 -2 43 -2z" />
    <glyph glyph-name="igrave" unicode="&#xec;" horiz-adv-x="237" 
d="M207 521l-144 101l69 70l124 -124zM25 0l78 446h109l-78 -446h-109z" />
    <glyph glyph-name="iacute" unicode="&#xed;" horiz-adv-x="237" 
d="M124 521l-39 54l159 119l51 -78zM25 0l78 446h109l-78 -446h-109z" />
    <glyph glyph-name="icircumflex" unicode="&#xee;" horiz-adv-x="237" 
d="M73 515l-38 50l152 106h18l118 -108l-44 -48l-93 67zM25 0l78 446h109l-78 -446h-109z" />
    <glyph glyph-name="idieresis" unicode="&#xef;" horiz-adv-x="237" 
d="M101 542q-25 0 -39.5 14.5t-14.5 36.5q0 27 18 46t45 19q24 0 38 -14.5t14 -35.5q0 -9 -1 -13q-4 -23 -20 -38t-40 -15zM260 542q-24 0 -38 15t-14 36q0 27 17 46t45 19q24 0 38 -15t14 -36q0 -9 -1 -13q-4 -22 -20.5 -37t-40.5 -15zM25 0l78 446h109l-78 -446h-109z" />
    <glyph glyph-name="eth" unicode="&#xf0;" horiz-adv-x="516" 
d="M407 592q81 -107 81 -255q0 -48 -9 -99q-19 -113 -86.5 -182t-168.5 -69q-83 0 -136.5 50t-53.5 133q0 26 4 47q16 94 78 148.5t145 54.5t128 -57q-9 107 -64 177l-96 -62l-39 63l81 52q-41 32 -92 52l49 81q72 -30 128 -79l86 55l39 -62zM368 224q2 12 2 19q0 39 -26 63
t-67 24q-56 0 -96 -44.5t-40 -111.5q0 -42 23 -67t64 -25q56 0 93 41t47 101z" />
    <glyph glyph-name="ntilde" unicode="&#xf1;" horiz-adv-x="525" 
d="M275 571q-27 0 -47 -34l-56 36q32 75 91 75q22 0 55.5 -13.5t44.5 -13.5q24 0 44 32l56 -38q-35 -72 -89 -72q-21 0 -53 14t-46 14zM347 458q64 0 99 -33.5t35 -97.5q0 -20 -5 -50l-49 -277h-109l48 272q2 9 2 25q0 63 -65 63q-51 0 -85 -36.5t-44 -94.5l-40 -229h-110
l79 446h73l10 -72q66 84 161 84z" />
    <glyph glyph-name="ograve" unicode="&#xf2;" horiz-adv-x="553" 
d="M362 521l-144 101l69 70l124 -124zM243 -12q-93 0 -150.5 55t-57.5 142q0 25 4 46q18 102 91 164.5t181 62.5q93 0 150.5 -55t57.5 -143q0 -25 -4 -45q-18 -103 -90.5 -165t-181.5 -62zM251 84q61 0 102.5 38.5t52.5 101.5q3 15 3 30q0 49 -28.5 78.5t-78.5 29.5
q-61 0 -102.5 -39.5t-51.5 -100.5q-3 -16 -3 -31q0 -48 28.5 -77.5t77.5 -29.5z" />
    <glyph glyph-name="oacute" unicode="&#xf3;" horiz-adv-x="553" 
d="M278 521l-39 54l159 119l51 -78zM243 -12q-93 0 -150.5 55t-57.5 142q0 25 4 46q18 102 91 164.5t181 62.5q93 0 150.5 -55t57.5 -143q0 -25 -4 -45q-18 -103 -90.5 -165t-181.5 -62zM251 84q61 0 102.5 38.5t52.5 101.5q3 15 3 30q0 49 -28.5 78.5t-78.5 29.5
q-61 0 -102.5 -39.5t-51.5 -100.5q-3 -16 -3 -31q0 -48 28.5 -77.5t77.5 -29.5z" />
    <glyph glyph-name="ocircumflex" unicode="&#xf4;" horiz-adv-x="553" 
d="M228 515l-38 50l152 106h18l118 -108l-44 -48l-93 67zM243 -12q-93 0 -150.5 55t-57.5 142q0 25 4 46q18 102 91 164.5t181 62.5q93 0 150.5 -55t57.5 -143q0 -25 -4 -45q-18 -103 -90.5 -165t-181.5 -62zM251 84q61 0 102.5 38.5t52.5 101.5q3 15 3 30q0 49 -28.5 78.5
t-78.5 29.5q-61 0 -102.5 -39.5t-51.5 -100.5q-3 -16 -3 -31q0 -48 28.5 -77.5t77.5 -29.5z" />
    <glyph glyph-name="otilde" unicode="&#xf5;" horiz-adv-x="553" 
d="M247 537l-56 36q32 75 91 75q22 0 55.5 -13.5t44.5 -13.5q24 0 44 32l56 -38q-34 -72 -89 -72q-21 0 -53 14t-46 14q-27 0 -47 -34zM243 -12q-93 0 -150.5 55t-57.5 142q0 25 4 46q18 102 91 164.5t181 62.5q93 0 150.5 -55t57.5 -143q0 -25 -4 -45q-18 -103 -90.5 -165
t-181.5 -62zM251 84q61 0 102.5 38.5t52.5 101.5q3 15 3 30q0 49 -28.5 78.5t-78.5 29.5q-61 0 -102.5 -39.5t-51.5 -100.5q-3 -16 -3 -31q0 -48 28.5 -77.5t77.5 -29.5z" />
    <glyph glyph-name="odieresis" unicode="&#xf6;" horiz-adv-x="553" 
d="M242 543q-26 0 -41.5 16t-15.5 39t18 42.5t44 19.5q25 0 40.5 -16t15.5 -39q0 -25 -17 -43.5t-44 -18.5zM435 543q-25 0 -40.5 16t-15.5 39q0 7 1 11q3 20 20 35.5t40 15.5q26 0 41 -16t15 -39q0 -24 -17.5 -43t-43.5 -19zM243 -12q-93 0 -150.5 55t-57.5 142q0 25 4 46
q18 102 91 164.5t181 62.5q93 0 150.5 -55t57.5 -143q0 -25 -4 -45q-18 -103 -90.5 -165t-181.5 -62zM251 84q61 0 102.5 38.5t52.5 101.5q3 15 3 30q0 49 -28.5 78.5t-78.5 29.5q-61 0 -102.5 -39.5t-51.5 -100.5q-3 -16 -3 -31q0 -48 28.5 -77.5t77.5 -29.5z" />
    <glyph glyph-name="divide" unicode="&#xf7;" horiz-adv-x="536" 
d="M315 462q-29 0 -47 16t-18 45q0 36 22 56.5t52 20.5q29 0 47.5 -17t18.5 -46q0 -35 -22 -55t-53 -20zM73 301l17 94h417l-17 -94h-417zM252 101q-29 0 -47.5 16.5t-18.5 45.5q0 36 22.5 56.5t52.5 20.5q29 0 47 -17t18 -46q0 -34 -22 -55t-52 -21z" />
    <glyph glyph-name="oslash" unicode="&#xf8;" horiz-adv-x="553" 
d="M463 403q56 -53 56 -141q0 -26 -4 -47q-18 -102 -91 -164.5t-181 -62.5q-62 0 -113 27l-45 -53l-37 30l44 51q-57 54 -57 141q0 26 4 47q18 101 91 164t182 63q63 0 112 -27l43 50l39 -28zM147 222q-3 -16 -3 -31q0 -39 19 -67l194 226q-23 12 -54 12q-60 0 -102.5 -39.5
t-53.5 -100.5zM407 224q2 10 2 29q0 42 -19 68l-194 -226q24 -12 55 -12q60 0 102 38.5t54 102.5z" />
    <glyph glyph-name="ugrave" unicode="&#xf9;" horiz-adv-x="523" 
d="M394 568l-49 -47l-144 101l69 70zM389 446h110l-79 -446h-76l-9 67q-59 -76 -154 -76q-63 0 -99.5 36.5t-36.5 99.5q0 22 4 41l49 278h109l-48 -274q-2 -14 -2 -21q0 -28 16 -45t47 -17q52 0 85.5 36t43.5 94z" />
    <glyph glyph-name="uacute" unicode="&#xfa;" horiz-adv-x="523" 
d="M433 616l-171 -95l-39 54l159 119zM389 446h110l-79 -446h-76l-9 67q-59 -76 -154 -76q-63 0 -99.5 36.5t-36.5 99.5q0 22 4 41l49 278h109l-48 -274q-2 -14 -2 -21q0 -28 16 -45t47 -17q52 0 85.5 36t43.5 94z" />
    <glyph glyph-name="ucircumflex" unicode="&#xfb;" horiz-adv-x="523" 
d="M324 582l-113 -67l-38 50l152 106h18l118 -108l-44 -48zM389 446h110l-79 -446h-76l-9 67q-59 -76 -154 -76q-63 0 -99.5 36.5t-36.5 99.5q0 22 4 41l49 278h109l-48 -274q-2 -14 -2 -21q0 -28 16 -45t47 -17q52 0 85.5 36t43.5 94z" />
    <glyph glyph-name="udieresis" unicode="&#xfc;" horiz-adv-x="523" 
d="M225 543q-26 0 -41.5 16t-15.5 39t18 42.5t44 19.5q25 0 40.5 -16t15.5 -39q0 -25 -17 -43.5t-44 -18.5zM418 543q-25 0 -40.5 16t-15.5 39q0 7 1 11q3 20 20 35.5t40 15.5q26 0 41 -16t15 -39q0 -24 -17.5 -43t-43.5 -19zM389 446h110l-79 -446h-76l-9 67
q-59 -76 -154 -76q-63 0 -99.5 36.5t-36.5 99.5q0 22 4 41l49 278h109l-48 -274q-2 -14 -2 -21q0 -28 16 -45t47 -17q52 0 85.5 36t43.5 94z" />
    <glyph glyph-name="yacute" unicode="&#xfd;" horiz-adv-x="490" 
d="M410 616l-171 -95l-39 54l159 119zM399 446h121v-3l-374 -663h-118v2l142 239l-122 422v3h111l66 -249q8 -34 12 -57q10 23 28 57z" />
    <glyph glyph-name="thorn" unicode="&#xfe;" horiz-adv-x="572" 
d="M355 457q81 0 131.5 -53.5t50.5 -138.5q0 -22 -5 -50q-19 -103 -83.5 -164.5t-161.5 -61.5q-98 0 -147 76q-1 -35 -8 -73l-37 -212h-109l166 940h109l-49 -279q-4 -22 -10 -41q63 57 153 57zM422 223q3 17 3 32q0 48 -28.5 77.5t-77.5 29.5q-59 0 -99.5 -39t-51.5 -99
q-3 -17 -3 -31q0 -48 27.5 -78.5t76.5 -30.5q59 0 100 37.5t53 101.5z" />
    <glyph glyph-name="ydieresis" unicode="&#xff;" horiz-adv-x="490" 
d="M203 543q-26 0 -41.5 16t-15.5 39t18 42.5t44 19.5q25 0 40.5 -16t15.5 -39q0 -25 -17 -43.5t-44 -18.5zM396 543q-25 0 -40.5 16t-15.5 39q0 7 1 11q3 20 20 35.5t40 15.5q26 0 41 -16t15 -39q0 -24 -17.5 -43t-43.5 -19zM399 446h121v-3l-374 -663h-118v2l142 239
l-122 422v3h111l66 -249q8 -34 12 -57q10 23 28 57z" />
    <glyph glyph-name="Amacron" unicode="&#x100;" horiz-adv-x="688" 
d="M601 855l-16 -84h-284l15 84h285zM444 684l201 -681v-3h-118l-34 123h-321l-78 -123h-127v3l440 681h37zM396 489q-30 -57 -68 -117l-98 -156h239l-44 155q-21 79 -29 118z" />
    <glyph glyph-name="amacron" unicode="&#x101;" horiz-adv-x="573" 
d="M490 625l-15 -79h-274l14 79h275zM468 446h80l-79 -446h-82l-3 60q-67 -71 -166 -71q-84 0 -133 53t-49 138q0 31 5 55q18 100 84 161t158 61q104 0 152 -81zM253 84q58 0 98.5 39t51.5 98q3 18 3 34q0 48 -28.5 77.5t-80.5 29.5q-55 0 -95.5 -37.5t-51.5 -97.5
q-4 -24 -4 -35q0 -49 29 -78.5t78 -29.5z" />
    <glyph glyph-name="Abreve" unicode="&#x102;" horiz-adv-x="688" 
d="M442 742q-54 0 -91 30t-42 83l61 28q13 -59 72 -59q34 0 59 16.5t36 42.5l62 -28q-16 -55 -60 -84t-97 -29zM444 684l201 -681v-3h-118l-34 123h-321l-78 -123h-127v3l440 681h37zM396 489q-30 -57 -68 -117l-98 -156h239l-44 155q-21 79 -29 118z" />
    <glyph glyph-name="abreve" unicode="&#x103;" horiz-adv-x="573" 
d="M344 519q-53 0 -88.5 29t-39.5 80l59 26q11 -57 69 -57q33 0 57.5 16t34.5 41l59 -26q-16 -54 -57.5 -81.5t-93.5 -27.5zM468 446h80l-79 -446h-82l-3 60q-67 -71 -166 -71q-84 0 -133 53t-49 138q0 31 5 55q18 100 84 161t158 61q104 0 152 -81zM253 84q58 0 98.5 39
t51.5 98q3 18 3 34q0 48 -28.5 77.5t-80.5 29.5q-55 0 -95.5 -37.5t-51.5 -97.5q-4 -24 -4 -35q0 -49 29 -78.5t78 -29.5z" />
    <glyph glyph-name="Aogonek" unicode="&#x104;" horiz-adv-x="688" 
d="M444 684l201 -681v-3h-8q-42 -27 -70 -58.5t-28 -53.5q0 -23 27 -23q21 0 43 13l18 -77q-42 -26 -96 -26q-47 0 -73 23t-26 61q0 70 93 147l-32 117h-321l-78 -123h-127v3l440 681h37zM396 489q-30 -57 -68 -117l-98 -156h239l-44 155q-21 79 -29 118z" />
    <glyph glyph-name="aogonek" unicode="&#x105;" horiz-adv-x="573" 
d="M469 0q-98 -68 -98 -113q0 -23 24 -23q23 0 42 13l16 -71q-40 -26 -91 -26q-41 0 -64 21t-23 55q0 9 1 14q7 68 110 143l-2 47q-67 -71 -166 -71q-84 0 -133 53t-49 138q0 31 5 55q18 100 84 161t158 61q104 0 152 -81l33 70h80zM253 84q58 0 98.5 39t51.5 98q3 18 3 34
q0 48 -28.5 77.5t-80.5 29.5q-55 0 -95.5 -37.5t-51.5 -97.5q-4 -24 -4 -35q0 -49 29 -78.5t78 -29.5z" />
    <glyph glyph-name="Cacute" unicode="&#x106;" horiz-adv-x="693" 
d="M420 744l-41 57l167 125l55 -82zM365 -13q-139 0 -220.5 82t-81.5 211q0 35 6 71q26 149 136.5 245.5t261.5 96.5q146 0 249 -105l-68 -74q-71 73 -180 73q-105 0 -183.5 -69.5t-96.5 -177.5q-5 -28 -5 -51q0 -85 51 -140t141 -55q121 0 214 98l64 -78
q-123 -127 -288 -127z" />
    <glyph glyph-name="cacute" unicode="&#x107;" horiz-adv-x="463" 
d="M261 521l-39 54l159 119l51 -78zM233 -13q-83 0 -141 53t-58 145q0 20 5 50q19 104 92.5 163.5t171.5 59.5q94 0 159 -64l-62 -71q-39 40 -96 40q-55 0 -100 -37.5t-56 -101.5q-3 -15 -3 -30q0 -49 29.5 -80t79.5 -31q64 0 119 44l45 -77q-81 -63 -185 -63z" />
    <glyph glyph-name="Ccircumflex" unicode="&#x108;" horiz-adv-x="693" 
d="M368 738l-40 52l159 110h18l123 -112l-46 -50l-97 68zM365 -13q-139 0 -220.5 82t-81.5 211q0 35 6 71q26 149 136.5 245.5t261.5 96.5q146 0 249 -105l-68 -74q-71 73 -180 73q-105 0 -183.5 -69.5t-96.5 -177.5q-5 -28 -5 -51q0 -85 51 -140t141 -55q121 0 214 98
l64 -78q-123 -127 -288 -127z" />
    <glyph glyph-name="ccircumflex" unicode="&#x109;" horiz-adv-x="463" 
d="M210 515l-38 50l152 106h18l118 -108l-44 -48l-93 67zM233 -13q-83 0 -141 53t-58 145q0 20 5 50q19 104 92.5 163.5t171.5 59.5q94 0 159 -64l-62 -71q-39 40 -96 40q-55 0 -100 -37.5t-56 -101.5q-3 -15 -3 -30q0 -49 29.5 -80t79.5 -31q64 0 119 44l45 -77
q-81 -63 -185 -63z" />
    <glyph glyph-name="Cdotaccent" unicode="&#x10a;" horiz-adv-x="693" 
d="M481 761q-29 0 -45.5 17t-16.5 43q0 28 20 49.5t50 21.5q29 0 45.5 -17.5t16.5 -43.5q0 -27 -20 -48.5t-50 -21.5zM365 -13q-139 0 -220.5 82t-81.5 211q0 35 6 71q26 149 136.5 245.5t261.5 96.5q146 0 249 -105l-68 -74q-71 73 -180 73q-105 0 -183.5 -69.5
t-96.5 -177.5q-5 -28 -5 -51q0 -85 51 -140t141 -55q121 0 214 98l64 -78q-123 -127 -288 -127z" />
    <glyph glyph-name="cdotaccent" unicode="&#x10b;" horiz-adv-x="463" 
d="M318 537q-27 0 -43 16.5t-16 41.5q0 27 19 48t48 21q28 0 44 -17t16 -43q0 -27 -19 -47t-49 -20zM233 -13q-83 0 -141 53t-58 145q0 20 5 50q19 104 92.5 163.5t171.5 59.5q94 0 159 -64l-62 -71q-39 40 -96 40q-55 0 -100 -37.5t-56 -101.5q-3 -15 -3 -30
q0 -49 29.5 -80t79.5 -31q64 0 119 44l45 -77q-81 -63 -185 -63z" />
    <glyph glyph-name="Ccaron" unicode="&#x10c;" horiz-adv-x="693" 
d="M462 741l-121 112l46 49l92 -69l118 69l42 -49l-159 -112h-18zM365 -13q-139 0 -220.5 82t-81.5 211q0 35 6 71q26 149 136.5 245.5t261.5 96.5q146 0 249 -105l-68 -74q-71 73 -180 73q-105 0 -183.5 -69.5t-96.5 -177.5q-5 -28 -5 -51q0 -85 51 -140t141 -55
q121 0 214 98l64 -78q-123 -127 -288 -127z" />
    <glyph glyph-name="ccaron" unicode="&#x10d;" horiz-adv-x="463" 
d="M301 519l-117 108l44 47l89 -67l115 67l40 -47l-154 -108h-17zM233 -13q-83 0 -141 53t-58 145q0 20 5 50q19 104 92.5 163.5t171.5 59.5q94 0 159 -64l-62 -71q-39 40 -96 40q-55 0 -100 -37.5t-56 -101.5q-3 -15 -3 -30q0 -49 29.5 -80t79.5 -31q64 0 119 44l45 -77
q-81 -63 -185 -63z" />
    <glyph glyph-name="Dcaron" unicode="&#x10e;" horiz-adv-x="718" 
d="M411 741l-121 112l46 49l92 -69l118 69l42 -49l-159 -112h-18zM44 0l120 680h243q130 0 210 -78.5t80 -203.5q0 -32 -6 -67q-27 -152 -132 -241.5t-268 -89.5h-247zM179 102h122q103 0 179 67t95 175q4 21 4 48q0 81 -50 133.5t-143 52.5h-123z" />
    <glyph glyph-name="dcaron" unicode="&#x10f;" horiz-adv-x="591" 
d="M439 455l47 265h110l-127 -720h-76l-7 63q-65 -74 -169 -74q-79 0 -130.5 53t-51.5 141q0 22 5 52q17 95 82 158.5t161 63.5q100 0 148 -73q1 34 8 71zM666 720h103q-28 -116 -82 -184h-76q41 92 55 184zM251 84q60 0 100 38.5t51 99.5q3 18 3 33q0 48 -28 77t-79 29
q-56 0 -97.5 -37t-51.5 -97q-3 -16 -3 -32q0 -52 29 -81.5t76 -29.5z" />
    <glyph glyph-name="Dcroat" unicode="&#x110;" horiz-adv-x="723" 
d="M411 680q130 0 210.5 -79t80.5 -204q0 -31 -6 -66q-27 -152 -132.5 -241.5t-267.5 -89.5h-245l54 304h-64l15 83h63l52 293h240zM579 344q5 28 5 49q0 81 -50.5 133t-142.5 52h-120l-34 -191h171l-15 -83h-171l-36 -202h120q103 0 178.5 67t94.5 175z" />
    <glyph glyph-name="dcroat" unicode="&#x111;" horiz-adv-x="572" 
d="M630 605l-11 -67h-55l-95 -538h-76l-7 63q-66 -74 -169 -74q-80 0 -131 52t-51 138q0 22 5 54q18 94 82 156.5t161 62.5q98 0 147 -68q1 33 8 66l16 88h-151l12 67h151l20 115h110l-20 -115h54zM251 84q60 0 100 37.5t51 98.5q3 16 3 31q0 48 -28 77.5t-80 29.5
q-56 0 -97 -36.5t-51 -95.5q-3 -16 -3 -33q0 -50 29 -79.5t76 -29.5z" />
    <glyph glyph-name="Emacron" unicode="&#x112;" horiz-adv-x="560" 
d="M547 855l-16 -84h-284l15 84h285zM577 576h-313l-32 -181h273l-17 -99h-274l-34 -192h320l-18 -104h-438l120 680h431z" />
    <glyph glyph-name="emacron" unicode="&#x113;" horiz-adv-x="479" 
d="M461 626l-15 -79h-274l14 79h275zM299 458q73 0 115.5 -35.5t42.5 -95.5q0 -43 -21.5 -76t-58.5 -51.5t-82 -27.5t-96 -9q-31 0 -54 3q7 -43 37.5 -66t78.5 -23q67 0 123 34l33 -76q-82 -47 -178 -47q-91 0 -147.5 54t-56.5 140q0 116 75.5 196t188.5 80zM191 240
q69 0 117 18.5t48 60.5q0 49 -61 49q-54 0 -94 -36t-53 -90q22 -2 43 -2z" />
    <glyph glyph-name="Ebreve" unicode="&#x114;" horiz-adv-x="560" 
d="M388 742q-54 0 -91 30t-42 83l61 28q13 -59 72 -59q34 0 59 16.5t36 42.5l62 -28q-16 -55 -60 -84t-97 -29zM577 576h-313l-32 -181h273l-17 -99h-274l-34 -192h320l-18 -104h-438l120 680h431z" />
    <glyph glyph-name="ebreve" unicode="&#x115;" horiz-adv-x="479" 
d="M315 520q-53 0 -88.5 29t-39.5 80l59 26q11 -57 69 -57q33 0 57.5 16t34.5 41l59 -26q-16 -54 -57.5 -81.5t-93.5 -27.5zM299 458q73 0 115.5 -35.5t42.5 -95.5q0 -43 -21.5 -76t-58.5 -51.5t-82 -27.5t-96 -9q-31 0 -54 3q7 -43 37.5 -66t78.5 -23q67 0 123 34l33 -76
q-82 -47 -178 -47q-91 0 -147.5 54t-56.5 140q0 116 75.5 196t188.5 80zM191 240q69 0 117 18.5t48 60.5q0 49 -61 49q-54 0 -94 -36t-53 -90q22 -2 43 -2z" />
    <glyph glyph-name="Edotaccent" unicode="&#x116;" horiz-adv-x="560" 
d="M397 761q-29 0 -45.5 17t-16.5 43q0 28 20 49.5t50 21.5q29 0 45.5 -17.5t16.5 -43.5q0 -27 -20 -48.5t-50 -21.5zM577 576h-313l-32 -181h273l-17 -99h-274l-34 -192h320l-18 -104h-438l120 680h431z" />
    <glyph glyph-name="edotaccent" unicode="&#x117;" horiz-adv-x="479" 
d="M316 537q-27 0 -43 16.5t-16 41.5q0 27 19 48t48 21q28 0 44 -17t16 -43q0 -27 -19 -47t-49 -20zM457 327q0 -43 -21.5 -76t-58.5 -51.5t-82 -27.5t-96 -9q-31 0 -54 3q7 -43 37.5 -66t78.5 -23q67 0 123 34l33 -76q-82 -47 -178 -47q-91 0 -147.5 54t-56.5 140
q0 116 75.5 196t188.5 80q73 0 115.5 -35.5t42.5 -95.5zM148 242q22 -2 43 -2q69 0 117 18.5t48 60.5q0 49 -61 49q-54 0 -94 -36t-53 -90z" />
    <glyph glyph-name="Eogonek" unicode="&#x118;" horiz-adv-x="560" 
d="M577 576h-313l-32 -181h273l-17 -99h-274l-34 -192h320l-18 -104q-42 -27 -70 -58.5t-28 -53.5q0 -23 27 -23q21 0 43 13l18 -77q-42 -26 -96 -26q-47 0 -73 23t-26 61q0 68 86 141h-319l120 680h431z" />
    <glyph glyph-name="eogonek" unicode="&#x119;" horiz-adv-x="479" 
d="M457 327q0 -43 -21.5 -76t-58.5 -51.5t-82 -27.5t-96 -9q-31 0 -54 3q7 -43 37.5 -66t78.5 -23q68 0 124 33l32 -75q-65 -39 -106 -78t-41 -71q0 -24 27 -24q21 0 45 15l20 -70q-40 -25 -89 -25q-43 0 -68 22t-25 57q0 64 68 127h-9q-91 0 -147.5 54t-56.5 140
q0 116 75.5 196t188.5 80q73 0 115.5 -35.5t42.5 -95.5zM148 242q22 -2 43 -2q69 0 117 18.5t48 60.5q0 49 -61 49q-54 0 -94 -36t-53 -90z" />
    <glyph glyph-name="Ecaron" unicode="&#x11a;" horiz-adv-x="560" 
d="M396 741h-18l-121 112l46 49l92 -69l118 69l42 -49zM577 576h-313l-32 -181h273l-17 -99h-274l-34 -192h320l-18 -104h-438l120 680h431z" />
    <glyph glyph-name="ecaron" unicode="&#x11b;" horiz-adv-x="479" 
d="M316 519h-17l-117 108l44 47l89 -67l115 67l40 -47zM299 458q73 0 115.5 -35.5t42.5 -95.5q0 -43 -21.5 -76t-58.5 -51.5t-82 -27.5t-96 -9q-31 0 -54 3q7 -43 37.5 -66t78.5 -23q67 0 123 34l33 -76q-82 -47 -178 -47q-91 0 -147.5 54t-56.5 140q0 116 75.5 196
t188.5 80zM191 240q69 0 117 18.5t48 60.5q0 49 -61 49q-54 0 -94 -36t-53 -90q22 -2 43 -2z" />
    <glyph glyph-name="Gcircumflex" unicode="&#x11c;" horiz-adv-x="731" 
d="M481 806l-117 -68l-40 52l159 110h18l123 -112l-46 -50zM402 283l18 97h288l-50 -280q-125 -113 -290 -113q-144 0 -224 82t-80 212q0 35 6 73q26 150 137 244.5t262 94.5q78 0 136 -25.5t110 -77.5l-67 -76q-39 39 -80 56.5t-103 17.5q-103 0 -182 -68t-98 -172
q-5 -33 -5 -57q0 -90 52 -144.5t148 -54.5q112 0 182 61l23 130h-183z" />
    <glyph glyph-name="gcircumflex" unicode="&#x11d;" horiz-adv-x="571" 
d="M343 582l-113 -67l-38 50l152 106h18l118 -108l-44 -48zM472 446h73l-82 -472q-18 -103 -88 -154.5t-172 -51.5q-117 0 -195 73l52 80q61 -55 139 -55q63 0 104 30.5t52 87.5q7 36 15 66q-65 -58 -154 -58q-84 0 -132.5 51.5t-48.5 135.5q0 22 5 54q18 101 84 162.5
t161 61.5q106 0 153 -78zM402 225q3 15 3 30q0 47 -27.5 76.5t-79.5 29.5q-57 0 -97.5 -37t-51.5 -101q-3 -18 -3 -33q0 -49 28.5 -77t75.5 -28q60 0 100 38.5t52 101.5z" />
    <glyph glyph-name="Gbreve" unicode="&#x11e;" horiz-adv-x="731" 
d="M468 742q-54 0 -91 30t-42 83l61 28q13 -59 72 -59q34 0 59 16.5t36 42.5l62 -28q-16 -55 -60 -84t-97 -29zM402 283l18 97h288l-50 -280q-125 -113 -290 -113q-144 0 -224 82t-80 212q0 35 6 73q26 150 137 244.5t262 94.5q78 0 136 -25.5t110 -77.5l-67 -76
q-39 39 -80 56.5t-103 17.5q-103 0 -182 -68t-98 -172q-5 -33 -5 -57q0 -90 52 -144.5t148 -54.5q112 0 182 61l23 130h-183z" />
    <glyph glyph-name="gbreve" unicode="&#x11f;" horiz-adv-x="571" 
d="M337 520q-53 0 -88.5 29t-39.5 80l59 26q11 -57 69 -57q33 0 57.5 16t34.5 41l59 -26q-16 -54 -57.5 -81.5t-93.5 -27.5zM472 446h73l-82 -472q-18 -103 -88 -154.5t-172 -51.5q-117 0 -195 73l52 80q61 -55 139 -55q63 0 104 30.5t52 87.5q7 36 15 66q-65 -58 -154 -58
q-84 0 -132.5 51.5t-48.5 135.5q0 22 5 54q18 101 84 162.5t161 61.5q106 0 153 -78zM402 225q3 15 3 30q0 47 -27.5 76.5t-79.5 29.5q-57 0 -97.5 -37t-51.5 -101q-3 -18 -3 -33q0 -49 28.5 -77t75.5 -28q60 0 100 38.5t52 101.5z" />
    <glyph glyph-name="Gdotaccent" unicode="&#x120;" horiz-adv-x="731" 
d="M477 761q-29 0 -45.5 17t-16.5 43q0 28 20 49.5t50 21.5q29 0 45.5 -17.5t16.5 -43.5q0 -27 -20 -48.5t-50 -21.5zM402 283l18 97h288l-50 -280q-125 -113 -290 -113q-144 0 -224 82t-80 212q0 35 6 73q26 150 137 244.5t262 94.5q78 0 136 -25.5t110 -77.5l-67 -76
q-39 39 -80 56.5t-103 17.5q-103 0 -182 -68t-98 -172q-5 -33 -5 -57q0 -90 52 -144.5t148 -54.5q112 0 182 61l23 130h-183z" />
    <glyph glyph-name="gdotaccent" unicode="&#x121;" horiz-adv-x="571" 
d="M337 537q-27 0 -43 16.5t-16 41.5q0 27 19 48t48 21q28 0 44 -17t16 -43q0 -27 -19 -47t-49 -20zM472 446h73l-82 -472q-18 -103 -88 -154.5t-172 -51.5q-117 0 -195 73l52 80q61 -55 139 -55q63 0 104 30.5t52 87.5q7 36 15 66q-65 -58 -154 -58q-84 0 -132.5 51.5
t-48.5 135.5q0 22 5 54q18 101 84 162.5t161 61.5q106 0 153 -78zM402 225q3 15 3 30q0 47 -27.5 76.5t-79.5 29.5q-57 0 -97.5 -37t-51.5 -101q-3 -18 -3 -33q0 -49 28.5 -77t75.5 -28q60 0 100 38.5t52 101.5z" />
    <glyph glyph-name="uni0122" unicode="&#x122;" horiz-adv-x="731" 
d="M402 283l18 97h288l-50 -280q-125 -113 -290 -113q-144 0 -224 82t-80 212q0 35 6 73q26 150 137 244.5t262 94.5q78 0 136 -25.5t110 -77.5l-67 -76q-39 39 -80 56.5t-103 17.5q-103 0 -182 -68t-98 -172q-5 -33 -5 -57q0 -90 52 -144.5t148 -54.5q112 0 182 61l23 130
h-183zM249 -287q43 93 62 192h102q-29 -122 -89 -192h-75z" />
    <glyph glyph-name="uni0123" unicode="&#x123;" horiz-adv-x="571" 
d="M439 718q-44 -99 -61 -188h-100q29 119 88 188h73zM472 446h73l-82 -472q-18 -103 -88 -154.5t-172 -51.5q-117 0 -195 73l52 80q61 -55 139 -55q63 0 104 30.5t52 87.5q7 36 15 66q-65 -58 -154 -58q-84 0 -132.5 51.5t-48.5 135.5q0 22 5 54q18 101 84 162.5t161 61.5
q106 0 153 -78zM402 225q3 15 3 30q0 47 -27.5 76.5t-79.5 29.5q-57 0 -97.5 -37t-51.5 -101q-3 -18 -3 -33q0 -49 28.5 -77t75.5 -28q60 0 100 38.5t52 101.5z" />
    <glyph glyph-name="Hcircumflex" unicode="&#x124;" horiz-adv-x="736" 
d="M468 806l-117 -68l-40 52l159 110h18l123 -112l-46 -50zM615 680h118l-119 -680h-118l50 288h-334l-50 -288h-118l119 680h118l-50 -283h334z" />
    <glyph glyph-name="hcircumflex" unicode="&#x125;" horiz-adv-x="525" 
d="M115 778l-40 52l159 110h18l123 -112l-46 -50l-97 68zM25 0l127 720h109l-43 -245q-6 -35 -19 -86q64 69 149 69q66 0 99.5 -35t33.5 -98q0 -25 -4 -48l-49 -277h-110l49 275q2 16 2 22q0 63 -65 63q-50 0 -84.5 -37.5t-44.5 -92.5l-40 -230h-110z" />
    <glyph glyph-name="Hbar" unicode="&#x126;" horiz-adv-x="748" 
d="M783 583l-12 -64h-60l-92 -519h-117l50 288h-334l-50 -288h-118l91 519h-60l11 64h60l17 97h118l-17 -97h334l17 97h118l-17 -97h61zM571 397l22 122h-334l-22 -122h334z" />
    <glyph glyph-name="hbar" unicode="&#x127;" horiz-adv-x="526" 
d="M347 450q65 0 99 -35t34 -98q0 -25 -4 -48l-48 -269h-109l47 267q2 8 2 23q0 62 -65 62q-50 0 -84.5 -37.5t-44.5 -91.5l-39 -223h-109l94 538h-55l11 67h56l20 115h110l-20 -115h154l-11 -67h-155l-12 -66q-6 -35 -19 -90q61 68 148 68z" />
    <glyph glyph-name="Itilde" unicode="&#x128;" horiz-adv-x="285" 
d="M149 760l-63 43q34 79 99 79q29 0 65 -17q28 -13 44 -13q26 0 48 36l63 -44q-39 -77 -99 -77q-28 0 -60 16q-31 14 -47 14q-29 0 -50 -37zM44 0l119 680h118l-119 -680h-118z" />
    <glyph glyph-name="itilde" unicode="&#x129;" horiz-adv-x="237" 
d="M92 537l-56 36q32 75 91 75q22 0 55.5 -13.5t44.5 -13.5q24 0 44 32l56 -38q-35 -72 -89 -72q-21 0 -53 14t-46 14q-27 0 -47 -34zM25 0l78 446h109l-78 -446h-109z" />
    <glyph glyph-name="Imacron" unicode="&#x12a;" horiz-adv-x="285" 
d="M94 771l15 84h285l-16 -84h-284zM44 0l119 680h118l-119 -680h-118z" />
    <glyph glyph-name="imacron" unicode="&#x12b;" horiz-adv-x="237" 
d="M64 543l14 81h220l-14 -81h-220zM25 0l78 446h109l-78 -446h-109z" />
    <glyph glyph-name="Ibreve" unicode="&#x12c;" horiz-adv-x="285" 
d="M236 742q-54 0 -91 30t-42 83l61 28q13 -59 72 -59q34 0 59 16.5t36 42.5l62 -28q-16 -55 -60 -84t-97 -29zM44 0l119 680h118l-119 -680h-118z" />
    <glyph glyph-name="ibreve" unicode="&#x12d;" horiz-adv-x="237" 
d="M180 520q-53 0 -88.5 29t-39.5 80l59 26q11 -57 69 -57q33 0 57.5 16t34.5 41l59 -26q-16 -54 -57.5 -81.5t-93.5 -27.5zM25 0l78 446h109l-78 -446h-109z" />
    <glyph glyph-name="Iogonek" unicode="&#x12e;" horiz-adv-x="285" 
d="M110 -136q22 0 43 13l15 -77q-46 -26 -98 -26q-47 0 -73 22.5t-26 59.5q0 66 78 144h-5l119 680h118l-119 -680q-34 -29 -57 -59.5t-24 -51.5q0 -25 29 -25z" />
    <glyph glyph-name="iogonek" unicode="&#x12f;" horiz-adv-x="238" 
d="M190 670q29 0 45.5 -17.5t16.5 -43.5q0 -28 -20 -49.5t-50 -21.5q-29 0 -45.5 17t-16.5 43q0 29 20 50.5t50 21.5zM134 0q-30 -26 -53.5 -59.5t-23.5 -56.5q0 -22 27 -22q19 0 45 15l19 -69q-40 -26 -91 -26q-44 0 -69 20t-25 57q0 64 74 141h-12l79 446h109z" />
    <glyph glyph-name="Idotaccent" unicode="&#x130;" horiz-adv-x="285" 
d="M245 761q-29 0 -45.5 17t-16.5 43q0 28 20 49.5t50 21.5q29 0 45.5 -17.5t16.5 -43.5q0 -27 -20 -48.5t-50 -21.5zM44 0l119 680h118l-119 -680h-118z" />
    <glyph glyph-name="dotlessi" unicode="&#x131;" horiz-adv-x="237" 
d="M25 0l78 446h109l-78 -446h-109z" />
    <glyph glyph-name="IJ" unicode="&#x132;" horiz-adv-x="783" 
d="M44 0l119 680h118l-119 -680h-118zM447 -13q-107 0 -184 65l67 87q52 -47 121 -47q120 0 142 134l80 454h117l-82 -470q-40 -223 -261 -223z" />
    <glyph glyph-name="ij" unicode="&#x133;" horiz-adv-x="485" 
d="M182 538q-28 0 -44.5 17t-16.5 42q0 29 19 51t50 22q29 0 45.5 -17t16.5 -43q0 -29 -20 -50.5t-50 -21.5zM430 538q-28 0 -44.5 17t-16.5 42q0 29 19 51t50 22q29 0 45.5 -17t16.5 -43q0 -29 -20 -50.5t-50 -21.5zM25 0l79 446h109l-79 -446h-109zM123 -232l1 91
q77 3 105.5 31.5t41.5 103.5l79 452h110l-82 -463q-21 -120 -77 -167.5t-178 -47.5z" />
    <glyph glyph-name="Jcircumflex" unicode="&#x134;" horiz-adv-x="498" 
d="M353 738l-40 52l159 110h18l123 -112l-46 -50l-97 68zM162 -13q-107 0 -184 65l67 87q52 -47 121 -47q120 0 142 134l80 454h117l-82 -470q-40 -223 -261 -223z" />
    <glyph glyph-name="jcircumflex" unicode="&#x135;" horiz-adv-x="247" 
d="M84 515l-38 50l152 106h18l118 -108l-44 -48l-93 67zM-114 -232l1 91q77 3 105.5 31.5t41.5 103.5l79 452h110l-82 -463q-21 -120 -77 -167.5t-178 -47.5z" />
    <glyph glyph-name="uni0136" unicode="&#x136;" horiz-adv-x="612" 
d="M662 680v-3l-336 -340l241 -334v-3h-133l-219 303l-53 -303h-118l119 680h118l-52 -298l296 298h137zM162 -287q43 93 62 192h102q-29 -122 -89 -192h-75z" />
    <glyph glyph-name="uni0137" unicode="&#x137;" horiz-adv-x="467" 
d="M483 446v-3l-214 -216l151 -224v-3h-118l-133 195l-34 -195h-110l127 720h109l-78 -445l169 171h131zM90 -280q43 97 61 189h99q-30 -120 -87 -189h-73z" />
    <glyph glyph-name="kgreenlandic" unicode="&#x138;" horiz-adv-x="465" 
d="M482 446v-5l-214 -214l151 -221v-6h-118l-132 195l-35 -195h-109l78 446h110l-30 -171l169 171h130z" />
    <glyph glyph-name="Lacute" unicode="&#x139;" horiz-adv-x="521" 
d="M185 744l-41 57l167 125l55 -82zM44 0l120 680h117l-100 -572h296l-19 -108h-414z" />
    <glyph glyph-name="lacute" unicode="&#x13a;" horiz-adv-x="237" 
d="M167 784l-41 57l167 125l55 -82zM25 0l127 720h109l-127 -720h-109z" />
    <glyph glyph-name="uni013B" unicode="&#x13b;" horiz-adv-x="521" 
d="M44 0l120 680h117l-100 -572h296l-19 -108h-414zM123 -287q43 93 62 192h102q-29 -122 -89 -192h-75z" />
    <glyph glyph-name="uni013C" unicode="&#x13c;" horiz-adv-x="237" 
d="M25 0l127 720h109l-127 -720h-109zM-46 -280q43 97 61 189h99q-30 -120 -87 -189h-73z" />
    <glyph glyph-name="Lcaron" unicode="&#x13d;" horiz-adv-x="521" 
d="M44 0l120 680h117l-100 -572h296l-19 -108h-414zM372 501q42 92 60 179h101q-26 -107 -86 -179h-75z" />
    <glyph glyph-name="lcaron" unicode="&#x13e;" horiz-adv-x="250" 
d="M25 0l127 720h109l-127 -720h-109zM270 536q41 92 55 184h103q-27 -113 -82 -184h-76z" />
    <glyph glyph-name="Ldot" unicode="&#x13f;" horiz-adv-x="521" 
d="M44 0l120 680h117l-100 -572h296l-19 -108h-414zM409 304q-28 0 -45.5 16.5t-17.5 43.5q0 34 21.5 54t50.5 20q28 0 45.5 -16.5t17.5 -43.5q0 -34 -21 -54t-51 -20z" />
    <glyph glyph-name="ldot" unicode="&#x140;" horiz-adv-x="371" 
d="M25 0l127 720h109l-127 -720h-109zM308 284q-27 0 -44.5 16t-17.5 44q0 33 21 52.5t50 19.5q27 0 45 -16t18 -42q0 -34 -21 -54t-51 -20z" />
    <glyph glyph-name="Lslash" unicode="&#x141;" horiz-adv-x="528" 
d="M187 108h296l-19 -108h-413l47 269l-55 -18l-21 84l93 30l55 315h117l-48 -275l135 44l20 -84l-172 -56z" />
    <glyph glyph-name="lslash" unicode="&#x142;" horiz-adv-x="297" 
d="M312 358l-92 -30l-57 -328h-110l51 290l-66 -22l-10 73l90 29l62 350h109l-55 -312l68 22z" />
    <glyph glyph-name="Nacute" unicode="&#x143;" horiz-adv-x="750" 
d="M595 844l-181 -100l-41 57l167 125zM629 680h118l-121 -684h-35l-291 388q-53 70 -59 78q-7 -58 -16 -109l-63 -353h-118l120 684h35l292 -381q54 -74 58 -80q6 41 15 93z" />
    <glyph glyph-name="nacute" unicode="&#x144;" horiz-adv-x="525" 
d="M431 616l-171 -95l-39 54l159 119zM347 458q64 0 99 -33.5t35 -97.5q0 -20 -5 -50l-49 -277h-109l48 272q2 9 2 25q0 63 -65 63q-51 0 -85 -36.5t-44 -94.5l-40 -229h-110l79 446h73l10 -72q66 84 161 84z" />
    <glyph glyph-name="uni0145" unicode="&#x145;" horiz-adv-x="750" 
d="M629 680h118l-121 -684h-35l-291 388q-53 70 -59 78q-7 -58 -16 -109l-63 -353h-118l120 684h35l292 -381q54 -74 58 -80q6 41 15 93zM223 -287q43 93 62 192h102q-29 -122 -89 -192h-75z" />
    <glyph glyph-name="uni0146" unicode="&#x146;" horiz-adv-x="525" 
d="M347 458q64 0 99 -33.5t35 -97.5q0 -20 -5 -50l-49 -277h-109l48 272q2 9 2 25q0 63 -65 63q-51 0 -85 -36.5t-44 -94.5l-40 -229h-110l79 446h73l10 -72q66 84 161 84zM107 -280q43 97 61 189h99q-30 -120 -87 -189h-73z" />
    <glyph glyph-name="Ncaron" unicode="&#x147;" horiz-adv-x="750" 
d="M474 741h-18l-121 112l46 49l92 -69l118 69l42 -49zM629 680h118l-121 -684h-35l-291 388q-53 70 -59 78q-7 -58 -16 -109l-63 -353h-118l120 684h35l292 -381q54 -74 58 -80q6 41 15 93z" />
    <glyph glyph-name="ncaron" unicode="&#x148;" horiz-adv-x="525" 
d="M317 519h-17l-117 108l44 47l89 -67l115 67l40 -47zM347 458q64 0 99 -33.5t35 -97.5q0 -20 -5 -50l-49 -277h-109l48 272q2 9 2 25q0 63 -65 63q-51 0 -85 -36.5t-44 -94.5l-40 -229h-110l79 446h73l10 -72q66 84 161 84z" />
    <glyph glyph-name="napostrophe" unicode="&#x149;" horiz-adv-x="569" 
d="M18 458q43 96 62 192h102q-31 -122 -89 -192h-75zM68 0l79 446h88l-1 -70q58 82 157 82q64 0 99 -33.5t35 -97.5q0 -20 -5 -50l-49 -277h-109l48 272q2 18 2 24q0 64 -65 64q-50 0 -84.5 -37t-44.5 -94l-41 -229h-109z" />
    <glyph glyph-name="Eng" unicode="&#x14a;" horiz-adv-x="750" 
d="M629 680h119l-120 -680q-40 -221 -257 -226l-6 106q119 1 147 132l13 68l-227 309q-39 50 -57 75q-4 -43 -12 -86l-67 -378h-118l120 684h34l297 -386q40 -50 56 -75q5 42 14 92z" />
    <glyph glyph-name="eng" unicode="&#x14b;" horiz-adv-x="525" 
d="M347 458q65 0 99.5 -34t34.5 -98q0 -20 -5 -50l-59 -327q-15 -86 -64.5 -129t-127.5 -43l-8 99q79 0 95 94l54 306q2 16 2 22q0 62 -63 62q-53 0 -87.5 -37t-43.5 -94l-40 -229h-110l79 446h73l10 -71q66 83 161 83z" />
    <glyph glyph-name="Omacron" unicode="&#x14c;" horiz-adv-x="799" 
d="M351 771l15 84h285l-16 -84h-284zM371 -13q-141 0 -225 80t-84 210q0 28 7 72q26 151 136 247.5t271 96.5q133 0 217.5 -82t84.5 -212q0 -32 -6 -68q-26 -150 -135.5 -247t-265.5 -97zM378 94q106 0 182 69t94 176q4 23 4 50q0 87 -51.5 142t-139.5 55q-107 0 -184 -68.5
t-97 -176.5q-5 -30 -5 -52q0 -87 52.5 -141t144.5 -54z" />
    <glyph glyph-name="omacron" unicode="&#x14d;" horiz-adv-x="553" 
d="M192 547l14 79h275l-15 -79h-274zM243 -12q-93 0 -150.5 55t-57.5 142q0 25 4 46q18 102 91 164.5t181 62.5q93 0 150.5 -55t57.5 -143q0 -25 -4 -45q-18 -103 -90.5 -165t-181.5 -62zM251 84q61 0 102.5 38.5t52.5 101.5q3 15 3 30q0 49 -28.5 78.5t-78.5 29.5
q-61 0 -102.5 -39.5t-51.5 -100.5q-3 -16 -3 -31q0 -48 28.5 -77.5t77.5 -29.5z" />
    <glyph glyph-name="Obreve" unicode="&#x14e;" horiz-adv-x="799" 
d="M493 742q-54 0 -91 30t-42 83l61 28q13 -59 72 -59q34 0 59 16.5t36 42.5l62 -28q-16 -55 -60 -84t-97 -29zM371 -13q-141 0 -225 80t-84 210q0 28 7 72q26 151 136 247.5t271 96.5q133 0 217.5 -82t84.5 -212q0 -32 -6 -68q-26 -150 -135.5 -247t-265.5 -97zM378 94
q106 0 182 69t94 176q4 23 4 50q0 87 -51.5 142t-139.5 55q-107 0 -184 -68.5t-97 -176.5q-5 -30 -5 -52q0 -87 52.5 -141t144.5 -54z" />
    <glyph glyph-name="obreve" unicode="&#x14f;" horiz-adv-x="553" 
d="M335 520q-53 0 -88.5 29t-39.5 80l59 26q11 -57 69 -57q33 0 57.5 16t34.5 41l59 -26q-16 -54 -57.5 -81.5t-93.5 -27.5zM243 -12q-93 0 -150.5 55t-57.5 142q0 25 4 46q18 102 91 164.5t181 62.5q93 0 150.5 -55t57.5 -143q0 -25 -4 -45q-18 -103 -90.5 -165t-181.5 -62
zM251 84q61 0 102.5 38.5t52.5 101.5q3 15 3 30q0 49 -28.5 78.5t-78.5 29.5q-61 0 -102.5 -39.5t-51.5 -100.5q-3 -16 -3 -31q0 -48 28.5 -77.5t77.5 -29.5z" />
    <glyph glyph-name="Ohungarumlaut" unicode="&#x150;" horiz-adv-x="799" 
d="M401 737l-58 38l122 151l71 -48zM565 737l-56 41l126 148l70 -52zM371 -13q-141 0 -225 80t-84 210q0 28 7 72q26 151 136 247.5t271 96.5q133 0 217.5 -82t84.5 -212q0 -32 -6 -68q-26 -150 -135.5 -247t-265.5 -97zM378 94q106 0 182 69t94 176q4 23 4 50
q0 87 -51.5 142t-139.5 55q-107 0 -184 -68.5t-97 -176.5q-5 -30 -5 -52q0 -87 52.5 -141t144.5 -54z" />
    <glyph glyph-name="ohungarumlaut" unicode="&#x151;" horiz-adv-x="553" 
d="M237 512l-56 37l110 149l70 -47zM398 512l-55 40l124 145l68 -50zM243 -12q-93 0 -150.5 55t-57.5 142q0 25 4 46q18 102 91 164.5t181 62.5q93 0 150.5 -55t57.5 -143q0 -25 -4 -45q-18 -103 -90.5 -165t-181.5 -62zM251 84q61 0 102.5 38.5t52.5 101.5q3 15 3 30
q0 49 -28.5 78.5t-78.5 29.5q-61 0 -102.5 -39.5t-51.5 -100.5q-3 -16 -3 -31q0 -48 28.5 -77.5t77.5 -29.5z" />
    <glyph glyph-name="OE" unicode="&#x152;" horiz-adv-x="920" 
d="M360 -13q-130 0 -213 84.5t-83 214.5q0 33 6 69q26 148 139 243t262 95q55 0 100 -13h384l-18 -104h-277l-32 -176h244l-18 -103h-244l-33 -193h282l-18 -104h-388q-50 -13 -93 -13zM377 92q40 0 88 16l84 466q-36 14 -78 14q-102 0 -184.5 -69t-99.5 -169q-5 -32 -5 -54
q0 -91 53.5 -147.5t141.5 -56.5z" />
    <glyph glyph-name="oe" unicode="&#x153;" horiz-adv-x="807" 
d="M542 164q-26 -1 -58 2q9 -89 111 -89q59 0 116 33l33 -74q-74 -48 -166 -48q-113 0 -160 84q-70 -84 -183 -84q-89 0 -144 53t-55 142q0 121 73.5 198t185.5 77q117 0 161 -91q71 90 182 91q70 0 111.5 -36t41.5 -96q0 -82 -72 -121.5t-177 -40.5zM628 369
q-53 0 -89 -35.5t-50 -91.5q28 -2 45 -2q68 1 112.5 20t44.5 60q0 24 -18 36.5t-45 12.5zM248 84q67 0 107.5 51.5t40.5 120.5q0 49 -24.5 77.5t-73.5 28.5q-67 0 -110 -51t-43 -120q0 -52 28 -79.5t75 -27.5z" />
    <glyph glyph-name="Racute" unicode="&#x154;" horiz-adv-x="628" 
d="M504 844l-181 -100l-41 57l167 125zM620 459q-13 -74 -61.5 -122t-126.5 -67l131 -267v-3h-127l-122 259h-107l-46 -259h-117l120 680h262q86 0 142 -49t56 -130q0 -23 -4 -42zM507 467q2 14 2 21q0 41 -28 66t-76 25h-142l-39 -222h133q59 0 100 29t50 81z" />
    <glyph glyph-name="racute" unicode="&#x155;" horiz-adv-x="371" 
d="M377 617l-171 -95l-39 54l159 119zM320 455q46 0 81 -18l-40 -92q-24 10 -55 10q-48 0 -84.5 -32.5t-48.5 -99.5l-39 -223h-109l78 446h74l10 -66q54 75 133 75z" />
    <glyph glyph-name="uni0156" unicode="&#x156;" horiz-adv-x="628" 
d="M620 459q-13 -74 -61.5 -122t-126.5 -67l131 -267v-3h-127l-122 259h-107l-46 -259h-117l120 680h262q86 0 142 -49t56 -130q0 -23 -4 -42zM507 467q2 14 2 21q0 41 -28 66t-76 25h-142l-39 -222h133q59 0 100 29t50 81zM171 -287q43 93 62 192h102q-29 -122 -89 -192
h-75z" />
    <glyph glyph-name="uni0157" unicode="&#x157;" horiz-adv-x="371" 
d="M320 455q46 0 81 -18l-40 -92q-24 10 -55 10q-48 0 -84.5 -32.5t-48.5 -99.5l-39 -223h-109l78 446h74l10 -66q54 75 133 75zM-51 -280q43 97 61 189h99q-30 -120 -87 -189h-73z" />
    <glyph glyph-name="Rcaron" unicode="&#x158;" horiz-adv-x="628" 
d="M383 741h-18l-121 112l46 49l92 -69l118 69l42 -49zM620 459q-13 -74 -61.5 -122t-126.5 -67l131 -267v-3h-127l-122 259h-107l-46 -259h-117l120 680h262q86 0 142 -49t56 -130q0 -23 -4 -42zM507 467q2 14 2 21q0 41 -28 66t-76 25h-142l-39 -222h133q59 0 100 29
t50 81z" />
    <glyph glyph-name="rcaron" unicode="&#x159;" horiz-adv-x="371" 
d="M263 520h-17l-117 108l44 47l89 -67l115 67l40 -47zM187 380q54 75 133 75q46 0 81 -18l-40 -92q-24 10 -55 10q-48 0 -84.5 -32.5t-48.5 -99.5l-39 -223h-109l78 446h74z" />
    <glyph glyph-name="Sacute" unicode="&#x15a;" horiz-adv-x="573" 
d="M324 744l-41 57l167 125l55 -82zM263 -13q-142 0 -249 95l65 84q78 -73 187 -73q59 0 99 27.5t40 69.5q0 35 -29 59t-95 54q-79 37 -122 81t-43 110q0 93 68.5 145.5t171.5 52.5q121 0 222 -77l-60 -81q-75 55 -159 55q-54 0 -89.5 -23t-35.5 -65q0 -35 28 -58.5
t88 -51.5q85 -39 130.5 -85t45.5 -111q0 -93 -74.5 -150.5t-188.5 -57.5z" />
    <glyph glyph-name="sacute" unicode="&#x15b;" horiz-adv-x="400" 
d="M205 521l-39 54l159 119l51 -78zM166 -10q-100 0 -165 52l46 76q51 -40 116 -40q34 0 56.5 13.5t22.5 36.5q0 18 -15.5 32.5t-52.5 30.5q-53 24 -81 54t-28 75q0 61 46 97t118 36q83 0 151 -45l-42 -71q-51 30 -102 30q-64 0 -64 -42q0 -18 16 -31t51 -30
q60 -27 86.5 -57.5t26.5 -72.5q0 -68 -52 -106t-134 -38z" />
    <glyph glyph-name="Scircumflex" unicode="&#x15c;" horiz-adv-x="573" 
d="M272 738l-40 52l159 110h18l123 -112l-46 -50l-97 68zM263 -13q-142 0 -249 95l65 84q78 -73 187 -73q59 0 99 27.5t40 69.5q0 35 -29 59t-95 54q-79 37 -122 81t-43 110q0 93 68.5 145.5t171.5 52.5q121 0 222 -77l-60 -81q-75 55 -159 55q-54 0 -89.5 -23t-35.5 -65
q0 -35 28 -58.5t88 -51.5q85 -39 130.5 -85t45.5 -111q0 -93 -74.5 -150.5t-188.5 -57.5z" />
    <glyph glyph-name="scircumflex" unicode="&#x15d;" horiz-adv-x="400" 
d="M154 515l-38 50l152 106h18l118 -108l-44 -48l-93 67zM166 -10q-100 0 -165 52l46 76q51 -40 116 -40q34 0 56.5 13.5t22.5 36.5q0 18 -15.5 32.5t-52.5 30.5q-53 24 -81 54t-28 75q0 61 46 97t118 36q83 0 151 -45l-42 -71q-51 30 -102 30q-64 0 -64 -42q0 -18 16 -31
t51 -30q60 -27 86.5 -57.5t26.5 -72.5q0 -68 -52 -106t-134 -38z" />
    <glyph glyph-name="Scedilla" unicode="&#x15e;" horiz-adv-x="573" 
d="M350 391q85 -39 130.5 -85t45.5 -111q0 -86 -64 -142.5t-164 -64.5l-26 -40q33 -4 55.5 -23.5t22.5 -51.5q0 -12 -5 -29q-26 -72 -130 -72q-67 0 -111 30l33 59q28 -20 65 -20q53 0 60 33q1 3 1 9q0 34 -84 32l39 75q-115 13 -204 92l65 84q78 -73 187 -73q59 0 99 27.5
t40 69.5q0 35 -29 59t-95 54q-79 37 -122 81t-43 110q0 93 68.5 145.5t171.5 52.5q121 0 222 -77l-60 -81q-75 55 -159 55q-54 0 -89.5 -23t-35.5 -65q0 -35 28 -58.5t88 -51.5z" />
    <glyph glyph-name="scedilla" unicode="&#x15f;" horiz-adv-x="400" 
d="M239 264q60 -27 86.5 -57.5t26.5 -72.5q0 -59 -40.5 -96t-107.5 -46l-27 -42q34 -5 55.5 -25t21.5 -50q0 -46 -36 -71t-92 -25q-63 0 -108 29l33 57q25 -19 64 -19q51 0 57 33q4 20 -20 29.5t-63 7.5l42 76q-78 9 -130 50l46 76q51 -40 116 -40q34 0 56.5 13.5t22.5 36.5
q0 18 -15.5 32.5t-52.5 30.5q-53 24 -81 54t-28 75q0 61 46 97t118 36q83 0 151 -45l-42 -71q-51 30 -102 30q-64 0 -64 -42q0 -18 16 -31t51 -30z" />
    <glyph glyph-name="Scaron" unicode="&#x160;" horiz-adv-x="573" 
d="M366 741l-121 112l46 49l92 -69l118 69l42 -49l-159 -112h-18zM263 -13q-142 0 -249 95l65 84q78 -73 187 -73q59 0 99 27.5t40 69.5q0 35 -29 59t-95 54q-79 37 -122 81t-43 110q0 93 68.5 145.5t171.5 52.5q121 0 222 -77l-60 -81q-75 55 -159 55q-54 0 -89.5 -23
t-35.5 -65q0 -35 28 -58.5t88 -51.5q85 -39 130.5 -85t45.5 -111q0 -93 -74.5 -150.5t-188.5 -57.5z" />
    <glyph glyph-name="scaron" unicode="&#x161;" horiz-adv-x="400" 
d="M245 519l-117 108l44 47l89 -67l115 67l40 -47l-154 -108h-17zM166 -10q-100 0 -165 52l46 76q51 -40 116 -40q34 0 56.5 13.5t22.5 36.5q0 18 -15.5 32.5t-52.5 30.5q-53 24 -81 54t-28 75q0 61 46 97t118 36q83 0 151 -45l-42 -71q-51 30 -102 30q-64 0 -64 -42
q0 -18 16 -31t51 -30q60 -27 86.5 -57.5t26.5 -72.5q0 -68 -52 -106t-134 -38z" />
    <glyph glyph-name="uni0162" unicode="&#x162;" horiz-adv-x="542" 
d="M291 0h-17l-33 -52q33 -4 56 -23.5t23 -50.5q0 -14 -6 -30q-26 -72 -130 -72q-67 0 -111 30l33 59q28 -20 65 -20q50 0 60 33q1 3 1 9q0 34 -84 32l45 85h-20l101 572h-193l19 108h503l-19 -108h-193z" />
    <glyph glyph-name="uni0163" unicode="&#x163;" horiz-adv-x="371" 
d="M229 354l-36 -209q-2 -14 -2 -19q0 -36 40 -36q34 0 74 24l27 -86q-52 -32 -111 -37l-25 -40q34 -5 55.5 -25t21.5 -50q0 -46 -36 -71t-92 -25q-63 0 -108 29l33 57q25 -19 64 -19q52 0 57 33q4 20 -20 29.5t-63 7.5l45 80q-74 23 -74 107q0 16 3 36l37 214l-81 5l15 87
h82l28 143h107l-25 -143h138l-16 -92h-138z" />
    <glyph glyph-name="Tcaron" unicode="&#x164;" horiz-adv-x="542" 
d="M373 741h-18l-121 112l46 49l92 -69l118 69l42 -49zM603 680l-19 -108h-193l-100 -572h-118l101 572h-193l19 108h503z" />
    <glyph glyph-name="tcaron" unicode="&#x165;" horiz-adv-x="376" 
d="M315 513q40 90 54 172h96q-26 -108 -78 -172h-72zM196 -10q-55 0 -88 29.5t-33 84.5q0 16 3 36l37 214l-77 5l15 87h78l28 143h107l-25 -143h138l-17 -92h-137l-37 -209q-2 -12 -2 -17q0 -38 41 -38q35 0 73 24l28 -86q-61 -38 -132 -38z" />
    <glyph glyph-name="Tbar" unicode="&#x166;" horiz-adv-x="542" 
d="M584 572h-193l-37 -208h119l-14 -81h-119l-50 -283h-117l50 283h-120l14 81h120l37 208h-193l19 108h503z" />
    <glyph glyph-name="tbar" unicode="&#x167;" horiz-adv-x="367" 
d="M363 359h-138l-17 -98h102l-12 -64h-100l-10 -56q-2 -14 -2 -19q0 -36 37 -36q38 0 78 24l27 -83q-61 -37 -133 -37q-55 0 -87.5 29t-32.5 85q0 18 3 37l10 56h-45l11 64h44l17 98l-76 6l14 81h78l28 144h107l-26 -144h139z" />
    <glyph glyph-name="Utilde" unicode="&#x168;" horiz-adv-x="692" 
d="M349 760l-63 43q34 79 99 79q29 0 65 -17q28 -13 44 -13q26 0 48 36l63 -44q-39 -77 -99 -77q-28 0 -60 16q-32 14 -47 14q-29 0 -50 -37zM310 -13q-105 0 -171.5 56t-66.5 149q0 24 4 44l78 444h118l-78 -444q-3 -18 -3 -33q0 -53 34.5 -81t94.5 -28q78 0 125 40t59 111
l77 435h118l-80 -452q-20 -118 -99 -179.5t-210 -61.5z" />
    <glyph glyph-name="utilde" unicode="&#x169;" horiz-adv-x="523" 
d="M278 571q-27 0 -47 -34l-56 36q32 75 91 75q22 0 55.5 -13.5t44.5 -13.5q24 0 44 32l56 -38q-34 -72 -89 -72q-21 0 -53 14t-46 14zM389 446h110l-79 -446h-76l-9 67q-59 -76 -154 -76q-63 0 -99.5 36.5t-36.5 99.5q0 22 4 41l49 278h109l-48 -274q-2 -14 -2 -21
q0 -28 16 -45t47 -17q52 0 85.5 36t43.5 94z" />
    <glyph glyph-name="Umacron" unicode="&#x16a;" horiz-adv-x="692" 
d="M295 771l15 84h285l-16 -84h-284zM310 -13q-105 0 -171.5 56t-66.5 149q0 24 4 44l78 444h118l-78 -444q-3 -18 -3 -33q0 -53 34.5 -81t94.5 -28q78 0 125 40t59 111l77 435h118l-80 -452q-20 -118 -99 -179.5t-210 -61.5z" />
    <glyph glyph-name="umacron" unicode="&#x16b;" horiz-adv-x="523" 
d="M465 626l-15 -79h-274l14 79h275zM389 446h110l-79 -446h-76l-9 67q-59 -76 -154 -76q-63 0 -99.5 36.5t-36.5 99.5q0 22 4 41l49 278h109l-48 -274q-2 -14 -2 -21q0 -28 16 -45t47 -17q52 0 85.5 36t43.5 94z" />
    <glyph glyph-name="Ubreve" unicode="&#x16c;" horiz-adv-x="692" 
d="M436 742q-54 0 -91 30t-42 83l61 28q13 -59 72 -59q34 0 59 16.5t36 42.5l62 -28q-16 -55 -60 -84t-97 -29zM310 -13q-105 0 -171.5 56t-66.5 149q0 24 4 44l78 444h118l-78 -444q-3 -18 -3 -33q0 -53 34.5 -81t94.5 -28q78 0 125 40t59 111l77 435h118l-80 -452
q-20 -118 -99 -179.5t-210 -61.5z" />
    <glyph glyph-name="ubreve" unicode="&#x16d;" horiz-adv-x="523" 
d="M319 520q-53 0 -88.5 29t-39.5 80l59 26q11 -57 69 -57q33 0 57.5 16t34.5 41l59 -26q-16 -54 -57.5 -81.5t-93.5 -27.5zM389 446h110l-79 -446h-76l-9 67q-59 -76 -154 -76q-63 0 -99.5 36.5t-36.5 99.5q0 22 4 41l49 278h109l-48 -274q-2 -14 -2 -21q0 -28 16 -45
t47 -17q52 0 85.5 36t43.5 94z" />
    <glyph glyph-name="Uring" unicode="&#x16e;" horiz-adv-x="692" 
d="M438 722q-47 0 -76.5 26.5t-29.5 68.5q0 52 37.5 87t91.5 35q46 0 75.5 -27t29.5 -70q0 -51 -37 -85.5t-91 -34.5zM441 783q25 0 41.5 16.5t16.5 40.5q0 17 -11.5 28t-30.5 11q-24 0 -41 -16t-17 -40q0 -18 11.5 -29t30.5 -11zM310 -13q-105 0 -171.5 56t-66.5 149
q0 24 4 44l78 444h118l-78 -444q-3 -18 -3 -33q0 -53 34.5 -81t94.5 -28q78 0 125 40t59 111l77 435h118l-80 -452q-20 -118 -99 -179.5t-210 -61.5z" />
    <glyph glyph-name="uring" unicode="&#x16f;" horiz-adv-x="523" 
d="M313 500q-44 0 -72 25.5t-28 66.5q0 49 36 82t86 33q44 0 72 -26t28 -66q0 -49 -35.5 -82t-86.5 -33zM276 596q0 -17 11 -28t29 -11q21 0 36.5 13t19.5 34q3 20 -8.5 33.5t-31.5 13.5q-24 0 -40 -16t-16 -39zM389 446h110l-79 -446h-76l-9 67q-59 -76 -154 -76
q-63 0 -99.5 36.5t-36.5 99.5q0 22 4 41l49 278h109l-48 -274q-2 -14 -2 -21q0 -28 16 -45t47 -17q52 0 85.5 36t43.5 94z" />
    <glyph glyph-name="Uhungarumlaut" unicode="&#x170;" horiz-adv-x="692" 
d="M344 737l-58 38l122 151l71 -48zM508 737l-56 41l126 148l70 -52zM310 -13q-105 0 -171.5 56t-66.5 149q0 24 4 44l78 444h118l-78 -444q-3 -18 -3 -33q0 -53 34.5 -81t94.5 -28q78 0 125 40t59 111l77 435h118l-80 -452q-20 -118 -99 -179.5t-210 -61.5z" />
    <glyph glyph-name="uhungarumlaut" unicode="&#x171;" horiz-adv-x="523" 
d="M345 651l-124 -139l-56 37l110 149zM382 512l-55 40l124 145l68 -50zM349 219l40 227h110l-79 -446h-76l-9 67q-59 -76 -154 -76q-63 0 -99.5 36.5t-36.5 99.5q0 22 4 41l49 278h109l-48 -274q-2 -14 -2 -21q0 -28 16 -45t47 -17q52 0 85.5 36t43.5 94z" />
    <glyph glyph-name="Uogonek" unicode="&#x172;" horiz-adv-x="692" 
d="M581 680h118l-80 -452q-23 -131 -115 -191q-54 -35 -95 -76.5t-46 -71.5q-3 -28 28 -28q23 0 46 16l16 -79q-43 -26 -96 -26q-48 0 -74 22t-26 59q0 66 72 134h-17q-106 0 -173 55.5t-67 148.5q0 24 4 45l78 444h118l-78 -444q-3 -18 -3 -33q0 -53 34.5 -81t94.5 -28
q78 0 125 40t59 111z" />
    <glyph glyph-name="uogonek" unicode="&#x173;" horiz-adv-x="523" 
d="M420 0q-98 -68 -98 -113q0 -23 24 -23q22 0 42 13l16 -71q-40 -26 -91 -26q-41 0 -64 21t-23 55q0 9 1 14q7 69 115 146l-7 51q-59 -76 -154 -76q-63 0 -99.5 36.5t-36.5 99.5q0 22 4 41l49 278h109l-48 -274q-2 -14 -2 -21q0 -28 16 -45t47 -17q52 0 85.5 36t43.5 94
l40 227h110z" />
    <glyph glyph-name="Wcircumflex" unicode="&#x174;" horiz-adv-x="966" 
d="M589 806l-117 -68l-40 52l159 110h18l123 -112l-46 -50zM905 680h127v-2l-360 -682h-34l-98 346q-17 63 -21 84q-19 -35 -50 -83l-220 -347h-35l-119 682v2h117l61 -361l12 -81q30 49 50 80l204 322h28l88 -317q11 -37 22 -81q12 25 41 81z" />
    <glyph glyph-name="wcircumflex" unicode="&#x175;" horiz-adv-x="685" 
d="M407 582l-113 -67l-38 50l152 106h18l118 -108l-44 -48zM592 446h119v-3l-251 -447h-33l-80 247l-167 -247h-34l-94 447v3h109l43 -215l6 -39q8 13 24 37l128 192h23l61 -193q2 -6 5.5 -17t5.5 -16q3 8 17 33z" />
    <glyph glyph-name="Ycircumflex" unicode="&#x176;" horiz-adv-x="647" 
d="M305 738l-40 52l159 110h18l123 -112l-46 -50l-97 68zM225 0l54 302l-184 378h122l99 -204q29 -66 32 -75q24 37 57 74l172 205h136l-317 -378l-53 -302h-118z" />
    <glyph glyph-name="ycircumflex" unicode="&#x177;" horiz-adv-x="490" 
d="M302 582l-113 -67l-38 50l152 106h18l118 -108l-44 -48zM399 446h121v-3l-374 -663h-118v2l142 239l-122 422v3h111l66 -249q8 -34 12 -57q10 23 28 57z" />
    <glyph glyph-name="Ydieresis" unicode="&#x178;" horiz-adv-x="647" 
d="M321 765q-26 0 -42.5 17t-16.5 40q0 7 1 11q5 22 22 37.5t41 15.5q27 0 42.5 -16.5t15.5 -40.5t-18 -44t-45 -20zM518 765q-27 0 -42.5 17t-15.5 41q0 7 1 11q3 21 21 36.5t41 15.5q26 0 41.5 -16.5t15.5 -39.5q0 -25 -17.5 -45t-44.5 -20zM225 0l54 302l-184 378h122
l99 -204q29 -66 32 -75q24 37 57 74l172 205h136l-317 -378l-53 -302h-118z" />
    <glyph glyph-name="Zacute" unicode="&#x179;" horiz-adv-x="564" 
d="M507 844l-181 -100l-41 57l167 125zM604 645l-389 -502q-5 -8 -29 -36q16 1 49 1h282l-19 -108h-504l4 35l390 505q12 16 27 33q-14 -1 -42 -1h-266l19 108h483z" />
    <glyph glyph-name="zacute" unicode="&#x17a;" horiz-adv-x="421" 
d="M391 616l-171 -95l-39 54l159 119zM419 415l-222 -285q-27 -32 -31 -37q20 1 50 1h150l-16 -94h-355l5 31l226 289q10 14 26 33q-16 -1 -43 -1h-145l17 94h343z" />
    <glyph glyph-name="Zdotaccent" unicode="&#x17b;" horiz-adv-x="564" 
d="M388 761q-29 0 -45.5 17t-16.5 43q0 28 20 49.5t50 21.5q29 0 45.5 -17.5t16.5 -43.5q0 -27 -20 -48.5t-50 -21.5zM604 645l-389 -502q-5 -8 -29 -36q16 1 49 1h282l-19 -108h-504l4 35l390 505q12 16 27 33q-14 -1 -42 -1h-266l19 108h483z" />
    <glyph glyph-name="zdotaccent" unicode="&#x17c;" horiz-adv-x="421" 
d="M277 537q-27 0 -43 16.5t-16 41.5q0 27 19 48t48 21q28 0 44 -17t16 -43q0 -27 -19 -47t-49 -20zM419 415l-222 -285q-27 -32 -31 -37q20 1 50 1h150l-16 -94h-355l5 31l226 289q10 14 26 33q-16 -1 -43 -1h-145l17 94h343z" />
    <glyph glyph-name="Zcaron" unicode="&#x17d;" horiz-adv-x="564" 
d="M386 741h-18l-121 112l46 49l92 -69l118 69l42 -49zM604 645l-389 -502q-5 -8 -29 -36q16 1 49 1h282l-19 -108h-504l4 35l390 505q12 16 27 33q-14 -1 -42 -1h-266l19 108h483z" />
    <glyph glyph-name="zcaron" unicode="&#x17e;" horiz-adv-x="421" 
d="M277 519h-17l-117 108l44 47l89 -67l115 67l40 -47zM64 352l17 94h343l-5 -31l-222 -285q-27 -32 -31 -37q20 1 50 1h150l-16 -94h-355l5 31l226 289q10 14 26 33q-16 -1 -43 -1h-145z" />
    <glyph glyph-name="florin" unicode="&#x192;" horiz-adv-x="484" 
d="M454 673q67 0 116 -42l-55 -84q-19 19 -53 19q-77 0 -103 -95l-19 -71h121l-29 -102h-120l-80 -292q-50 -178 -206 -178q-66 0 -117 42l55 85q25 -20 57 -20q72 0 99 95l73 268l-109 3l27 99h110l26 95q48 178 207 178z" />
    <glyph glyph-name="AEacute" unicode="&#x1fc;" horiz-adv-x="885" 
d="M790 844l-181 -100l-41 57l167 125zM899 576h-283l-32 -180h248l-17 -99h-248l-34 -193h292l-18 -104h-403l22 125h-234l-103 -125h-135v3l566 677h397zM474 398q8 46 22 106q-26 -37 -69 -90l-163 -198h178z" />
    <glyph glyph-name="aeacute" unicode="&#x1fd;" horiz-adv-x="827" 
d="M609 616l-171 -95l-39 54l159 119zM807 335q0 -81 -74 -126.5t-194 -45.5q-15 0 -49 2q12 -89 113 -89q71 0 132 35l32 -70q-81 -52 -174 -52q-100 0 -140 73l-18 -62h-74l3 57q-70 -68 -161 -68q-76 0 -121.5 48.5t-45.5 134.5q0 123 69.5 204.5t174.5 81.5
q95 0 140 -71l20 59h72l-1 -57q61 67 157 67q64 0 101.5 -33.5t37.5 -87.5zM495 241q30 -2 43 -2q75 0 122 21t48 60q0 50 -63 50q-56 0 -96 -35.5t-54 -93.5zM245 84q64 0 105 49.5t41 121.5q0 50 -25.5 78.5t-72.5 28.5q-63 0 -105 -48.5t-42 -123.5q0 -49 26 -77.5
t73 -28.5z" />
    <glyph glyph-name="Oslashacute" unicode="&#x1fe;" horiz-adv-x="799" 
d="M617 844l-181 -100l-41 57l167 125zM691 613q87 -82 87 -214q0 -32 -6 -68q-26 -149 -135.5 -246t-265.5 -97q-107 0 -183 48l-83 -94l-55 44l83 95q-70 76 -70 197q0 34 6 71q26 151 136 247t271 96q90 0 158 -38l78 89l56 -43zM185 341q-5 -30 -5 -52q0 -70 34 -119
l346 396q-40 20 -93 20q-107 0 -184.5 -68.5t-97.5 -176.5zM655 339q4 23 4 50q0 84 -47 137l-350 -402q49 -30 116 -30q106 0 182.5 69t94.5 176z" />
    <glyph glyph-name="oslashacute" unicode="&#x1ff;" horiz-adv-x="553" 
d="M446 616l-171 -95l-39 54l159 119zM463 403q56 -53 56 -141q0 -26 -4 -47q-18 -102 -91 -164.5t-181 -62.5q-62 0 -113 27l-45 -53l-37 30l44 51q-57 54 -57 141q0 26 4 47q18 101 91 164t182 63q63 0 112 -27l43 50l39 -28zM147 222q-3 -16 -3 -31q0 -39 19 -67l194 226
q-23 12 -54 12q-60 0 -102.5 -39.5t-53.5 -100.5zM407 224q2 10 2 29q0 42 -19 68l-194 -226q24 -12 55 -12q60 0 102 38.5t54 102.5z" />
    <glyph glyph-name="uni0218" unicode="&#x218;" horiz-adv-x="573" 
d="M263 -13q-142 0 -249 95l65 84q78 -73 187 -73q59 0 99 27.5t40 69.5q0 35 -29 59t-95 54q-79 37 -122 81t-43 110q0 93 68.5 145.5t171.5 52.5q121 0 222 -77l-60 -81q-75 55 -159 55q-54 0 -89.5 -23t-35.5 -65q0 -35 28 -58.5t88 -51.5q85 -39 130.5 -85t45.5 -111
q0 -93 -74.5 -150.5t-188.5 -57.5zM133 -287q43 93 62 192h102q-29 -122 -89 -192h-75z" />
    <glyph glyph-name="uni0219" unicode="&#x219;" horiz-adv-x="400" 
d="M166 -10q-100 0 -165 52l46 76q51 -40 116 -40q34 0 56.5 13.5t22.5 36.5q0 18 -15.5 32.5t-52.5 30.5q-53 24 -81 54t-28 75q0 61 46 97t118 36q83 0 151 -45l-42 -71q-51 30 -102 30q-64 0 -64 -42q0 -18 16 -31t51 -30q60 -27 86.5 -57.5t26.5 -72.5q0 -68 -52 -106
t-134 -38zM43 -280q43 97 61 189h99q-30 -120 -87 -189h-73z" />
    <glyph glyph-name="uni021A" unicode="&#x21a;" horiz-adv-x="542" 
d="M603 680l-19 -108h-193l-100 -572h-118l101 572h-193l19 108h503zM109 -287q43 93 62 192h102q-29 -122 -89 -192h-75z" />
    <glyph glyph-name="uni021B" unicode="&#x21b;" horiz-adv-x="371" 
d="M201 -10q-55 0 -88.5 29.5t-33.5 84.5q0 16 3 36l37 214l-81 5l15 87h82l28 143h107l-25 -143h138l-16 -92h-138l-36 -209q-2 -14 -2 -19q0 -36 40 -36q34 0 74 24l27 -86q-61 -38 -131 -38zM62 -279q43 97 61 189h99q-30 -120 -87 -189h-73z" />
    <glyph glyph-name="uni0237" unicode="&#x237;" horiz-adv-x="247" 
d="M-114 -232l1 91q77 3 105.5 31.5t41.5 103.5l79 452h110l-82 -463q-21 -120 -77 -167.5t-178 -47.5z" />
    <glyph glyph-name="circumflex" unicode="&#x2c6;" horiz-adv-x="412" 
d="M162 515l-38 50l152 106h18l118 -108l-44 -48l-93 67z" />
    <glyph glyph-name="caron" unicode="&#x2c7;" horiz-adv-x="411" 
d="M252 519l-117 108l44 47l89 -67l115 67l40 -47l-154 -108h-17z" />
    <glyph glyph-name="breve" unicode="&#x2d8;" horiz-adv-x="399" 
d="M260 520q-53 0 -88.5 29t-39.5 80l59 26q11 -57 69 -57q33 0 57.5 16t34.5 41l59 -26q-16 -54 -57.5 -81.5t-93.5 -27.5z" />
    <glyph glyph-name="dotaccent" unicode="&#x2d9;" horiz-adv-x="233" 
d="M178 537q-27 0 -43 16.5t-16 41.5q0 27 19 48t48 21q28 0 44 -17t16 -43q0 -27 -19 -47t-49 -20z" />
    <glyph glyph-name="ring" unicode="&#x2da;" horiz-adv-x="315" 
d="M215 500q-44 0 -72 25.5t-28 66.5q0 49 36 82t86 33q44 0 72 -26t28 -66q0 -49 -35.5 -82t-86.5 -33zM218 557q21 0 36.5 13t19.5 34q3 20 -8.5 33.5t-31.5 13.5q-24 0 -40 -16t-16 -39q0 -17 11 -28t29 -11z" />
    <glyph glyph-name="ogonek" unicode="&#x2db;" horiz-adv-x="265" 
d="M65 -220q-41 0 -64 21t-23 55q0 84 137 174l57 -30q-98 -68 -98 -113q0 -23 24 -23q22 0 42 13l16 -71q-40 -26 -91 -26z" />
    <glyph glyph-name="tilde" unicode="&#x2dc;" horiz-adv-x="407" 
d="M180 537l-56 36q32 75 91 75q22 0 55.5 -13.5t44.5 -13.5q24 0 44 32l56 -38q-35 -72 -89 -72q-21 0 -53 14t-46 14q-27 0 -47 -34z" />
    <glyph glyph-name="hungarumlaut" unicode="&#x2dd;" horiz-adv-x="419" 
d="M160 512l-56 37l110 149l70 -47zM321 512l-55 40l124 145l68 -50z" />
    <glyph glyph-name="gravecomb" unicode="&#x300;" 
d="M-33 521l-144 101l69 70l124 -124z" />
    <glyph glyph-name="acutecomb" unicode="&#x301;" 
d="M-155 521l-39 54l159 119l51 -78z" />
    <glyph glyph-name="uni0302" unicode="&#x302;" 
d="M-251 515l-38 50l152 106h18l118 -108l-44 -48l-93 67z" />
    <glyph glyph-name="tildecomb" unicode="&#x303;" 
d="M-228 537l-56 36q32 75 91 75q22 0 55.5 -13.5t44.5 -13.5q24 0 44 32l56 -38q-35 -72 -89 -72q-21 0 -53 14t-46 14q-27 0 -47 -34z" />
    <glyph glyph-name="uni0304" unicode="&#x304;" 
d="M-284 547l14 79h275l-15 -79h-274z" />
    <glyph glyph-name="uni0306" unicode="&#x306;" 
d="M-141 520q-53 0 -88.5 29t-39.5 80l59 26q11 -57 69 -57q33 0 57.5 16t34.5 41l59 -26q-16 -54 -57.5 -81.5t-93.5 -27.5z" />
    <glyph glyph-name="uni0307" unicode="&#x307;" 
d="M-57 537q-27 0 -43 16.5t-16 41.5q0 27 19 48t48 21q28 0 44 -17t16 -43q0 -27 -19 -47t-49 -20z" />
    <glyph glyph-name="uni0308" unicode="&#x308;" 
d="M-253 543q-26 0 -41.5 16t-15.5 39t18 42.5t44 19.5t41 -16t15 -39q0 -25 -17 -43.5t-44 -18.5zM-60 543q-25 0 -40.5 16t-15.5 39q0 1 0.5 5t0.5 6q3 20 20 35.5t40 15.5q26 0 41 -16t15 -39q0 -24 -17.5 -43t-43.5 -19z" />
    <glyph glyph-name="uni030A" unicode="&#x30a;" 
d="M-102 500q-44 0 -72 25.5t-28 66.5q0 49 36 82t86 33q44 0 72 -26t28 -66q0 -49 -35.5 -82t-86.5 -33zM-99 557q21 0 36.5 13t19.5 34q3 20 -8.5 33.5t-31.5 13.5q-24 0 -40 -16t-16 -39q0 -17 11 -28t29 -11z" />
    <glyph glyph-name="uni030B" unicode="&#x30b;" 
d="M-260 512l-56 37l110 149l70 -47zM-99 512l-55 40l124 145l68 -50z" />
    <glyph glyph-name="uni030C" unicode="&#x30c;" 
d="M-161 519l-117 108l44 47l89 -67l115 67l40 -47l-154 -108h-17z" />
    <glyph glyph-name="uni0312" unicode="&#x312;" 
d="M-123 530q29 119 88 188h73q-44 -99 -61 -188h-100z" />
    <glyph glyph-name="uni0326" unicode="&#x326;" 
d="M-265 -280q43 97 61 189h99q-30 -120 -87 -189h-73z" />
    <glyph glyph-name="uni0327" unicode="&#x327;" 
d="M-245 -221q-63 0 -108 29l33 57q25 -19 64 -19q52 0 57 33q4 20 -20 29.5t-63 7.5l48 86h73l-33 -52q34 -5 55.5 -25t21.5 -50q0 -46 -36 -71t-92 -25z" />
    <glyph glyph-name="uni0328" unicode="&#x328;" 
d="M-201 -220q-41 0 -64 21t-23 55q0 85 137 174l57 -30q-43 -29 -70.5 -60t-27.5 -53q0 -23 24 -23q22 0 42 13l16 -71q-40 -26 -91 -26z" />
    <glyph glyph-name="pi" unicode="&#x3c0;" horiz-adv-x="594" 
d="M614 446l-17 -94h-79l-63 -355h-106l63 355h-181l-62 -355h-106l62 355h-79l17 94h551z" />
    <glyph glyph-name="uni0401" unicode="&#x401;" horiz-adv-x="560" 
d="M299 765q-26 0 -42.5 17t-16.5 40q0 7 1 11q5 22 22 37.5t41 15.5q27 0 42.5 -16.5t15.5 -40.5t-18 -44t-45 -20zM496 765q-27 0 -42.5 17t-15.5 41q0 7 1 11q3 21 21 36.5t41 15.5q26 0 41.5 -16.5t15.5 -39.5q0 -25 -17.5 -45t-44.5 -20zM577 576h-313l-32 -181h273
l-17 -99h-274l-34 -192h320l-18 -104h-438l120 680h431z" />
    <glyph glyph-name="uni0402" unicode="&#x402;" horiz-adv-x="687" 
d="M474 420q85 0 129 -44.5t44 -122.5q0 -23 -5 -55q-32 -173 -214 -207l-8 99q95 27 110 121q2 10 2 28q0 82 -93 82q-51 0 -105 -18l-53 -303h-118l101 572h-183l19 108h513l-19 -108h-213l-30 -170q61 18 123 18z" />
    <glyph glyph-name="uni0403" unicode="&#x403;" horiz-adv-x="531" 
d="M339 744l-41 57l167 125l55 -82zM44 0l120 680h430l-19 -108h-313l-100 -572h-118z" />
    <glyph glyph-name="uni0404" unicode="&#x404;" horiz-adv-x="695" 
d="M375 95q64 0 114 25t102 77l64 -78q-125 -131 -290 -131q-139 0 -220.5 82t-81.5 210q0 35 6 71q26 149 136 245t263 96q154 0 251 -106l-72 -76q-69 76 -181 76q-91 0 -163.5 -53.5t-103.5 -141.5h277l-18 -102h-276q0 -85 51 -139.5t142 -54.5z" />
    <glyph glyph-name="uni0405" unicode="&#x405;" horiz-adv-x="573" 
d="M263 -13q-142 0 -249 95l65 84q78 -73 187 -73q59 0 99 27.5t40 69.5q0 35 -29 59t-95 54q-79 37 -122 81t-43 110q0 93 68.5 145.5t171.5 52.5q121 0 222 -77l-60 -81q-75 55 -159 55q-54 0 -89.5 -23t-35.5 -65q0 -35 28 -58.5t88 -51.5q85 -39 130.5 -85t45.5 -111
q0 -93 -74.5 -150.5t-188.5 -57.5z" />
    <glyph glyph-name="uni0406" unicode="&#x406;" horiz-adv-x="285" 
d="M44 0l119 680h118l-119 -680h-118z" />
    <glyph glyph-name="uni0407" unicode="&#x407;" horiz-adv-x="285" 
d="M147 765q-26 0 -42.5 17t-16.5 40q0 7 1 11q5 22 22 37.5t41 15.5q27 0 42.5 -16.5t15.5 -40.5t-18 -44t-45 -20zM344 765q-27 0 -42.5 17t-15.5 41q0 7 1 11q3 21 21 36.5t41 15.5q26 0 41.5 -16.5t15.5 -39.5q0 -25 -17.5 -45t-44.5 -20zM44 0l119 680h118l-119 -680
h-118z" />
    <glyph glyph-name="uni0408" unicode="&#x408;" horiz-adv-x="498" 
d="M162 -13q-107 0 -184 65l67 87q52 -47 121 -47q120 0 142 134l80 454h117l-82 -470q-40 -223 -261 -223z" />
    <glyph glyph-name="uni0409" unicode="&#x409;" horiz-adv-x="994" 
d="M773 419q86 0 140 -48.5t54 -128.5q0 -23 -4 -43q-17 -91 -83.5 -145t-169.5 -54h-255l101 572h-192l-75 -267q-48 -169 -118 -238.5t-175 -73.5l-12 100q70 5 116.5 70t86.5 205l91 312h415l-46 -261h126zM848 209q3 14 3 25q0 39 -27 61t-76 22h-119l-38 -215h119
q56 0 92.5 28.5t45.5 78.5z" />
    <glyph glyph-name="uni040A" unicode="&#x40a;" horiz-adv-x="998" 
d="M781 420q81 0 135.5 -51t54.5 -129q0 -18 -3 -38q-16 -91 -83 -146.5t-168 -55.5h-258l56 315h-298l-56 -315h-117l120 680h117l-46 -260h298l46 260h118l-46 -260h130zM853 211q2 14 2 20q0 38 -26 62.5t-70 24.5h-126l-38 -216h122q51 0 89 30t47 79z" />
    <glyph glyph-name="uni040B" unicode="&#x40b;" horiz-adv-x="700" 
d="M476 419q73 0 121 -41t48 -112q0 -17 -3 -35l-41 -231h-117l41 235q1 6 1 16q0 66 -88 66q-51 0 -105 -18l-52 -299h-117l100 572h-183l19 108h513l-19 -108h-213l-30 -170q62 17 125 17z" />
    <glyph glyph-name="uni040C" unicode="&#x40c;" horiz-adv-x="612" 
d="M577 840l-180 -100l-42 57l168 125zM662 680v-3l-336 -340l241 -334v-3h-133l-219 303l-53 -303h-118l119 680h118l-52 -298l296 298h137z" />
    <glyph glyph-name="uni040D" unicode="&#x40d;" horiz-adv-x="758" 
d="M596 791l-51 -49l-150 105l72 73zM720 684h36l-120 -684h-118l65 365q13 70 16 84q-11 -11 -61 -56l-458 -397h-37l120 684h118l-64 -358q-8 -48 -19 -91q26 25 74 67z" />
    <glyph glyph-name="uni040E" unicode="&#x40e;" horiz-adv-x="625" 
d="M397 740q-55 0 -94.5 25.5t-56.5 67.5l60 48q32 -54 92 -54q72 0 120 53l53 -46q-59 -94 -174 -94zM571 680h131v-3l-301 -471q-70 -111 -141.5 -161.5t-172.5 -51.5l-12 100q60 4 103.5 28t84.5 77l-177 479v3h122l130 -369z" />
    <glyph glyph-name="uni040F" unicode="&#x40f;" horiz-adv-x="707" 
d="M704 680l-120 -680h-215l-27 -152h-111l27 152h-214l120 680h117l-100 -572h304l101 572h118z" />
    <glyph glyph-name="uni0410" unicode="&#x410;" horiz-adv-x="688" 
d="M444 684l201 -681v-3h-118l-34 123h-321l-78 -123h-127v3l440 681h37zM396 489q-30 -57 -68 -117l-98 -156h239l-44 155q-21 79 -29 118z" />
    <glyph glyph-name="uni0411" unicode="&#x411;" horiz-adv-x="627" 
d="M595 575h-332l-29 -163h148q96 0 151.5 -46.5t55.5 -125.5q0 -23 -4 -43q-15 -87 -81 -142t-179 -55h-281l120 680h450zM366 313h-150l-38 -215h144q67 0 108.5 35.5t41.5 98.5q0 81 -106 81z" />
    <glyph glyph-name="uni0412" unicode="&#x412;" horiz-adv-x="624" 
d="M44 0l120 680h255q80 0 130.5 -41t50.5 -112q0 -16 -3 -34q-17 -101 -109 -145q39 -14 61.5 -48.5t22.5 -81.5q0 -18 -3 -37q-15 -87 -78.5 -134t-164.5 -47h-282zM231 396h132q49 0 84 32.5t35 82.5q0 36 -25 54t-69 18h-124zM178 97h142q54 0 90.5 28t45.5 78
q2 14 2 20q0 38 -26 58t-68 20h-150z" />
    <glyph glyph-name="uni0413" unicode="&#x413;" horiz-adv-x="531" 
d="M44 0l120 680h430l-19 -108h-313l-100 -572h-118z" />
    <glyph glyph-name="uni0414" unicode="&#x414;" horiz-adv-x="710" 
d="M687 680l-100 -572h82l-46 -260h-111l27 152h-462l-27 -152h-111l46 260h77q63 97 103 234l97 338h425zM275 312q-33 -116 -84 -204h280l81 464h-203z" />
    <glyph glyph-name="uni0415" unicode="&#x415;" horiz-adv-x="560" 
d="M577 576h-313l-32 -181h273l-17 -99h-274l-34 -192h320l-18 -104h-438l120 680h431z" />
    <glyph glyph-name="uni0416" unicode="&#x416;" horiz-adv-x="882" 
d="M943 680v-2l-321 -339l215 -337v-2h-128l-193 306l-54 -306h-118l54 304l-288 -304h-143v2l334 354l-203 322v2h128l186 -296l52 296h118l-52 -296l273 296h140z" />
    <glyph glyph-name="uni0417" unicode="&#x417;" horiz-adv-x="574" 
d="M241 -11q-157 0 -240 101l69 78q58 -74 167 -74q71 0 121.5 34.5t50.5 92.5q0 38 -28 58.5t-77 20.5h-99l18 101h79q57 0 88 30t31 76q0 36 -27 57.5t-77 22.5q-84 0 -165 -53l-34 91q103 67 216 67q90 0 147 -46.5t57 -121.5q0 -16 -3 -34q-8 -45 -35.5 -82.5
t-69.5 -55.5q41 -13 67 -49.5t26 -86.5q0 -16 -3 -34q-15 -86 -89 -139.5t-190 -53.5z" />
    <glyph glyph-name="uni0418" unicode="&#x418;" horiz-adv-x="758" 
d="M720 684h36l-120 -684h-118l65 365q13 70 16 84q-11 -11 -61 -56l-458 -397h-37l120 684h118l-64 -358q-8 -48 -19 -91q26 25 74 67z" />
    <glyph glyph-name="uni0419" unicode="&#x419;" horiz-adv-x="758" 
d="M485 740q-55 0 -94.5 25.5t-56.5 67.5l60 48q32 -54 92 -54q72 0 120 53l53 -46q-59 -94 -174 -94zM720 684h36l-120 -684h-118l65 365q13 70 16 84q-11 -11 -61 -56l-458 -397h-37l120 684h118l-64 -358q-8 -48 -19 -91q26 25 74 67z" />
    <glyph glyph-name="uni041A" unicode="&#x41a;" horiz-adv-x="612" 
d="M662 680v-3l-336 -340l241 -334v-3h-133l-219 303l-53 -303h-118l119 680h118l-52 -298l296 298h137z" />
    <glyph glyph-name="uni041B" unicode="&#x41b;" horiz-adv-x="710" 
d="M-4 -7l-12 99q70 6 115.5 70.5t86.5 205.5l90 312h431l-120 -680h-117l100 572h-209l-76 -267q-49 -169 -117.5 -238.5t-171.5 -73.5z" />
    <glyph glyph-name="uni041C" unicode="&#x41c;" horiz-adv-x="855" 
d="M752 684h40l-20 -684h-116l12 347q2 55 5 86q-14 -17 -56 -69l-189 -227h-24l-104 222q-2 5 -15.5 35t-21.5 48q-16 -61 -25 -88l-113 -354h-121l222 684h35l137 -294q10 -21 39 -85q5 6 68 84z" />
    <glyph glyph-name="uni041D" unicode="&#x41d;" horiz-adv-x="736" 
d="M615 680h118l-119 -680h-118l50 288h-334l-50 -288h-118l119 680h118l-50 -283h334z" />
    <glyph glyph-name="uni041E" unicode="&#x41e;" horiz-adv-x="799" 
d="M371 -13q-141 0 -225 80t-84 210q0 28 7 72q26 151 136 247.5t271 96.5q133 0 217.5 -82t84.5 -212q0 -32 -6 -68q-26 -150 -135.5 -247t-265.5 -97zM378 94q106 0 182 69t94 176q4 23 4 50q0 87 -51.5 142t-139.5 55q-107 0 -184 -68.5t-97 -176.5q-5 -30 -5 -52
q0 -87 52.5 -141t144.5 -54z" />
    <glyph glyph-name="uni041F" unicode="&#x41f;" horiz-adv-x="710" 
d="M44 0l119 680h544l-120 -680h-117l100 572h-308l-100 -572h-118z" />
    <glyph glyph-name="uni0420" unicode="&#x420;" horiz-adv-x="596" 
d="M420 680q90 0 142 -51t52 -132q0 -24 -4 -44q-15 -87 -81.5 -146t-175.5 -59h-148l-44 -248h-117l120 680h256zM498 490q0 42 -26 65t-74 23h-135l-40 -229h121q73 0 113.5 42.5t40.5 98.5z" />
    <glyph glyph-name="uni0421" unicode="&#x421;" horiz-adv-x="693" 
d="M365 -13q-139 0 -220.5 82t-81.5 211q0 35 6 71q26 149 136.5 245.5t261.5 96.5q146 0 249 -105l-68 -74q-71 73 -180 73q-105 0 -183.5 -69.5t-96.5 -177.5q-5 -28 -5 -51q0 -85 51 -140t141 -55q121 0 214 98l64 -78q-123 -127 -288 -127z" />
    <glyph glyph-name="uni0422" unicode="&#x422;" horiz-adv-x="542" 
d="M603 680l-19 -108h-193l-100 -572h-118l101 572h-193l19 108h503z" />
    <glyph glyph-name="uni0423" unicode="&#x423;" horiz-adv-x="625" 
d="M571 680h131v-3l-301 -471q-70 -111 -141.5 -161.5t-172.5 -51.5l-12 100q60 4 103.5 28t84.5 77l-177 479v3h122l130 -369z" />
    <glyph glyph-name="uni0424" unicode="&#x424;" horiz-adv-x="832" 
d="M548 645q129 -14 201.5 -82t72.5 -170q0 -22 -5 -52q-21 -120 -117.5 -198t-256.5 -89l-18 -106h-113l19 107q-130 14 -202.5 82t-72.5 171q0 21 5 51q21 121 118 198.5t256 88.5l17 97h113zM701 348q4 28 4 39q0 67 -45.5 107.5t-132.5 48.5l-69 -385q106 11 167.5 60.5
t75.5 129.5zM176 352q-3 -20 -3 -39q0 -67 45.5 -107.5t133.5 -48.5l67 385q-105 -11 -167 -60t-76 -130z" />
    <glyph glyph-name="uni0425" unicode="&#x425;" horiz-adv-x="646" 
d="M-27 0v2l304 357l-164 319v2h128l93 -183q17 -37 23 -53q17 22 41 51l159 185h142v-2l-283 -325l179 -351v-2h-127l-94 184q-28 55 -38 82q-32 -46 -55 -71l-167 -195h-141z" />
    <glyph glyph-name="uni0426" unicode="&#x426;" horiz-adv-x="734" 
d="M704 680l-100 -572h90l-46 -260h-111l27 152h-520l120 680h117l-100 -572h305l101 572h117z" />
    <glyph glyph-name="uni0427" unicode="&#x427;" horiz-adv-x="649" 
d="M529 680h117l-120 -680h-117l45 254q-72 -23 -155 -23q-96 0 -155 46.5t-59 130.5q0 25 4 46l41 226h117l-39 -222q-3 -18 -3 -32q0 -88 112 -88q75 0 157 32z" />
    <glyph glyph-name="uni0428" unicode="&#x428;" horiz-adv-x="1009" 
d="M889 680h117l-120 -680h-842l120 680h117l-101 -572h246l101 572h117l-101 -572h245z" />
    <glyph glyph-name="uni0429" unicode="&#x429;" horiz-adv-x="1038" 
d="M1008 680l-100 -572h90l-47 -260h-111l27 152h-823l120 680h117l-101 -572h246l101 572h118l-101 -572h246l101 572h117z" />
    <glyph glyph-name="uni042A" unicode="&#x42a;" horiz-adv-x="726" 
d="M505 419q85 0 140 -47t55 -128q0 -25 -4 -46q-17 -89 -84.5 -143.5t-169.5 -54.5h-278l100 572h-184l19 108h302l-46 -261h150zM583 234q0 40 -27 61.5t-76 21.5h-143l-38 -215h143q62 0 101.5 37t39.5 95z" />
    <glyph glyph-name="uni042B" unicode="&#x42b;" horiz-adv-x="887" 
d="M385 420q86 0 140.5 -47t54.5 -128q0 -26 -4 -47q-17 -89 -84.5 -143.5t-169.5 -54.5h-278l119 680h118l-46 -260h150zM765 680h118l-119 -680h-118zM463 235q0 40 -27 62t-76 22h-143l-38 -217h143q62 0 101.5 37t39.5 96z" />
    <glyph glyph-name="uni042C" unicode="&#x42c;" horiz-adv-x="606" 
d="M385 420q86 0 140.5 -47t54.5 -128q0 -26 -4 -47q-17 -89 -84.5 -143.5t-169.5 -54.5h-278l119 680h118l-46 -260h150zM463 235q0 40 -27 62t-76 22h-143l-38 -217h143q62 0 101.5 37t39.5 96z" />
    <glyph glyph-name="uni042D" unicode="&#x42d;" horiz-adv-x="699" 
d="M376 692q134 0 218 -82.5t84 -209.5q0 -32 -6 -67q-28 -148 -134.5 -246.5t-263.5 -98.5q-91 0 -160 39.5t-110 97.5l84 67q38 -50 81.5 -73.5t110.5 -23.5q94 0 163 54t98 141h-286l18 101h286q-1 85 -53.5 139.5t-141.5 54.5q-113 0 -205 -73l-56 83q117 97 273 97z
" />
    <glyph glyph-name="uni042E" unicode="&#x42e;" horiz-adv-x="1037" 
d="M720 692q128 0 211.5 -83.5t83.5 -210.5q0 -32 -6 -67q-26 -150 -134 -246.5t-262 -96.5q-132 0 -215.5 84.5t-81.5 214.5h-104l-50 -287h-118l119 680h118l-50 -284h102q38 133 140.5 214.5t246.5 81.5zM892 339q5 28 5 51q0 85 -51.5 140t-136.5 55q-103 0 -178 -68.5
t-95 -175.5q-5 -28 -5 -50q0 -85 52 -140.5t136 -55.5q104 0 178.5 68.5t94.5 175.5z" />
    <glyph glyph-name="uni042F" unicode="&#x42f;" horiz-adv-x="657" 
d="M391 680h263l-120 -680h-117l46 264h-98l-247 -264h-138v4l259 275q-55 20 -85 65t-30 101q0 19 3 37q17 91 86 144.5t178 53.5zM480 360l38 218h-128q-61 0 -100 -26.5t-49 -79.5q-2 -16 -2 -22q0 -41 29.5 -65.5t80.5 -24.5h131z" />
    <glyph glyph-name="uni0430" unicode="&#x430;" horiz-adv-x="573" 
d="M468 446h80l-79 -446h-82l-3 60q-67 -71 -166 -71q-84 0 -133 53t-49 138q0 31 5 55q18 100 84 161t158 61q104 0 152 -81zM253 84q58 0 98.5 39t51.5 98q3 18 3 34q0 48 -28.5 77.5t-80.5 29.5q-55 0 -95.5 -37.5t-51.5 -97.5q-4 -24 -4 -35q0 -49 29 -78.5t78 -29.5z
" />
    <glyph glyph-name="uni0431" unicode="&#x431;" horiz-adv-x="561" 
d="M353 447q76 0 125.5 -46t49.5 -128q0 -22 -5 -52q-19 -110 -93.5 -171t-175.5 -61q-97 0 -152 52t-55 153q0 38 9 83l9 49q37 203 187 294q61 37 150.5 60.5t127.5 45.5l24 -96q-48 -27 -130.5 -48.5t-123.5 -45.5q-91 -51 -125 -166q74 77 178 77zM411 220q3 15 3 30
q0 46 -27 74t-76 28q-55 0 -97 -38t-52 -97q-3 -17 -3 -32q0 -47 28 -74t74 -27q60 0 100 38.5t50 97.5z" />
    <glyph glyph-name="uni0432" unicode="&#x432;" horiz-adv-x="481" 
d="M445 339q0 -84 -74 -113q60 -26 60 -89q0 -7 -2 -19q-10 -57 -52.5 -87.5t-111.5 -30.5h-240l78 446h216q55 0 90.5 -29t35.5 -78zM342 326q0 41 -51 41h-94l-18 -104h92q33 0 52 18.5t19 44.5zM323 135q1 4 1 10q0 43 -54 43h-104l-19 -110h102q64 0 74 57z" />
    <glyph glyph-name="uni0433" unicode="&#x433;" horiz-adv-x="388" 
d="M25 0l78 446h302l-17 -94h-192l-62 -352h-109z" />
    <glyph glyph-name="uni0434" unicode="&#x434;" horiz-adv-x="541" 
d="M436 92h63l-36 -206h-101l20 114h-303l-20 -114h-101l36 206h53q42 50 66 141l57 213h328zM213 207q-18 -75 -47 -117h165l47 266h-126z" />
    <glyph glyph-name="uni0435" unicode="&#x435;" horiz-adv-x="479" 
d="M457 327q0 -43 -21.5 -76t-58.5 -51.5t-82 -27.5t-96 -9q-31 0 -54 3q7 -43 37.5 -66t78.5 -23q67 0 123 34l33 -76q-82 -47 -178 -47q-91 0 -147.5 54t-56.5 140q0 116 75.5 196t188.5 80q73 0 115.5 -35.5t42.5 -95.5zM148 242q22 -2 43 -2q69 0 117 18.5t48 60.5
q0 49 -61 49q-54 0 -94 -36t-53 -90z" />
    <glyph glyph-name="uni0436" unicode="&#x436;" horiz-adv-x="668" 
d="M684 446v-3l-201 -216l138 -225v-2h-115l-121 197l-35 -197h-108l35 199l-180 -199h-129v2l224 238l-128 203v3h114l111 -180l31 180h109l-32 -178l162 178h125z" />
    <glyph glyph-name="uni0437" unicode="&#x437;" horiz-adv-x="415" 
d="M169 -9q-107 0 -180 51l49 75q48 -38 116 -38q50 0 77.5 19t27.5 49q0 42 -57 42h-85l14 80h67q32 0 50.5 16t18.5 39q0 42 -64 42q-44 0 -108 -27l-22 80q80 36 150 36q66 0 109.5 -29.5t43.5 -82.5q0 -8 -2 -24q-5 -27 -24.5 -51.5t-49.5 -34.5q30 -9 47.5 -33.5
t17.5 -58.5q0 -7 -2 -23q-11 -59 -62.5 -93t-131.5 -34z" />
    <glyph glyph-name="uni0438" unicode="&#x438;" horiz-adv-x="524" 
d="M455 446h45l-79 -446h-107l34 195q3 19 13 59q-29 -29 -62 -56l-230 -199h-45l79 447h108l-35 -198q-4 -28 -14 -63q42 42 63 60z" />
    <glyph glyph-name="uni0439" unicode="&#x439;" horiz-adv-x="524" 
d="M339 530q-49 0 -84 22.5t-49 64.5l62 40q22 -47 76 -47q59 0 98 48l55 -43q-53 -85 -158 -85zM455 446h45l-79 -446h-107l34 195q3 19 13 59q-29 -29 -62 -56l-230 -199h-45l79 447h108l-35 -198q-4 -28 -14 -63q42 42 63 60z" />
    <glyph glyph-name="uni043A" unicode="&#x43a;" horiz-adv-x="465" 
d="M482 446v-5l-214 -214l151 -221v-6h-118l-132 195l-35 -195h-109l78 446h110l-30 -171l169 171h130z" />
    <glyph glyph-name="uni043B" unicode="&#x43b;" horiz-adv-x="517" 
d="M-9 -8l-10 92q52 7 83 41.5t50 105.5l57 215h321l-78 -446h-109l62 352h-116l-40 -156q-27 -101 -79.5 -150t-140.5 -54z" />
    <glyph glyph-name="uni043C" unicode="&#x43c;" horiz-adv-x="623" 
d="M525 447h46l-33 -447h-106l19 215q1 24 6 53q-7 -9 -49 -53l-103 -111h-24l-66 111q-26 44 -31 55q-2 -8 -6.5 -26.5t-6.5 -28.5l-55 -215h-107l118 447h43l106 -172q18 -28 31 -55q4 5 47 54z" />
    <glyph glyph-name="uni043D" unicode="&#x43d;" horiz-adv-x="525" 
d="M391 446h110l-79 -446h-109l31 178h-179l-31 -178h-109l78 446h109l-30 -174h179z" />
    <glyph glyph-name="uni043E" unicode="&#x43e;" horiz-adv-x="553" 
d="M243 -12q-93 0 -150.5 55t-57.5 142q0 25 4 46q18 102 91 164.5t181 62.5q93 0 150.5 -55t57.5 -143q0 -25 -4 -45q-18 -103 -90.5 -165t-181.5 -62zM251 84q61 0 102.5 38.5t52.5 101.5q3 15 3 30q0 49 -28.5 78.5t-78.5 29.5q-61 0 -102.5 -39.5t-51.5 -100.5
q-3 -16 -3 -31q0 -48 28.5 -77.5t77.5 -29.5z" />
    <glyph glyph-name="uni043F" unicode="&#x43f;" horiz-adv-x="526" 
d="M25 0l78 446h398l-78 -446h-110l62 351h-179l-61 -351h-110z" />
    <glyph glyph-name="uni0440" unicode="&#x440;" horiz-adv-x="571" 
d="M352 457q84 0 134 -53t50 -139q0 -23 -5 -53q-18 -99 -82 -161t-159 -62q-102 0 -151 75q-2 -44 -7 -73l-37 -211h-109l117 666h74l8 -61q66 72 167 72zM422 218q3 18 3 34q0 50 -28.5 79.5t-78.5 29.5q-59 0 -99 -38t-50 -95q-3 -18 -3 -34q0 -50 28.5 -80t79.5 -30
q55 0 96 37t52 97z" />
    <glyph glyph-name="uni0441" unicode="&#x441;" horiz-adv-x="463" 
d="M233 -13q-83 0 -141 53t-58 145q0 20 5 50q19 104 92.5 163.5t171.5 59.5q94 0 159 -64l-62 -71q-39 40 -96 40q-55 0 -100 -37.5t-56 -101.5q-3 -15 -3 -30q0 -49 29.5 -80t79.5 -31q64 0 119 44l45 -77q-81 -63 -185 -63z" />
    <glyph glyph-name="uni0442" unicode="&#x442;" horiz-adv-x="399" 
d="M106 0l62 352h-128l16 94h365l-16 -94h-128l-62 -352h-109z" />
    <glyph glyph-name="uni0443" unicode="&#x443;" horiz-adv-x="494" 
d="M403 446h121v-3l-265 -470q-81 -146 -252 -194l-30 95q129 38 184 127l10 15l-122 427v3h111l79 -312z" />
    <glyph glyph-name="uni0444" unicode="&#x444;" horiz-adv-x="662" 
d="M425 453q93 -9 148 -62t55 -133q0 -22 -4 -42q-18 -97 -91.5 -157.5t-189.5 -67.5l-37 -213h-107l37 214q-93 10 -147 64t-54 135q0 24 4 44q17 94 90 153t190 66l42 245h107zM518 224q3 15 3 28q0 46 -30 74.5t-84 34.5l-49 -276q65 7 107.5 42.5t52.5 96.5zM145 227
q-3 -16 -3 -31q0 -47 29.5 -76t83.5 -36l49 276q-65 -7 -107 -41t-52 -92z" />
    <glyph glyph-name="uni0445" unicode="&#x445;" horiz-adv-x="464" 
d="M478 446v-3l-176 -213l109 -228v-2h-117l-50 107q-11 28 -20 58q-21 -35 -39 -59l-85 -106h-125v2l191 233l-98 208v3h114l41 -91q13 -27 20 -56q16 26 40 57l71 90h124z" />
    <glyph glyph-name="uni0446" unicode="&#x446;" horiz-adv-x="541" 
d="M499 446l-62 -353h61l-36 -207h-100l19 114h-356l78 446h109l-61 -353h177l61 353h110z" />
    <glyph glyph-name="uni0447" unicode="&#x447;" horiz-adv-x="480" 
d="M345 446h110l-78 -446h-110l26 148q-45 -12 -93 -12q-71 0 -112.5 34t-41.5 93q0 15 3 31l27 152h110l-27 -150q-1 -5 -1 -15q0 -50 66 -50q46 0 86 13z" />
    <glyph glyph-name="uni0448" unicode="&#x448;" horiz-adv-x="743" 
d="M611 446h107l-78 -446h-616l79 446h108l-62 -353h146l62 353h108l-62 -353h146z" />
    <glyph glyph-name="uni0449" unicode="&#x449;" horiz-adv-x="760" 
d="M719 446l-62 -353h61l-36 -207h-101l20 114h-576l78 446h108l-62 -353h146l62 353h108l-62 -353h146l62 353h108z" />
    <glyph glyph-name="uni044A" unicode="&#x44a;" horiz-adv-x="534" 
d="M353 304q63 0 104.5 -34.5t41.5 -93.5q0 -14 -3 -29q-13 -71 -62 -109t-129 -38h-217l62 352h-114l17 94h222l-25 -142h103zM388 154q1 5 1 14q0 52 -67 52h-86l-24 -136h81q83 0 95 70z" />
    <glyph glyph-name="uni044B" unicode="&#x44b;" horiz-adv-x="693" 
d="M289 304q64 0 105.5 -35t41.5 -94q0 -14 -3 -29q-13 -71 -62 -108.5t-129 -37.5h-217l78 446h110l-25 -142h101zM559 446h109l-78 -446h-110zM326 154q1 5 1 13q0 25 -17.5 39t-49.5 14h-87l-24 -136h82q83 0 95 70z" />
    <glyph glyph-name="uni044C" unicode="&#x44c;" horiz-adv-x="471" 
d="M289 304q64 0 105.5 -35t41.5 -94q0 -14 -3 -29q-13 -71 -62 -108.5t-129 -37.5h-217l78 446h110l-25 -142h101zM326 154q1 5 1 13q0 25 -17.5 39t-49.5 14h-87l-24 -136h82q83 0 95 70z" />
    <glyph glyph-name="uni044D" unicode="&#x44d;" horiz-adv-x="466" 
d="M227 457q88 0 146.5 -52t58.5 -143q0 -20 -5 -50q-18 -103 -91.5 -163.5t-176.5 -60.5q-106 0 -172 72l59 69q41 -47 113 -47q53 0 94 28.5t59 75.5h-178l13 81h177q-4 46 -34 71.5t-77 25.5q-67 0 -120 -39l-45 72q79 60 179 60z" />
    <glyph glyph-name="uni044E" unicode="&#x44e;" horiz-adv-x="757" 
d="M514 458q94 0 151.5 -53.5t57.5 -140.5q0 -21 -5 -49q-18 -103 -90.5 -165t-183.5 -62q-90 0 -145.5 53t-57.5 138h-76l-31 -179h-109l78 446h109l-30 -174h73q28 85 96 135.5t163 50.5zM609 224q3 17 3 32q0 48 -28 77t-78 29q-59 0 -101 -39.5t-53 -100.5
q-3 -16 -3 -30q0 -49 28.5 -78.5t77.5 -29.5q60 0 101.5 38t52.5 102z" />
    <glyph glyph-name="uni044F" unicode="&#x44f;" horiz-adv-x="494" 
d="M255 446h214l-78 -446h-108l27 153h-72l-131 -153h-124v5l148 166q-66 35 -66 111q0 18 2 28q11 64 60 100t128 36zM323 232l23 129h-87q-75 0 -86 -61q-1 -5 -1 -14q0 -25 16 -39.5t46 -14.5h89z" />
    <glyph glyph-name="uni0451" unicode="&#x451;" horiz-adv-x="479" 
d="M222 543q-26 0 -41.5 16t-15.5 39t18 42.5t44 19.5q25 0 40.5 -16t15.5 -39q0 -25 -17 -43.5t-44 -18.5zM420 660q26 0 41 -16t15 -39q0 -24 -17.5 -43t-43.5 -19q-25 0 -40.5 16t-15.5 39q0 7 1 11q3 20 20 35.5t40 15.5zM299 458q73 0 115.5 -35.5t42.5 -95.5
q0 -43 -21.5 -76t-58.5 -51.5t-82 -27.5t-96 -9q-31 0 -54 3q7 -43 37.5 -66t78.5 -23q67 0 123 34l33 -76q-82 -47 -178 -47q-91 0 -147.5 54t-56.5 140q0 116 75.5 196t188.5 80zM191 240q69 0 117 18.5t48 60.5q0 49 -61 49q-54 0 -94 -36t-53 -90q22 -2 43 -2z" />
    <glyph glyph-name="uni0452" unicode="&#x452;" horiz-adv-x="522" 
d="M343 452q65 0 99.5 -34.5t34.5 -97.5q0 -20 -5 -48l-56 -318q-31 -174 -193 -177l-6 98q41 2 63 24.5t30 70.5l53 301q2 14 2 21q0 29 -16.5 45.5t-46.5 16.5q-50 0 -86 -37.5t-45 -91.5l-40 -225h-109l95 539h-57l11 60h56l18 100h109l-17 -100h154l-10 -60h-154
l-13 -75q-4 -19 -18 -79q62 66 147 67z" />
    <glyph glyph-name="uni0453" unicode="&#x453;" horiz-adv-x="388" 
d="M216 521l-39 54l159 119l51 -78zM25 0l78 446h302l-17 -94h-192l-62 -352h-109z" />
    <glyph glyph-name="uni0454" unicode="&#x454;" horiz-adv-x="466" 
d="M253 82q68 0 124 45l45 -74q-87 -65 -188 -65q-83 0 -141.5 53t-58.5 144q0 22 5 50q19 103 93.5 163t168.5 60t164 -67l-60 -68q-41 41 -101 41q-48 0 -87.5 -26t-59.5 -72h177l-14 -79h-178q2 -47 32 -76t79 -29z" />
    <glyph glyph-name="uni0455" unicode="&#x455;" horiz-adv-x="400" 
d="M166 -10q-100 0 -165 52l46 76q51 -40 116 -40q34 0 56.5 13.5t22.5 36.5q0 18 -15.5 32.5t-52.5 30.5q-53 24 -81 54t-28 75q0 61 46 97t118 36q83 0 151 -45l-42 -71q-51 30 -102 30q-64 0 -64 -42q0 -18 16 -31t51 -30q60 -27 86.5 -57.5t26.5 -72.5q0 -68 -52 -106
t-134 -38z" />
    <glyph glyph-name="uni0456" unicode="&#x456;" horiz-adv-x="238" 
d="M182 538q-28 0 -44.5 17t-16.5 42q0 29 19 51t50 22q29 0 45.5 -17t16.5 -43q0 -29 -20 -50.5t-50 -21.5zM25 0l79 446h109l-79 -446h-109z" />
    <glyph glyph-name="uni0457" unicode="&#x457;" horiz-adv-x="237" 
d="M101 542q-25 0 -39.5 14.5t-14.5 36.5q0 27 18 46t45 19q24 0 38 -14.5t14 -35.5q0 -9 -1 -13q-4 -23 -20 -38t-40 -15zM260 542q-24 0 -38 15t-14 36q0 27 17 46t45 19q24 0 38 -15t14 -36q0 -9 -1 -13q-4 -22 -20.5 -37t-40.5 -15zM25 0l78 446h109l-78 -446h-109z" />
    <glyph glyph-name="uni0458" unicode="&#x458;" horiz-adv-x="249" 
d="M192 538q-28 0 -44.5 17t-16.5 42q0 29 19 51t50 22q29 0 45.5 -17t16.5 -43q0 -29 -20 -50.5t-50 -21.5zM-115 -232l1 91q77 3 105.5 31.5t41.5 103.5l79 452h110l-82 -463q-21 -120 -77 -167.5t-178 -47.5z" />
    <glyph glyph-name="uni0459" unicode="&#x459;" horiz-adv-x="721" 
d="M545 285q58 0 98 -33t40 -90q0 -14 -3 -29q-11 -65 -57 -99t-121 -34h-207l61 352h-107l-41 -158q-26 -100 -79 -147.5t-139 -55.5l-10 92q51 7 83 42.5t52 111.5l56 209h311l-28 -161h91zM575 142q1 4 1 12q0 48 -60 48h-77l-20 -119h71q75 0 85 59z" />
    <glyph glyph-name="uni045A" unicode="&#x45a;" horiz-adv-x="734" 
d="M557 284q59 0 99 -31.5t40 -87.5q0 -14 -3 -29q-11 -67 -57 -101.5t-121 -34.5h-208l34 195h-173l-34 -195h-109l78 446h109l-28 -162h173l28 162h109l-28 -162h91zM587 143q1 5 1 13q0 44 -58 44h-79l-20 -116h74q72 0 82 59z" />
    <glyph glyph-name="uni045B" unicode="&#x45b;" horiz-adv-x="524" 
d="M344 450q64 0 99 -34t35 -97q0 -20 -5 -48l-47 -271h-109l47 268q2 14 2 21q0 29 -17 46t-47 17q-50 0 -85.5 -37t-44.5 -91l-39 -224h-110l95 538h-58l11 61h57l18 100h109l-18 -100h156l-10 -61h-156l-11 -61q-12 -63 -20 -94q67 67 148 67z" />
    <glyph glyph-name="uni045C" unicode="&#x45c;" horiz-adv-x="465" 
d="M437 616l-171 -95l-39 54l159 119zM482 446v-5l-214 -214l151 -221v-6h-118l-132 195l-35 -195h-109l78 446h110l-30 -171l169 171h130z" />
    <glyph glyph-name="uni045D" unicode="&#x45d;" horiz-adv-x="524" 
d="M428 573l-49 -47l-144 102l69 69zM455 446h45l-79 -446h-107l34 195q3 19 13 59q-29 -29 -62 -56l-230 -199h-45l79 447h108l-35 -198q-4 -28 -14 -63q42 42 63 60z" />
    <glyph glyph-name="uni045E" unicode="&#x45e;" horiz-adv-x="494" 
d="M303 530q-49 0 -84 22.5t-49 64.5l62 40q22 -47 75 -47q60 0 99 48l55 -43q-53 -85 -158 -85zM403 446h121v-3l-265 -470q-81 -146 -252 -194l-30 95q129 38 184 127l10 15l-122 427v3h111l79 -312z" />
    <glyph glyph-name="uni045F" unicode="&#x45f;" horiz-adv-x="524" 
d="M499 446l-78 -446h-148l-20 -114h-101l20 114h-147l78 446h109l-61 -353h177l62 353h109z" />
    <glyph glyph-name="uni0490" unicode="&#x490;" horiz-adv-x="529" 
d="M44 0l120 680h321l27 152h107l-46 -260h-311l-101 -572h-117z" />
    <glyph glyph-name="uni0491" unicode="&#x491;" horiz-adv-x="390" 
d="M25 0l78 446h202l19 109h102l-35 -203h-195l-61 -352h-110z" />
    <glyph glyph-name="Wgrave" unicode="&#x1e80;" horiz-adv-x="966" 
d="M665 795l-51 -49l-150 105l72 73zM905 680h127v-2l-360 -682h-34l-98 346q-17 63 -21 84q-19 -35 -50 -83l-220 -347h-35l-119 682v2h117l61 -361l12 -81q30 49 50 80l204 322h28l88 -317q11 -37 22 -81q12 25 41 81z" />
    <glyph glyph-name="wgrave" unicode="&#x1e81;" horiz-adv-x="685" 
d="M477 568l-49 -47l-144 101l69 70zM592 446h119v-3l-251 -447h-33l-80 247l-167 -247h-34l-94 447v3h109l43 -215l6 -39q8 13 24 37l128 192h23l61 -193q2 -6 5.5 -17t5.5 -16q3 8 17 33z" />
    <glyph glyph-name="Wacute" unicode="&#x1e82;" horiz-adv-x="966" 
d="M705 844l-181 -100l-41 57l167 125zM905 680h127v-2l-360 -682h-34l-98 346q-17 63 -21 84q-19 -35 -50 -83l-220 -347h-35l-119 682v2h117l61 -361l12 -81q30 49 50 80l204 322h28l88 -317q11 -37 22 -81q12 25 41 81z" />
    <glyph glyph-name="wacute" unicode="&#x1e83;" horiz-adv-x="685" 
d="M516 616l-171 -95l-39 54l159 119zM592 446h119v-3l-251 -447h-33l-80 247l-167 -247h-34l-94 447v3h109l43 -215l6 -39q8 13 24 37l128 192h23l61 -193q2 -6 5.5 -17t5.5 -16q3 8 17 33z" />
    <glyph glyph-name="Wdieresis" unicode="&#x1e84;" horiz-adv-x="966" 
d="M488 765q-26 0 -42.5 17t-16.5 40q0 7 1 11q5 22 22 37.5t41 15.5q27 0 42.5 -16.5t15.5 -40.5t-18 -44t-45 -20zM685 765q-27 0 -42.5 17t-15.5 41q0 7 1 11q3 21 21 36.5t41 15.5q26 0 41.5 -16.5t15.5 -39.5q0 -25 -17.5 -45t-44.5 -20zM905 680h127v-2l-360 -682h-34
l-98 346q-17 63 -21 84q-19 -35 -50 -83l-220 -347h-35l-119 682v2h117l61 -361l12 -81q30 49 50 80l204 322h28l88 -317q11 -37 22 -81q12 25 41 81z" />
    <glyph glyph-name="wdieresis" unicode="&#x1e85;" horiz-adv-x="685" 
d="M309 543q-26 0 -41.5 16t-15.5 39t18 42.5t44 19.5q25 0 40.5 -16t15.5 -39q0 -25 -17 -43.5t-44 -18.5zM502 543q-25 0 -40.5 16t-15.5 39q0 7 1 11q3 20 20 35.5t40 15.5q26 0 41 -16t15 -39q0 -24 -17.5 -43t-43.5 -19zM592 446h119v-3l-251 -447h-33l-80 247
l-167 -247h-34l-94 447v3h109l43 -215l6 -39q8 13 24 37l128 192h23l61 -193q2 -6 5.5 -17t5.5 -16q3 8 17 33z" />
    <glyph glyph-name="uni1E9E" unicode="&#x1e9e;" horiz-adv-x="665" 
d="M663 680l-7 -38l-179 -225q68 -4 110 -50t42 -114q0 -110 -74.5 -181.5t-191.5 -71.5h-116l17 98h98q70 0 109.5 42t39.5 102q0 46 -26 69.5t-72 23.5h-61l13 75l132 172h-109q-60 0 -101.5 -38t-54.5 -107l-77 -437h-115l77 436q43 245 288 244h258z" />
    <glyph glyph-name="Ygrave" unicode="&#x1ef2;" horiz-adv-x="647" 
d="M448 746l-150 105l72 73l129 -129zM225 0l54 302l-184 378h122l99 -204q29 -66 32 -75q24 37 57 74l172 205h136l-317 -378l-53 -302h-118z" />
    <glyph glyph-name="ygrave" unicode="&#x1ef3;" horiz-adv-x="490" 
d="M372 568l-49 -47l-144 101l69 70zM399 446h121v-3l-374 -663h-118v2l142 239l-122 422v3h111l66 -249q8 -34 12 -57q10 23 28 57z" />
    <glyph glyph-name="endash" unicode="&#x2013;" horiz-adv-x="520" 
d="M48 185l15 86h411l-15 -86h-411z" />
    <glyph glyph-name="emdash" unicode="&#x2014;" horiz-adv-x="683" 
d="M47 185l15 85h575l-15 -85h-575z" />
    <glyph glyph-name="quoteleft" unicode="&#x2018;" horiz-adv-x="213" 
d="M169 573q23 0 39.5 -17t16.5 -43q0 -35 -21.5 -55.5t-51.5 -20.5q-26 0 -44 18.5t-18 52.5q0 16 4 31q18 87 125 165l26 -29q-57 -48 -79 -102h3z" />
    <glyph glyph-name="quoteright" unicode="&#x2019;" horiz-adv-x="213" 
d="M188 697q28 0 45 -16.5t17 -49.5q0 -15 -3 -31q-20 -95 -130 -168l-24 29q65 52 83 100h-5q-24 0 -40.5 17t-16.5 44q0 35 22 55t52 20z" />
    <glyph glyph-name="quotesinglbase" unicode="&#x201a;" horiz-adv-x="262" 
d="M105 121q28 0 45 -17t17 -49q0 -7 -2 -23q-18 -95 -128 -175l-23 29q60 49 80 102h-5q-23 0 -39 16t-16 42q0 35 21 55t50 20z" />
    <glyph glyph-name="quotedblleft" unicode="&#x201c;" horiz-adv-x="397" 
d="M245 675q-57 -48 -79 -102h3q23 0 39.5 -17t16.5 -43q0 -35 -21.5 -55.5t-51.5 -20.5q-26 0 -44 18.5t-18 52.5q0 16 4 31q18 87 125 165zM353 573q24 0 40.5 -17t16.5 -43q0 -35 -22 -55.5t-52 -20.5q-26 0 -43.5 19t-17.5 53q0 13 3 30q19 86 125 165l27 -29
q-57 -48 -79 -102h2z" />
    <glyph glyph-name="quotedblright" unicode="&#x201d;" horiz-adv-x="388" 
d="M188 697q28 0 45 -16.5t17 -49.5q0 -15 -3 -31q-20 -95 -130 -168l-24 29q65 52 83 100h-5q-24 0 -40.5 17t-16.5 44q0 35 22 55t52 20zM363 697q28 0 45 -16.5t17 -49.5q0 -15 -3 -31q-21 -96 -130 -168l-24 29q65 52 83 100h-5q-24 0 -41 16.5t-17 42.5q0 36 22 56.5
t53 20.5z" />
    <glyph glyph-name="quotedblbase" unicode="&#x201e;" horiz-adv-x="433" 
d="M105 121q28 0 45 -17t17 -49q0 -7 -2 -23q-18 -95 -128 -175l-23 29q60 49 80 102h-5q-23 0 -39 16t-16 42q0 35 21 55t50 20zM277 121q27 0 44.5 -17.5t17.5 -49.5q0 -6 -2 -22q-18 -93 -128 -175l-24 29q61 48 81 102h-5q-23 0 -39 16t-16 42q0 35 21 55t50 20z" />
    <glyph glyph-name="dagger" unicode="&#x2020;" horiz-adv-x="583" 
d="M152 -294l103 585h-194l16 91h194l53 299h99l-53 -299h192l-16 -91h-193l-102 -585h-99z" />
    <glyph glyph-name="daggerdbl" unicode="&#x2021;" horiz-adv-x="583" 
d="M152 -294l52 299h-193l16 91h193l35 195h-194l16 91h194l53 299h99l-53 -299h192l-16 -91h-193l-34 -195h193l-16 -91h-193l-52 -299h-99z" />
    <glyph glyph-name="bullet" unicode="&#x2022;" horiz-adv-x="325" 
d="M176 253q-39 0 -64.5 22.5t-25.5 60.5q0 50 32.5 80.5t75.5 30.5q39 0 65 -22.5t26 -61.5q0 -49 -32.5 -79.5t-76.5 -30.5z" />
    <glyph glyph-name="ellipsis" unicode="&#x2026;" horiz-adv-x="708" 
d="M100 -12q-29 0 -47.5 16.5t-18.5 45.5q0 36 22 56t53 20q28 0 46.5 -16.5t18.5 -45.5q0 -36 -22 -56t-52 -20zM320 -12q-28 0 -47 16.5t-19 44.5q0 36 22.5 56.5t52.5 20.5q29 0 47.5 -16.5t18.5 -45.5q0 -36 -22 -56t-53 -20zM540 -12q-28 0 -47 16.5t-19 44.5
q0 36 22.5 56.5t52.5 20.5q29 0 47.5 -16.5t18.5 -45.5q0 -36 -22 -56t-53 -20z" />
    <glyph glyph-name="perthousand" unicode="&#x2030;" horiz-adv-x="1128" 
d="M224 385q-66 0 -102 38t-36 95q0 67 48 120.5t127 53.5q65 0 101 -39t36 -95q0 -68 -47 -120.5t-127 -52.5zM105 0l508 680h101l-507 -680h-102zM226 460q42 0 65.5 30t23.5 65q0 26 -14 44t-44 18q-42 0 -65 -30.5t-23 -66.5q0 -25 13.5 -42.5t43.5 -17.5zM551 -12
q-65 0 -101 38.5t-36 94.5q0 67 48 120.5t127 53.5q65 0 101 -39t36 -95q0 -68 -47.5 -120.5t-127.5 -52.5zM908 -12q-65 0 -101.5 38.5t-36.5 93.5q0 67 48.5 121t127.5 54q64 0 100.5 -38.5t36.5 -94.5q0 -68 -47.5 -121t-127.5 -53zM554 63q43 0 65.5 30t22.5 66
q0 25 -14 43t-43 18q-42 0 -65 -29.5t-23 -65.5q0 -26 13.5 -44t43.5 -18zM910 63q43 0 66 30t23 66q0 25 -14 43t-43 18q-42 0 -65 -29.5t-23 -65.5q0 -26 13 -44t43 -18z" />
    <glyph glyph-name="guilsinglleft" unicode="&#x2039;" horiz-adv-x="277" 
d="M123 45l-93 200l157 197l78 -49l-117 -156l60 -156z" />
    <glyph glyph-name="guilsinglright" unicode="&#x203a;" horiz-adv-x="278" 
d="M97 45l-77 50l118 160l-60 151l86 36l92 -197z" />
    <glyph glyph-name="fraction" unicode="&#x2044;" horiz-adv-x="136" 
d="M-184 0l472 680h80l-471 -680h-81z" />
    <glyph glyph-name="Euro" unicode="&#x20ac;" horiz-adv-x="587" 
d="M483 568q-77 0 -135 -35t-90 -97h221l-38 -70h-208q-6 -22 -8 -56h187l-39 -70h-146q23 -147 173 -147q57 0 103 23l22 -98q-63 -30 -140 -30q-119 0 -192 70.5t-83 181.5h-85l13 70h71q1 20 7 56h-68l12 70h75q40 110 131 173.5t218 63.5q76 0 144 -31l-50 -91
q-43 17 -95 17z" />
    <glyph glyph-name="uni20BD" unicode="&#x20bd;" horiz-adv-x="618" 
d="M441 661q88 0 140 -50t52 -125q0 -18 -3 -36q-15 -87 -79.5 -143.5t-183.5 -56.5h-126l-10 -56h250l-13 -75h-251l-21 -119h-118l21 119h-87l13 75h88l10 56h-87l15 89h88l58 322h244zM514 452q1 6 1 17q0 38 -26 64t-73 26h-120l-39 -220h104q69 0 107 32t46 81z" />
    <glyph glyph-name="uni2113" unicode="&#x2113;" horiz-adv-x="448" 
d="M222 -12q-61 0 -93.5 32t-32.5 86q0 19 9 69q-16 -7 -41 -17.5t-27 -11.5l-26 66q70 28 109 47l40 232q36 201 183 201q62 0 96 -35.5t34 -94.5q0 -198 -277 -344q-16 -85 -16 -108q0 -22 15 -35t38 -13q47 0 87 29l33 -62q-57 -41 -131 -41zM212 310q180 112 180 240
q0 30 -13.5 47t-38.5 17q-74 0 -97 -130z" />
    <glyph glyph-name="uni2116" unicode="&#x2116;" horiz-adv-x="1049" 
d="M949 692q57 0 92.5 -33t35.5 -86q0 -67 -46 -111.5t-115 -44.5q-57 0 -92.5 33t-35.5 86q0 67 46 111.5t115 44.5zM564 316l65 364h118l-121 -684h-35l-291 388q-53 70 -59 78q-7 -58 -16 -109l-63 -353h-118l120 684h35l292 -381q54 -74 58 -80q6 41 15 93zM994 554
q2 10 2 16q0 24 -14.5 37.5t-37.5 13.5q-28 0 -48 -16.5t-26 -48.5q-2 -10 -2 -16q0 -24 15 -38t37 -14q28 0 48 17t26 49zM757 297l12 70h263l-12 -70h-263z" />
    <glyph glyph-name="uni2117" unicode="&#x2117;" horiz-adv-x="776" 
d="M357 -3q-130 0 -212 80.5t-82 205.5q0 32 6 65q25 143 134.5 238.5t258.5 95.5q129 0 210.5 -79.5t81.5 -203.5q0 -33 -6 -67q-26 -146 -134 -240.5t-257 -94.5zM357 58q126 0 217 79t113 202q5 32 5 56q0 99 -62 162t-168 63q-126 0 -217.5 -78t-113.5 -199
q-5 -25 -5 -58q0 -100 62.5 -163.5t168.5 -63.5zM254 158l65 371h153q54 0 84.5 -29.5t30.5 -75.5q0 -17 -2 -26q-9 -51 -46 -84t-103 -33h-78l-22 -123h-82zM369 348h61q66 0 73 56q2 10 2 15q0 41 -53 41h-63z" />
    <glyph glyph-name="trademark" unicode="&#x2122;" horiz-adv-x="658" 
d="M155 403l38 214h-82l11 63h232l-11 -63h-82l-38 -214h-68zM318 403l91 277h15l76 -136l126 136h22l-7 -277h-69l9 144l-82 -88h-15l-51 88l-46 -144h-69z" />
    <glyph glyph-name="uni2126" unicode="&#x2126;" horiz-adv-x="779" 
d="M21 0l17 98h118q-44 34 -68.5 90.5t-24.5 120.5q0 26 5 56q26 152 134.5 239.5t257.5 87.5q135 0 218.5 -79t83.5 -208q0 -33 -6 -69q-12 -66 -56 -133t-105 -106h103l-17 -97h-268l15 94q84 29 144 95t76 149q5 32 5 54q0 91 -55.5 143.5t-144.5 52.5
q-101 0 -179.5 -60.5t-99.5 -177.5q-4 -23 -4 -50q0 -73 35.5 -129t95.5 -77l-14 -94h-266z" />
    <glyph glyph-name="estimated" unicode="&#x212e;" horiz-adv-x="773" 
d="M365 -10q-135 0 -218.5 85t-83.5 211q0 31 6 63q26 152 138.5 256.5t264.5 104.5q129 0 204.5 -84t75.5 -209q0 -25 -3 -49q-3 -25 -7 -41h-556l-28 -164q55 -117 217 -117q69 0 133 32.5t111 88.5l39 -39q-121 -138 -293 -138zM195 377h439l30 172q-54 106 -199 106
q-71 0 -135.5 -30t-105.5 -83z" />
    <glyph glyph-name="uni2153" unicode="&#x2153;" horiz-adv-x="652" 
d="M132 397l33 179l-43 -33l-33 41l119 99h38l-50 -286h-64zM43 0l472 680h80l-471 -680h-81zM468 -11q-63 0 -96 38l34 44q23 -23 57 -23q47 0 55 35q1 3 1 8q0 30 -35 30h-38l10 51h23q41 0 47 32q3 14 -5.5 22t-23.5 8q-27 0 -49 -18l-32 48q41 29 92 29q34 0 59 -20.5
t25 -51.5q0 -55 -53 -74q17 -5 30.5 -22.5t13.5 -40.5q0 -9 -1 -13q-7 -39 -37.5 -60.5t-76.5 -21.5z" />
    <glyph glyph-name="uni2154" unicode="&#x2154;" horiz-adv-x="714" 
d="M291 454l-9 -57h-203l3 24l132 132q28 28 28 51q0 25 -25 25q-29 0 -46 -36l-53 28q35 70 106 70q36 0 59.5 -24t23.5 -59q0 -45 -41 -86l-67 -68h92zM577 680h80l-471 -680h-81zM570 293q34 0 59 -20.5t25 -51.5q0 -55 -53 -74q17 -5 30.5 -22.5t13.5 -40.5q0 -9 -1 -13
q-7 -39 -37.5 -60.5t-76.5 -21.5q-63 0 -96 38l34 44q23 -23 57 -23q47 0 55 35q1 3 1 8q0 30 -35 30h-38l10 51h23q41 0 47 32q3 14 -5.5 22t-23.5 8q-27 0 -49 -18l-32 48q41 29 92 29z" />
    <glyph glyph-name="oneeighth" unicode="&#x215b;" horiz-adv-x="661" 
d="M132 397l33 179l-43 -33l-33 41l119 99h38l-50 -286h-64zM43 0l472 680h80l-471 -680h-81zM477 -11q-42 0 -70 20.5t-28 56.5q0 29 18.5 54.5t44.5 34.5q-27 17 -27 50q0 40 30 64.5t73 24.5q38 0 61.5 -19.5t23.5 -52.5q0 -51 -49 -73q38 -20 38 -64q0 -46 -33 -71
t-82 -25zM505 175q11 0 21.5 8t12.5 21q1 4 1 10q0 25 -26 25q-32 0 -37 -32q-3 -15 5 -23.5t23 -8.5zM479 45q22 0 36.5 12.5t14.5 35.5q0 32 -36 32q-19 0 -32.5 -11.5t-17.5 -28.5q-1 -3 -1 -9q0 -15 10.5 -23t25.5 -8z" />
    <glyph glyph-name="threeeighths" unicode="&#x215c;" horiz-adv-x="722" 
d="M175 386q-63 0 -96 38l34 44q23 -23 57 -23q47 0 55 35q1 3 1 8q0 30 -35 30h-38l10 51h23q41 0 47 32q3 14 -5.5 22t-23.5 8q-26 0 -49 -18l-32 48q41 29 92 29q34 0 59 -20.5t25 -51.5q0 -55 -53 -74q17 -5 30.5 -22.5t13.5 -40.5q0 -9 -1 -13q-7 -39 -37.5 -60.5
t-76.5 -21.5zM104 0l472 680h80l-471 -680h-81zM538 -11q-42 0 -70 20.5t-28 56.5q0 29 18.5 54.5t44.5 34.5q-27 17 -27 50q0 40 30 64.5t73 24.5q38 0 61.5 -19.5t23.5 -52.5q0 -51 -49 -73q38 -20 38 -64q0 -46 -33 -71t-82 -25zM566 175q11 0 21.5 8t12.5 21q1 4 1 10
q0 25 -26 25q-32 0 -37 -32q-3 -15 5 -23.5t23 -8.5zM540 45q22 0 36.5 12.5t14.5 35.5q0 32 -36 32q-19 0 -32.5 -11.5t-17.5 -28.5q-1 -3 -1 -9q0 -15 10.5 -23t25.5 -8z" />
    <glyph glyph-name="fiveeighths" unicode="&#x215d;" horiz-adv-x="718" 
d="M170 386q-58 0 -92 36l38 43q18 -21 51 -21q24 0 40.5 13.5t16.5 34.5q0 18 -14.5 29t-38.5 11q-23 0 -47 -10l-8 7l47 151h146l-10 -59h-93l-15 -47q4 1 13 1q35 0 59 -21.5t24 -58.5q0 -48 -33.5 -78.5t-83.5 -30.5zM100 0l472 680h80l-471 -680h-81zM534 -11
q-42 0 -70 20.5t-28 56.5q0 29 18.5 54.5t44.5 34.5q-27 17 -27 50q0 40 30 64.5t73 24.5q38 0 61.5 -19.5t23.5 -52.5q0 -51 -49 -73q38 -20 38 -64q0 -46 -33 -71t-82 -25zM562 175q11 0 21.5 8t12.5 21q1 4 1 10q0 25 -26 25q-32 0 -37 -32q-3 -15 5 -23.5t23 -8.5z
M536 45q22 0 36.5 12.5t14.5 35.5q0 32 -36 32q-19 0 -32.5 -11.5t-17.5 -28.5q-1 -3 -1 -9q0 -15 10.5 -23t25.5 -8z" />
    <glyph glyph-name="seveneighths" unicode="&#x215e;" horiz-adv-x="661" 
d="M43 0l472 680h80l-471 -680h-81zM88 397l128 224h-103l10 59h192l-3 -13l-153 -270h-71zM477 -11q-42 0 -70 20.5t-28 56.5q0 29 18.5 54.5t44.5 34.5q-27 17 -27 50q0 40 30 64.5t73 24.5q38 0 61.5 -19.5t23.5 -52.5q0 -51 -49 -73q38 -20 38 -64q0 -46 -33 -71
t-82 -25zM505 175q11 0 21.5 8t12.5 21q1 4 1 10q0 25 -26 25q-32 0 -37 -32q-3 -15 5 -23.5t23 -8.5zM479 45q22 0 36.5 12.5t14.5 35.5q0 32 -36 32q-19 0 -32.5 -11.5t-17.5 -28.5q-1 -3 -1 -9q0 -15 10.5 -23t25.5 -8z" />
    <glyph glyph-name="arrowleft" unicode="&#x2190;" horiz-adv-x="631" 
d="M619 261h-354q-34 0 -54 1q22 -17 38 -35l97 -95l-69 -70l-252 252l253 252l68 -69l-94 -94l-41 -38q38 2 54 2h354v-106z" />
    <glyph glyph-name="arrowup" unicode="&#x2191;" horiz-adv-x="532" 
d="M243 48v354q0 34 1 55q-12 -16 -35 -39l-96 -96l-69 69l252 252l251 -253l-68 -68l-94 93q-18 18 -39 42q2 -40 2 -55v-354h-105z" />
    <glyph glyph-name="arrowright" unicode="&#x2192;" horiz-adv-x="631" 
d="M57 442h355q33 0 54 -1q-8 7 -39 35l-96 96l69 69l252 -252l-253 -251l-68 68l94 94q11 11 41 38q-38 -2 -55 -2h-354v106z" />
    <glyph glyph-name="arrowdown" unicode="&#x2193;" horiz-adv-x="532" 
d="M335 656v-354q0 -34 -1 -54q12 15 35 38l96 97l69 -69l-252 -252l-251 252l68 69l94 -94q18 -18 38 -41q-2 38 -2 54v354h106z" />
    <glyph glyph-name="arrowboth" unicode="&#x2194;" horiz-adv-x="813" 
d="M284 101l-252 252l253 251l68 -68l-94 -94q-19 -20 -42 -38q21 1 56 1h314q34 0 54 -1q-15 12 -38 35l-97 96l69 69l253 -251l-254 -252l-68 69l94 94q24 22 41 37q-18 -1 -54 -1h-315q-33 0 -54 1q8 -6 39 -35l96 -96z" />
    <glyph glyph-name="arrowupdn" unicode="&#x2195;" horiz-adv-x="584" 
d="M315 -44l-252 253l69 68l94 -94q11 -11 38 -41q-2 38 -2 55v314q0 34 1 54q-12 -15 -35 -38l-95 -97l-70 69l252 253l252 -253l-69 -69l-94 94q-10 10 -38 42q2 -42 2 -55v-315q0 -33 -1 -54q16 20 35 39l95 96l70 -69z" />
    <glyph glyph-name="uni2196" unicode="&#x2196;" horiz-adv-x="555" 
d="M456 75l-251 250q-35 37 -37 40q2 -20 2 -52l1 -136l-98 -1v357l357 -1l-1 -97h-132q-15 0 -57 2q23 -20 40 -37l251 -250z" />
    <glyph glyph-name="uni2197" unicode="&#x2197;" horiz-adv-x="482" 
d="M4 178l250 250q11 12 39 38q-19 -2 -52 -2l-135 -1l-1 98h356v-357l-97 1v132q0 15 2 57q-20 -23 -37 -40l-251 -251z" />
    <glyph glyph-name="uni2198" unicode="&#x2198;" horiz-adv-x="555" 
d="M139 596l250 -251q12 -11 38 -39q-3 29 -3 52v135l98 1v-356h-357l1 97h132q16 0 56 -2l-40 37l-250 251z" />
    <glyph glyph-name="uni2199" unicode="&#x2199;" horiz-adv-x="482" 
d="M519 498l-251 -251q-31 -31 -39 -38q20 3 52 3l136 1v-98l-356 -1l1 357h97v-133q0 -14 -2 -56q2 2 15.5 17t21.5 23l250 250z" />
    <glyph glyph-name="partialdiff" unicode="&#x2202;" horiz-adv-x="496" 
d="M213 -12q-75 0 -128.5 48.5t-53.5 130.5q0 22 2 34q14 97 76 150.5t144 53.5q71 0 114 -43q-12 87 -64 154.5t-131 100.5l54 86q119 -55 180 -157.5t61 -228.5q0 -51 -8 -94q-19 -104 -80.5 -169.5t-165.5 -65.5zM221 83q55 0 86.5 36t40.5 85q2 16 2 23q0 39 -24.5 62.5
t-62.5 23.5q-46 0 -81 -31.5t-44 -89.5q-2 -14 -2 -20q0 -39 22.5 -64t62.5 -25z" />
    <glyph glyph-name="emptyset" unicode="&#x2205;" horiz-adv-x="819" 
d="M836 688l-106 -101q62 -74 62 -185q0 -34 -6 -70q-27 -150 -137.5 -247t-268.5 -97q-129 0 -212 66l-65 -62h-79l105 100q-60 75 -60 185q0 35 6 72q27 150 137 246.5t271 96.5q125 0 208 -66l66 62h79zM157 341q-6 -33 -6 -63q0 -76 37 -130l446 423q-62 46 -154 46
q-127 0 -214 -76.5t-109 -199.5zM703 339q6 31 6 62q0 77 -38 130l-445 -422q60 -46 155 -46q125 0 213 77t109 199z" />
    <glyph glyph-name="uni2206" unicode="&#x2206;" horiz-adv-x="672" 
d="M-34 0l434 684h34l194 -684h-662zM148 95h341l-104 369z" />
    <glyph glyph-name="product" unicode="&#x220f;" horiz-adv-x="701" 
d="M44 0l119 680h534l-119 -680h-117l101 578h-299l-101 -578h-118z" />
    <glyph glyph-name="summation" unicode="&#x2211;" horiz-adv-x="554" 
d="M-3 0l7 45l258 295l-149 296l7 44h485l-18 -103h-328l131 -247l-201 -227h311l-18 -103h-485z" />
    <glyph glyph-name="minus" unicode="&#x2212;" horiz-adv-x="515" 
d="M72 295l16 91h396l-16 -91h-396z" />
    <glyph glyph-name="radical" unicode="&#x221a;" horiz-adv-x="615" 
d="M619 725h113l-443 -725h-60l-88 314h-114l17 97h176l62 -250z" />
    <glyph glyph-name="infinity" unicode="&#x221e;" horiz-adv-x="717" 
d="M205 195q-55 0 -95 36.5t-40 96.5q0 15 3 31q12 66 61 106t110 40q88 0 144 -88q91 88 170 88q54 0 94.5 -37t40.5 -96q0 -15 -3 -30q-12 -67 -61.5 -107t-109.5 -40q-84 0 -144 88q-88 -88 -170 -88zM219 285q48 0 115 70q-40 60 -85 60q-27 0 -50.5 -17t-29.5 -49
q-1 -4 -1 -12q0 -23 15.5 -37.5t35.5 -14.5zM513 285q27 0 51.5 16.5t30.5 48.5q1 5 1 13q0 24 -15.5 38t-34.5 14q-49 0 -116 -70q39 -60 83 -60z" />
    <glyph glyph-name="integral" unicode="&#x222b;" horiz-adv-x="453" 
d="M48 -182q-68 0 -120 40l50 81q29 -25 62 -25q74 0 91 90l90 514q16 92 66.5 133t121.5 41q68 0 119 -43l-51 -76q-31 23 -63 23q-73 0 -90 -90l-90 -514q-16 -91 -66.5 -132.5t-119.5 -41.5z" />
    <glyph glyph-name="approxequal" unicode="&#x2248;" horiz-adv-x="574" 
d="M426 346q-2 0 -6.5 -0.5t-6.5 -0.5q-42 0 -95 32q-56 34 -81 34q-27 0 -44 -14t-36 -44l-70 46q51 111 145 111q42 0 96 -35q50 -31 79 -31q43 0 71 61l72 -44q-20 -50 -52 -81t-72 -34zM392 155q-47 0 -97 32q-4 2 -13.5 8t-14 8.5t-13 6.5t-14 6t-13 3.5t-14.5 1.5
q-26 0 -43 -14t-37 -45l-69 47q52 111 144 111q43 0 97 -35q50 -32 80 -32q40 0 70 62l72 -45q-48 -115 -135 -115z" />
    <glyph glyph-name="notequal" unicode="&#x2260;" horiz-adv-x="517" 
d="M476 391h-131l-75 -100h188l-16 -90h-240l-77 -103l-38 24l59 79h-78l16 90h130l75 100h-187l16 90h238l78 104l40 -23l-61 -81h79z" />
    <glyph glyph-name="lessequal" unicode="&#x2264;" horiz-adv-x="430" 
d="M378 226l-314 144l16 91l364 144l-19 -108l-234 -86l204 -86zM11 71l16 90h339l-16 -90h-339z" />
    <glyph glyph-name="greaterequal" unicode="&#x2265;" horiz-adv-x="430" 
d="M54 226l19 110l231 85l-201 86l17 98l314 -144l-16 -91zM26 71l16 90h339l-16 -90h-339z" />
    <glyph glyph-name="lozenge" unicode="&#x25ca;" horiz-adv-x="555" 
d="M375 687l172 -344l-290 -343h-34l-173 343l290 344h35zM168 339l93 -186l169 200l-92 186z" />
    <glyph glyph-name="i.loclTRK" horiz-adv-x="237" 
d="M181 537q-27 0 -43 16.5t-16 41.5q0 27 19 48t48 21q28 0 44 -17t16 -43q0 -27 -19 -47t-49 -20zM25 0l78 446h109l-78 -446h-109z" />
    <glyph glyph-name="germandbls.calt" horiz-adv-x="665" 
d="M663 680l-7 -38l-179 -225q68 -4 110 -50t42 -114q0 -110 -74.5 -181.5t-191.5 -71.5h-116l17 98h98q70 0 109.5 42t39.5 102q0 46 -26 69.5t-72 23.5h-61l13 75l132 172h-109q-60 0 -101.5 -38t-54.5 -107l-77 -437h-115l77 436q43 245 288 244h258z" />
    <glyph glyph-name="a.ss01" horiz-adv-x="486" 
d="M281 453q77 0 118.5 -34.5t41.5 -100.5q0 -18 -3 -39l-49 -279h-74l-9 69q-61 -78 -165 -78q-56 0 -90 29t-34 82q0 86 72.5 129t180.5 43q29 0 56 -3l4 20q2 12 2 16q0 55 -72 55q-71 0 -151 -35l-24 80q102 46 196 46zM181 73q48 0 87.5 34.5t51.5 94.5q-23 3 -51 3
q-57 0 -101 -20.5t-44 -64.5q0 -47 57 -47z" />
    <glyph glyph-name="aacute.ss01" horiz-adv-x="486" 
d="M404 616l-171 -95l-39 54l159 119zM281 453q77 0 118.5 -34.5t41.5 -100.5q0 -18 -3 -39l-49 -279h-74l-9 69q-61 -78 -165 -78q-56 0 -90 29t-34 82q0 86 72.5 129t180.5 43q29 0 56 -3l4 20q2 12 2 16q0 55 -72 55q-71 0 -151 -35l-24 80q102 46 196 46zM181 73
q48 0 87.5 34.5t51.5 94.5q-23 3 -51 3q-57 0 -101 -20.5t-44 -64.5q0 -47 57 -47z" />
    <glyph glyph-name="abreve.ss01" horiz-adv-x="486" 
d="M289 520q-53 0 -88.5 29t-39.5 80l59 26q11 -57 69 -57q33 0 57.5 16t34.5 41l59 -26q-16 -54 -57.5 -81.5t-93.5 -27.5zM281 453q77 0 118.5 -34.5t41.5 -100.5q0 -18 -3 -39l-49 -279h-74l-9 69q-61 -78 -165 -78q-56 0 -90 29t-34 82q0 86 72.5 129t180.5 43
q29 0 56 -3l4 20q2 12 2 16q0 55 -72 55q-71 0 -151 -35l-24 80q102 46 196 46zM181 73q48 0 87.5 34.5t51.5 94.5q-23 3 -51 3q-57 0 -101 -20.5t-44 -64.5q0 -47 57 -47z" />
    <glyph glyph-name="acircumflex.ss01" horiz-adv-x="486" 
d="M295 582l-113 -67l-38 50l152 106h18l118 -108l-44 -48zM281 453q77 0 118.5 -34.5t41.5 -100.5q0 -18 -3 -39l-49 -279h-74l-9 69q-61 -78 -165 -78q-56 0 -90 29t-34 82q0 86 72.5 129t180.5 43q29 0 56 -3l4 20q2 12 2 16q0 55 -72 55q-71 0 -151 -35l-24 80
q102 46 196 46zM181 73q48 0 87.5 34.5t51.5 94.5q-23 3 -51 3q-57 0 -101 -20.5t-44 -64.5q0 -47 57 -47z" />
    <glyph glyph-name="adieresis.ss01" horiz-adv-x="486" 
d="M196 543q-26 0 -41.5 16t-15.5 39t18 42.5t44 19.5q25 0 40.5 -16t15.5 -39q0 -25 -17 -43.5t-44 -18.5zM394 660q26 0 41 -16t15 -39q0 -24 -17.5 -43t-43.5 -19q-25 0 -40.5 16t-15.5 39q0 7 1 11q3 20 20 35.5t40 15.5zM281 453q77 0 118.5 -34.5t41.5 -100.5
q0 -18 -3 -39l-49 -279h-74l-9 69q-61 -78 -165 -78q-56 0 -90 29t-34 82q0 86 72.5 129t180.5 43q29 0 56 -3l4 20q2 12 2 16q0 55 -72 55q-71 0 -151 -35l-24 80q102 46 196 46zM181 73q48 0 87.5 34.5t51.5 94.5q-23 3 -51 3q-57 0 -101 -20.5t-44 -64.5q0 -47 57 -47z
" />
    <glyph glyph-name="agrave.ss01" horiz-adv-x="486" 
d="M365 568l-49 -47l-144 101l69 70zM281 453q77 0 118.5 -34.5t41.5 -100.5q0 -18 -3 -39l-49 -279h-74l-9 69q-61 -78 -165 -78q-56 0 -90 29t-34 82q0 86 72.5 129t180.5 43q29 0 56 -3l4 20q2 12 2 16q0 55 -72 55q-71 0 -151 -35l-24 80q102 46 196 46zM181 73
q48 0 87.5 34.5t51.5 94.5q-23 3 -51 3q-57 0 -101 -20.5t-44 -64.5q0 -47 57 -47z" />
    <glyph glyph-name="amacron.ss01" horiz-adv-x="486" 
d="M435 626l-15 -79h-274l14 79h275zM281 453q77 0 118.5 -34.5t41.5 -100.5q0 -18 -3 -39l-49 -279h-74l-9 69q-61 -78 -165 -78q-56 0 -90 29t-34 82q0 86 72.5 129t180.5 43q29 0 56 -3l4 20q2 12 2 16q0 55 -72 55q-71 0 -151 -35l-24 80q102 46 196 46zM181 73
q48 0 87.5 34.5t51.5 94.5q-23 3 -51 3q-57 0 -101 -20.5t-44 -64.5q0 -47 57 -47z" />
    <glyph glyph-name="aogonek.ss01" horiz-adv-x="486" 
d="M281 453q77 0 118.5 -34.5t41.5 -100.5q0 -18 -3 -39l-49 -279q-98 -68 -98 -113q0 -23 24 -23q23 0 42 13l16 -71q-40 -26 -91 -26q-41 0 -64 21t-23 55q0 9 1 14q7 70 117 147l-7 52q-61 -78 -165 -78q-56 0 -90 29t-34 82q0 86 72.5 129t180.5 43q29 0 56 -3l4 20
q2 12 2 16q0 55 -72 55q-71 0 -151 -35l-24 80q102 46 196 46zM181 73q48 0 87.5 34.5t51.5 94.5q-23 3 -51 3q-57 0 -101 -20.5t-44 -64.5q0 -47 57 -47z" />
    <glyph glyph-name="aring.ss01" horiz-adv-x="486" 
d="M283 500q-44 0 -72 25.5t-28 66.5q0 49 36 82t86 33q44 0 72 -26t28 -66q0 -49 -35.5 -82t-86.5 -33zM246 596q0 -17 11 -28t29 -11q21 0 36.5 13t19.5 34q3 20 -8.5 33.5t-31.5 13.5q-24 0 -40 -16t-16 -39zM281 453q77 0 118.5 -34.5t41.5 -100.5q0 -18 -3 -39
l-49 -279h-74l-9 69q-61 -78 -165 -78q-56 0 -90 29t-34 82q0 86 72.5 129t180.5 43q29 0 56 -3l4 20q2 12 2 16q0 55 -72 55q-71 0 -151 -35l-24 80q102 46 196 46zM181 73q48 0 87.5 34.5t51.5 94.5q-23 3 -51 3q-57 0 -101 -20.5t-44 -64.5q0 -47 57 -47z" />
    <glyph glyph-name="atilde.ss01" horiz-adv-x="486" 
d="M249 571q-27 0 -47 -34l-56 36q32 75 91 75q22 0 55.5 -13.5t44.5 -13.5q24 0 44 32l56 -38q-35 -72 -89 -72q-21 0 -53 14t-46 14zM281 453q77 0 118.5 -34.5t41.5 -100.5q0 -18 -3 -39l-49 -279h-74l-9 69q-61 -78 -165 -78q-56 0 -90 29t-34 82q0 86 72.5 129
t180.5 43q29 0 56 -3l4 20q2 12 2 16q0 55 -72 55q-71 0 -151 -35l-24 80q102 46 196 46zM181 73q48 0 87.5 34.5t51.5 94.5q-23 3 -51 3q-57 0 -101 -20.5t-44 -64.5q0 -47 57 -47z" />
    <glyph glyph-name="ae.ss01" horiz-adv-x="737" 
d="M507 178q-46 0 -96 11v-3q0 -109 107 -109q68 0 124 36l35 -72q-77 -53 -170 -53q-118 0 -160 96q-66 -96 -187 -96q-63 0 -101 32t-38 90q0 86 71 127.5t177 41.5q29 0 57 -4l4 24q1 4 1 13q0 55 -75 55q-69 0 -148 -35l-23 78q96 46 181 46q105 0 135 -76q65 76 165 76
q69 0 109.5 -35t40.5 -91q0 -74 -59.5 -113t-149.5 -39zM554 368q-49 0 -83 -29t-49 -78q42 -7 78 -7q51 0 83 17t32 51q0 46 -61 46zM185 73q48 0 81.5 34.5t47.5 98.5q-22 2 -40 2q-61 0 -104 -20t-44 -66q0 -49 59 -49z" />
    <glyph glyph-name="aeacute.ss01" horiz-adv-x="737" 
d="M547 616l-171 -95l-39 54l159 119zM507 178q-46 0 -96 11v-3q0 -109 107 -109q68 0 124 36l35 -72q-77 -53 -170 -53q-118 0 -160 96q-66 -96 -187 -96q-63 0 -101 32t-38 90q0 86 71 127.5t177 41.5q29 0 57 -4l4 24q1 4 1 13q0 55 -75 55q-69 0 -148 -35l-23 78
q96 46 181 46q105 0 135 -76q65 76 165 76q69 0 109.5 -35t40.5 -91q0 -74 -59.5 -113t-149.5 -39zM554 368q-49 0 -83 -29t-49 -78q42 -7 78 -7q51 0 83 17t32 51q0 46 -61 46zM185 73q48 0 81.5 34.5t47.5 98.5q-22 2 -40 2q-61 0 -104 -20t-44 -66q0 -49 59 -49z" />
    <glyph glyph-name="g.ss01" horiz-adv-x="482" 
d="M497 444l-12 -67l-70 -8q30 -35 30 -77q0 -7 -2 -21q-10 -66 -65.5 -110t-145.5 -44q-46 0 -84 16q-13 -10 -16 -26q-5 -40 50 -44l116 -10q59 -5 91.5 -32.5t32.5 -74.5q0 -77 -68 -127.5t-182 -50.5q-97 0 -146.5 39t-49.5 100q0 9 2 25q10 63 66 102q-17 23 -17 54
q0 59 57 95q-25 35 -25 83q0 19 2 29q12 70 68 116t147 46q39 0 112.5 -6.5t108.5 -6.5zM339 288q2 12 2 17q0 29 -18.5 48.5t-51.5 19.5q-40 0 -67.5 -25.5t-34.5 -63.5q-2 -12 -2 -16q0 -30 18.5 -49.5t51.5 -19.5q40 0 67.5 25.5t34.5 63.5zM174 -25q-25 1 -50 8
q-33 -22 -39 -60q-1 -4 -1 -11q0 -28 24 -45t73 -17q53 0 91.5 21t38.5 56t-53 40z" />
    <glyph glyph-name="gbreve.ss01" horiz-adv-x="482" 
d="M308 520q-53 0 -88.5 29t-39.5 80l59 26q11 -57 69 -57q33 0 57.5 16t34.5 41l59 -26q-16 -54 -57.5 -81.5t-93.5 -27.5zM497 444l-12 -67l-70 -8q30 -35 30 -77q0 -7 -2 -21q-10 -66 -65.5 -110t-145.5 -44q-46 0 -84 16q-13 -10 -16 -26q-5 -40 50 -44l116 -10
q59 -5 91.5 -32.5t32.5 -74.5q0 -77 -68 -127.5t-182 -50.5q-97 0 -146.5 39t-49.5 100q0 9 2 25q10 63 66 102q-17 23 -17 54q0 59 57 95q-25 35 -25 83q0 19 2 29q12 70 68 116t147 46q39 0 112.5 -6.5t108.5 -6.5zM339 288q2 12 2 17q0 29 -18.5 48.5t-51.5 19.5
q-40 0 -67.5 -25.5t-34.5 -63.5q-2 -12 -2 -16q0 -30 18.5 -49.5t51.5 -19.5q40 0 67.5 25.5t34.5 63.5zM174 -25q-25 1 -50 8q-33 -22 -39 -60q-1 -4 -1 -11q0 -28 24 -45t73 -17q53 0 91.5 21t38.5 56t-53 40z" />
    <glyph glyph-name="gcircumflex.ss01" horiz-adv-x="482" 
d="M313 582l-113 -67l-38 50l152 106h18l118 -108l-44 -48zM497 444l-12 -67l-70 -8q30 -35 30 -77q0 -7 -2 -21q-10 -66 -65.5 -110t-145.5 -44q-46 0 -84 16q-13 -10 -16 -26q-5 -40 50 -44l116 -10q59 -5 91.5 -32.5t32.5 -74.5q0 -77 -68 -127.5t-182 -50.5
q-97 0 -146.5 39t-49.5 100q0 9 2 25q10 63 66 102q-17 23 -17 54q0 59 57 95q-25 35 -25 83q0 19 2 29q12 70 68 116t147 46q39 0 112.5 -6.5t108.5 -6.5zM339 288q2 12 2 17q0 29 -18.5 48.5t-51.5 19.5q-40 0 -67.5 -25.5t-34.5 -63.5q-2 -12 -2 -16q0 -30 18.5 -49.5
t51.5 -19.5q40 0 67.5 25.5t34.5 63.5zM174 -25q-25 1 -50 8q-33 -22 -39 -60q-1 -4 -1 -11q0 -28 24 -45t73 -17q53 0 91.5 21t38.5 56t-53 40z" />
    <glyph glyph-name="uni0123.ss01" horiz-adv-x="482" 
d="M409 718q-44 -99 -61 -188h-100q29 119 88 188h73zM497 444l-12 -67l-70 -8q30 -35 30 -77q0 -7 -2 -21q-10 -66 -65.5 -110t-145.5 -44q-46 0 -84 16q-13 -10 -16 -26q-5 -40 50 -44l116 -10q59 -5 91.5 -32.5t32.5 -74.5q0 -77 -68 -127.5t-182 -50.5q-97 0 -146.5 39
t-49.5 100q0 9 2 25q10 63 66 102q-17 23 -17 54q0 59 57 95q-25 35 -25 83q0 19 2 29q12 70 68 116t147 46q39 0 112.5 -6.5t108.5 -6.5zM339 288q2 12 2 17q0 29 -18.5 48.5t-51.5 19.5q-40 0 -67.5 -25.5t-34.5 -63.5q-2 -12 -2 -16q0 -30 18.5 -49.5t51.5 -19.5
q40 0 67.5 25.5t34.5 63.5zM174 -25q-25 1 -50 8q-33 -22 -39 -60q-1 -4 -1 -11q0 -28 24 -45t73 -17q53 0 91.5 21t38.5 56t-53 40z" />
    <glyph glyph-name="gdotaccent.ss01" horiz-adv-x="482" 
d="M308 537q-27 0 -43 16.5t-16 41.5q0 27 19 48t48 21q28 0 44 -17t16 -43q0 -27 -19 -47t-49 -20zM497 444l-12 -67l-70 -8q30 -35 30 -77q0 -7 -2 -21q-10 -66 -65.5 -110t-145.5 -44q-46 0 -84 16q-13 -10 -16 -26q-5 -40 50 -44l116 -10q59 -5 91.5 -32.5t32.5 -74.5
q0 -77 -68 -127.5t-182 -50.5q-97 0 -146.5 39t-49.5 100q0 9 2 25q10 63 66 102q-17 23 -17 54q0 59 57 95q-25 35 -25 83q0 19 2 29q12 70 68 116t147 46q39 0 112.5 -6.5t108.5 -6.5zM339 288q2 12 2 17q0 29 -18.5 48.5t-51.5 19.5q-40 0 -67.5 -25.5t-34.5 -63.5
q-2 -12 -2 -16q0 -30 18.5 -49.5t51.5 -19.5q40 0 67.5 25.5t34.5 63.5zM174 -25q-25 1 -50 8q-33 -22 -39 -60q-1 -4 -1 -11q0 -28 24 -45t73 -17q53 0 91.5 21t38.5 56t-53 40z" />
    <glyph glyph-name="y.ss01" horiz-adv-x="524" 
d="M171 -232q-110 0 -177 69l52 78q48 -49 121 -49q54 0 92.5 30t48.5 86l12 70q-56 -63 -133 -63q-66 0 -104 39.5t-38 102.5q0 12 4 38l49 277h109l-48 -276q-2 -14 -2 -20q0 -28 16 -45.5t47 -17.5q52 0 85.5 36t43.5 91l40 232h110l-84 -474q-18 -104 -84.5 -154
t-159.5 -50z" />
    <glyph glyph-name="yacute.ss01" horiz-adv-x="524" 
d="M261 521l-39 54l159 119l51 -78zM171 -232q-110 0 -177 69l52 78q48 -49 121 -49q54 0 92.5 30t48.5 86l12 70q-56 -63 -133 -63q-66 0 -104 39.5t-38 102.5q0 12 4 38l49 277h109l-48 -276q-2 -14 -2 -20q0 -28 16 -45.5t47 -17.5q52 0 85.5 36t43.5 91l40 232h110
l-84 -474q-18 -104 -84.5 -154t-159.5 -50z" />
    <glyph glyph-name="ycircumflex.ss01" horiz-adv-x="524" 
d="M210 515l-38 50l152 106h18l118 -108l-44 -48l-93 67zM171 -232q-110 0 -177 69l52 78q48 -49 121 -49q54 0 92.5 30t48.5 86l12 70q-56 -63 -133 -63q-66 0 -104 39.5t-38 102.5q0 12 4 38l49 277h109l-48 -276q-2 -14 -2 -20q0 -28 16 -45.5t47 -17.5q52 0 85.5 36
t43.5 91l40 232h110l-84 -474q-18 -104 -84.5 -154t-159.5 -50z" />
    <glyph glyph-name="ydieresis.ss01" horiz-adv-x="524" 
d="M224 543q-26 0 -41.5 16t-15.5 39t18 42.5t44 19.5q25 0 40.5 -16t15.5 -39q0 -25 -17 -43.5t-44 -18.5zM417 543q-25 0 -40.5 16t-15.5 39q0 7 1 11q3 20 20 35.5t40 15.5q26 0 41 -16t15 -39q0 -24 -17.5 -43t-43.5 -19zM171 -232q-110 0 -177 69l52 78q48 -49 121 -49
q54 0 92.5 30t48.5 86l12 70q-56 -63 -133 -63q-66 0 -104 39.5t-38 102.5q0 12 4 38l49 277h109l-48 -276q-2 -14 -2 -20q0 -28 16 -45.5t47 -17.5q52 0 85.5 36t43.5 91l40 232h110l-84 -474q-18 -104 -84.5 -154t-159.5 -50z" />
    <glyph glyph-name="ygrave.ss01" horiz-adv-x="524" 
d="M344 521l-144 101l69 70l124 -124zM171 -232q-110 0 -177 69l52 78q48 -49 121 -49q54 0 92.5 30t48.5 86l12 70q-56 -63 -133 -63q-66 0 -104 39.5t-38 102.5q0 12 4 38l49 277h109l-48 -276q-2 -14 -2 -20q0 -28 16 -45.5t47 -17.5q52 0 85.5 36t43.5 91l40 232h110
l-84 -474q-18 -104 -84.5 -154t-159.5 -50z" />
    <glyph glyph-name="f_b" horiz-adv-x="917" 
d="M697 457q86 0 135 -51.5t49 -136.5q0 -32 -5 -57q-18 -102 -82.5 -162.5t-162.5 -60.5q-108 0 -155 80l-30 -69h-76l106 607q-41 29 -103 29q-46 0 -74 -24.5t-36 -68.5l-17 -97h123l-16 -92h-123l-63 -354h-109l62 354h-81l16 92h81l20 112q31 175 198 175q84 0 143 -48
l16 35h92l-47 -268q-4 -24 -12 -51q62 56 151 56zM768 220q3 18 3 35q0 49 -28.5 77.5t-77.5 28.5q-59 0 -100 -38.5t-51 -97.5q-3 -16 -3 -31q0 -49 29 -79.5t80 -30.5q56 0 96 37t52 99z" />
    <glyph glyph-name="f_f_b" horiz-adv-x="1264" 
d="M1045 457q86 0 135 -52t49 -137q0 -24 -5 -56q-18 -102 -82.5 -162.5t-162.5 -60.5q-109 0 -155 81l-31 -70h-76l107 607q-41 29 -105 29q-48 0 -77 -24.5t-37 -68.5l-17 -97h123l-16 -92h-123l-63 -354h-109l62 354h-233l-62 -354h-109l62 354h-81l16 92h81l21 118
q14 82 60.5 125.5t121.5 43.5q61 0 115 -30l-40 -79q-27 12 -59 12q-78 0 -91 -85l-18 -105h232l20 112q31 175 203 175q83 0 144 -48l16 35h92l-47 -268q-4 -25 -12 -50q62 55 151 55zM1116 220q3 18 3 35q0 49 -28.5 77.5t-78.5 28.5q-58 0 -99 -38.5t-51 -97.5
q-3 -17 -3 -31q0 -49 28.5 -79.5t80.5 -30.5q56 0 96 37t52 99z" />
    <glyph glyph-name="f_f_h" horiz-adv-x="1217" 
d="M1040 458q66 0 99.5 -35t33.5 -98q0 -25 -4 -48l-49 -277h-110l49 275q2 16 2 22q0 63 -65 63q-50 0 -84.5 -37.5t-44.5 -92.5l-40 -230h-110l107 606q-40 30 -105 30q-48 0 -77 -24.5t-37 -68.5l-17 -97h123l-16 -92h-123l-63 -354h-109l62 354h-233l-62 -354h-109
l62 354h-81l16 92h81l21 118q14 82 60.5 125.5t121.5 43.5q61 0 115 -30l-40 -79q-27 12 -59 12q-78 0 -91 -85l-18 -105h232l20 112q31 175 203 175q82 0 145 -47l15 34h92l-43 -245q-6 -35 -19 -86q64 69 149 69z" />
    <glyph glyph-name="f_f_j" horiz-adv-x="933" 
d="M908 446l-90 -509q-28 -163 -170 -163q-58 0 -102 25l39 88q25 -14 50 -14q32 0 51.5 23t25.5 58l71 400h-213l-62 -354h-109l63 354h-233l-62 -354h-109l62 354h-81l16 92h81l21 118q14 82 60.5 125.5t121.5 43.5q61 0 115 -30l-40 -79q-27 12 -59 12q-78 0 -91 -85
l-18 -105h232l19 108q31 179 216 179q109 0 190 -68l-51 -73q-51 44 -123 44q-108 0 -126 -97l-16 -93h321z" />
    <glyph glyph-name="f_f_k" horiz-adv-x="1158" 
d="M1174 446v-3l-213 -216l151 -224v-3h-118l-134 195l-34 -195h-109l107 607q-41 29 -105 29q-48 0 -77 -24.5t-37 -68.5l-17 -97h123l-16 -92h-123l-63 -354h-109l62 354h-233l-62 -354h-109l62 354h-81l16 92h81l21 118q14 82 60.5 125.5t121.5 43.5q61 0 115 -30
l-40 -79q-27 12 -59 12q-78 0 -91 -85l-18 -105h232l20 112q31 175 203 175q84 0 145 -48l16 35h91l-79 -446l170 172h130z" />
    <glyph glyph-name="f_h" horiz-adv-x="870" 
d="M692 458q66 0 100 -34.5t34 -97.5q0 -21 -5 -49l-49 -277h-109l48 275q2 8 2 23q0 62 -65 62q-50 0 -85 -37.5t-44 -92.5l-40 -230h-109l107 607q-43 29 -104 29q-46 0 -74 -24.5t-36 -68.5l-17 -97h123l-16 -92h-123l-63 -354h-109l62 354h-81l16 92h81l20 112
q31 175 198 175q85 0 144 -48l15 35h92l-43 -245q-9 -49 -18 -86q62 69 148 69z" />
    <glyph glyph-name="f_j" horiz-adv-x="590" 
d="M566 446l-90 -509q-29 -163 -170 -163q-58 0 -102 25l39 88q23 -14 50 -14q32 0 51 23t26 58l71 400h-212l-62 -354h-109l62 354h-81l16 92h82l19 110q31 177 213 177q111 0 203 -68l-51 -75q-61 46 -140 46q-101 0 -119 -97l-16 -93h320z" />
    <glyph glyph-name="f_k" horiz-adv-x="811" 
d="M827 446v-3l-214 -216l151 -224v-3h-118l-133 195l-34 -195h-109l106 607q-41 29 -103 29q-46 0 -74 -24.5t-36 -68.5l-17 -97h123l-16 -92h-123l-63 -354h-109l62 354h-81l16 92h81l20 112q31 175 198 175q84 0 143 -48l16 35h93l-79 -446l170 172h130z" />
    <glyph glyph-name="uni0414.loclBGR" horiz-adv-x="743" 
d="M635 104h79l-45 -256h-111l27 152h-505l-27 -152h-111l45 256h77l363 577h49zM423 490q-10 -20 -51 -88l-188 -302h338l-79 302q-11 39 -20 88z" />
    <glyph glyph-name="uni041B.loclBGR" horiz-adv-x="689" 
d="M445 684l201 -682v-2h-120l-102 364q-19 68 -28 117q-35 -69 -66 -117l-231 -364h-132v2l442 682h36z" />
    <glyph glyph-name="uni0424.loclBGR" horiz-adv-x="894" 
d="M587 690q133 -16 209.5 -95.5t76.5 -196.5q0 -31 -6 -64q-26 -140 -132 -234.5t-272 -107.5l-18 -102h-115l19 104q-133 16 -209.5 96t-76.5 197q0 30 6 63q25 142 129 235.5t274 106.5l19 104h114zM749 344q5 28 5 49q0 79 -49 131.5t-141 63.5l-85 -489
q111 15 181.5 81t88.5 164zM187 342q-4 -23 -4 -49q0 -79 48 -131.5t140 -63.5l85 488q-112 -15 -182 -81t-87 -163z" />
    <glyph glyph-name="uni0414.ss02" horiz-adv-x="743" 
d="M635 104h79l-45 -256h-111l27 152h-505l-27 -152h-111l45 256h77l363 577h49zM423 490q-10 -20 -51 -88l-188 -302h338l-79 302q-11 39 -20 88z" />
    <glyph glyph-name="uni041B.ss02" horiz-adv-x="689" 
d="M445 684l201 -682v-2h-120l-102 364q-19 68 -28 117q-35 -69 -66 -117l-231 -364h-132v2l442 682h36z" />
    <glyph glyph-name="uni0424.ss02" horiz-adv-x="894" 
d="M587 690q133 -16 209.5 -95.5t76.5 -196.5q0 -31 -6 -64q-26 -140 -132 -234.5t-272 -107.5l-18 -102h-115l19 104q-133 16 -209.5 96t-76.5 197q0 30 6 63q25 142 129 235.5t274 106.5l19 104h114zM749 344q5 28 5 49q0 79 -49 131.5t-141 63.5l-85 -489
q111 15 181.5 81t88.5 164zM187 342q-4 -23 -4 -49q0 -79 48 -131.5t140 -63.5l85 488q-112 -15 -182 -81t-87 -163z" />
    <glyph glyph-name="uni0414.ss03" horiz-adv-x="743" 
d="M635 104h79l-45 -256h-111l27 152h-505l-27 -152h-111l45 256h77l363 577h49zM423 490q-10 -20 -51 -88l-188 -302h338l-79 302q-11 39 -20 88z" />
    <glyph glyph-name="uni041B.ss03" horiz-adv-x="689" 
d="M445 684l201 -682v-2h-120l-102 364q-19 68 -28 117q-35 -69 -66 -117l-231 -364h-132v2l442 682h36z" />
    <glyph glyph-name="uni0424.ss03" horiz-adv-x="894" 
d="M587 690q133 -16 209.5 -95.5t76.5 -196.5q0 -31 -6 -64q-26 -140 -132 -234.5t-272 -107.5l-18 -102h-115l19 104q-133 16 -209.5 96t-76.5 197q0 30 6 63q25 142 129 235.5t274 106.5l19 104h114zM749 344q5 28 5 49q0 79 -49 131.5t-141 63.5l-85 -489
q111 15 181.5 81t88.5 164zM187 342q-4 -23 -4 -49q0 -79 48 -131.5t140 -63.5l85 488q-112 -15 -182 -81t-87 -163z" />
    <glyph glyph-name="uni0432.loclBGR" horiz-adv-x="552" 
d="M535 538q-8 -46 -41.5 -86.5t-84.5 -68.5q50 -14 77.5 -53t27.5 -94q0 -18 -3 -37q-17 -97 -88 -154t-177 -57q-88 0 -140 52.5t-52 151.5q0 38 7 77l25 141q26 150 101 225t187 75q76 0 120 -38t44 -101q0 -17 -3 -33zM427 551q0 64 -69 64q-57 0 -98.5 -48t-58.5 -142
l-8 -46l81 24q73 22 113 60t40 88zM400 208q2 9 2 26q0 40 -23 63.5t-64 23.5q-31 0 -64 -10l-74 -23l-6 -36q-5 -35 -5 -57q0 -109 90 -109q56 0 95 33.5t49 88.5z" />
    <glyph glyph-name="uni0433.loclBGR" horiz-adv-x="400" 
d="M169 -11q-69 0 -112 33t-44 89q0 62 42.5 98.5t122.5 61.5q47 15 67.5 29t20.5 36q0 15 -13.5 24t-37.5 9q-51 0 -110 -28l-28 76q67 37 148 37q65 0 105 -32t40 -83q0 -58 -38 -92.5t-110 -56.5q-51 -16 -76 -31.5t-24 -40.5q0 -41 61 -41q60 0 119 39l34 -79
q-80 -48 -167 -48z" />
    <glyph glyph-name="uni0434.loclBGR" horiz-adv-x="571" 
d="M472 446h73l-82 -472q-18 -103 -88 -154.5t-172 -51.5q-117 0 -195 73l52 80q61 -55 139 -55q63 0 104 30.5t52 87.5q7 36 15 66q-65 -58 -154 -58q-84 0 -132.5 51.5t-48.5 135.5q0 22 5 54q18 101 84 162.5t161 61.5q106 0 153 -78zM402 225q3 15 3 30q0 47 -27.5 76.5
t-79.5 29.5q-57 0 -97.5 -37t-51.5 -101q-3 -18 -3 -33q0 -49 28.5 -77t75.5 -28q60 0 100 38.5t52 101.5z" />
    <glyph glyph-name="uni0436.loclBGR" horiz-adv-x="669" 
d="M685 446v-3l-202 -216l139 -225v-2h-116l-120 197l-35 -197h-109l35 199l-180 -199h-129v2l225 238l-129 203v3h115l110 -179l77 432h109l-76 -431l160 178h126z" />
    <glyph glyph-name="uni0437.loclBGR" horiz-adv-x="408" 
d="M101 -232q-103 0 -180 50l47 83q54 -36 133 -36q65 0 102.5 37t37.5 95q0 84 -101 84h-75l16 89h63q48 0 79 27t39 70q2 12 2 18q0 34 -22 53.5t-62 19.5q-50 0 -106 -26l-21 83q80 40 154 40q78 0 122 -38.5t44 -105.5q0 -19 -3 -38q-18 -94 -103 -142q85 -39 85 -137
q0 -11 -4 -39q-15 -87 -79.5 -137t-167.5 -50z" />
    <glyph glyph-name="uni0438.loclBGR" horiz-adv-x="523" 
d="M389 446h110l-79 -446h-76l-9 67q-59 -76 -154 -76q-63 0 -99.5 36.5t-36.5 99.5q0 22 4 41l49 278h109l-48 -274q-2 -14 -2 -21q0 -28 16 -45t47 -17q52 0 85.5 36t43.5 94z" />
    <glyph glyph-name="uni0439.loclBGR" horiz-adv-x="523" 
d="M309 525q-49 0 -84.5 22t-49.5 64l62 41q22 -48 76 -48q57 0 99 48l54 -43q-54 -84 -157 -84zM389 446h110l-79 -446h-76l-9 67q-59 -76 -154 -76q-63 0 -99.5 36.5t-36.5 99.5q0 22 4 41l49 278h109l-48 -274q-2 -14 -2 -21q0 -28 16 -45t47 -17q52 0 85.5 36t43.5 94z
" />
    <glyph glyph-name="uni045D.loclBGR" horiz-adv-x="523" 
d="M394 568l-49 -47l-144 101l69 70zM389 446h110l-79 -446h-76l-9 67q-59 -76 -154 -76q-63 0 -99.5 36.5t-36.5 99.5q0 22 4 41l49 278h109l-48 -274q-2 -14 -2 -21q0 -28 16 -45t47 -17q52 0 85.5 36t43.5 94z" />
    <glyph glyph-name="uni043A.loclBGR" horiz-adv-x="468" 
d="M483 446v-3l-214 -216l152 -225v-2h-120l-132 195l-34 -195h-110l123 699h110l-75 -423l169 170h131z" />
    <glyph glyph-name="uni043B.loclBGR" horiz-adv-x="480" 
d="M-32 0v2l291 449h40l134 -449v-2h-113l-56 219q-8 30 -11 56q-12 -30 -30 -58l-133 -217h-122z" />
    <glyph glyph-name="uni043F.loclBGR" horiz-adv-x="525" 
d="M347 458q64 0 99 -33.5t35 -97.5q0 -20 -5 -50l-49 -277h-109l48 272q2 9 2 25q0 63 -65 63q-51 0 -85 -36.5t-44 -94.5l-40 -229h-110l79 446h73l10 -72q66 84 161 84z" />
    <glyph glyph-name="uni0442.loclBGR" horiz-adv-x="793" 
d="M617 458q61 0 96.5 -35t35.5 -97q0 -23 -4 -43l-50 -283h-108l49 278q2 16 2 21q0 61 -62 61q-47 0 -79.5 -37.5t-41.5 -90.5l-41 -232h-108l48 278q2 14 2 22q0 27 -14.5 43.5t-42.5 16.5q-49 0 -82.5 -37.5t-42.5 -89.5l-40 -233h-109l78 446h73l10 -71q60 83 152 83
q97 0 119 -80q63 80 160 80z" />
    <glyph glyph-name="uni0443.loclBGR" horiz-adv-x="524" 
d="M171 -232q-110 0 -177 69l52 78q48 -49 121 -49q54 0 92.5 30t48.5 86l12 70q-56 -63 -133 -63q-66 0 -104 39.5t-38 102.5q0 12 4 38l49 277h109l-48 -276q-2 -14 -2 -20q0 -28 16 -45.5t47 -17.5q52 0 85.5 36t43.5 91l40 232h110l-84 -474q-18 -104 -84.5 -154
t-159.5 -50z" />
    <glyph glyph-name="uni0446.loclBGR" horiz-adv-x="544" 
d="M483 93h19l-37 -206h-99l21 119q-44 14 -51 55q-56 -73 -149 -73q-66 0 -103.5 39.5t-37.5 102.5q0 18 3 38l49 278h109l-49 -279q-2 -12 -2 -18q0 -29 17 -46t48 -17q51 0 85.5 36t43.5 91l40 233h110l-55 -315q-1 -5 -1 -12q0 -26 39 -26z" />
    <glyph glyph-name="uni0448.loclBGR" horiz-adv-x="794" 
d="M660 446h109l-78 -446h-76l-9 67q-58 -75 -149 -75q-47 0 -78 21t-42 59q-63 -80 -159 -80q-62 0 -97.5 35t-35.5 97q0 22 4 42l49 280h109l-48 -275q-2 -16 -2 -22q0 -29 16.5 -44.5t44.5 -15.5q47 0 79.5 37.5t41.5 90.5l40 229h109l-48 -275q-2 -14 -2 -22
q0 -27 14.5 -43.5t42.5 -16.5q49 0 82.5 37t42.5 89z" />
    <glyph glyph-name="uni0449.loclBGR" horiz-adv-x="813" 
d="M752 95h19l-37 -209h-99l22 124q-43 16 -49 57q-61 -75 -153 -75q-48 0 -78 22.5t-40 58.5q-60 -81 -157 -81q-66 0 -100.5 36t-34.5 97q0 23 4 43l49 278h109l-48 -273q-2 -16 -2 -24q0 -60 59 -60q50 0 82.5 38t41.5 89l39 230h109l-48 -275q-2 -14 -2 -21
q0 -27 14.5 -44t41.5 -17q49 0 82 36.5t43 90.5l41 230h109l-55 -314q-1 -5 -1 -13q0 -24 39 -24z" />
    <glyph glyph-name="uni044C.loclBGR" horiz-adv-x="479" 
d="M284 336q72 0 116.5 -37.5t44.5 -103.5q0 -12 -4 -38q-14 -82 -70.5 -125.5t-147.5 -43.5q-82 0 -129 42t-47 111q0 18 3 36l48 269h110l-24 -136q43 26 100 26zM335 164q2 12 2 18q0 32 -20.5 49t-57.5 17q-88 0 -103 -81q-2 -8 -2 -22q0 -32 20 -49.5t56 -17.5
q41 0 69.5 22t35.5 64z" />
    <glyph glyph-name="uni044A.loclBGR" horiz-adv-x="537" 
d="M343 336q72 0 116 -37.5t44 -104.5q0 -18 -3 -37q-15 -82 -71 -125.5t-147 -43.5q-83 0 -129.5 42t-46.5 111q0 17 3 36l31 175h-110l16 94h220l-24 -136q45 26 101 26zM393 164q2 14 2 19q0 65 -77 65q-88 0 -103 -81q-2 -8 -2 -23q0 -66 76 -66q41 0 69 22t35 64z" />
    <glyph glyph-name="uni044B.loclBGR" horiz-adv-x="687" 
d="M284 336q72 0 116.5 -37.5t44.5 -103.5q0 -12 -4 -38q-14 -82 -70.5 -125.5t-147.5 -43.5q-82 0 -129 42t-47 111q0 18 3 36l48 269h109l-24 -136q45 26 101 26zM553 446h110l-79 -446h-109zM335 164q2 12 2 18q0 32 -20.5 49t-57.5 17q-88 0 -103 -81q-2 -8 -2 -22
q0 -32 20 -49.5t56 -17.5q41 0 69.5 22t35.5 64z" />
    <glyph glyph-name="uni0430.ss01" horiz-adv-x="486" 
d="M281 453q77 0 118.5 -34.5t41.5 -100.5q0 -18 -3 -39l-49 -279h-74l-9 69q-61 -78 -165 -78q-56 0 -90 29t-34 82q0 86 72.5 129t180.5 43q29 0 56 -3l4 20q2 12 2 16q0 55 -72 55q-71 0 -151 -35l-24 80q102 46 196 46zM181 73q48 0 87.5 34.5t51.5 94.5q-23 3 -51 3
q-57 0 -101 -20.5t-44 -64.5q0 -47 57 -47z" />
    <glyph glyph-name="uni0443.ss01" horiz-adv-x="524" 
d="M171 -232q-110 0 -171 67l49 81q45 -49 119 -49q54 0 92 30.5t48 87.5l12 67q-56 -63 -133 -63q-66 0 -104 39.5t-38 102.5q0 12 4 38l49 277h109l-48 -276q-2 -14 -2 -20q0 -28 16 -45.5t47 -17.5q52 0 85.5 36t43.5 91l40 232h110l-83 -471q-18 -106 -84.5 -156.5
t-160.5 -50.5z" />
    <glyph glyph-name="uni0432.ss02" horiz-adv-x="552" 
d="M535 538q-8 -46 -41.5 -86.5t-84.5 -68.5q50 -14 77.5 -53t27.5 -94q0 -18 -3 -37q-17 -97 -88 -154t-177 -57q-88 0 -140 52.5t-52 151.5q0 38 7 77l25 141q26 150 101 225t187 75q76 0 120 -38t44 -101q0 -17 -3 -33zM427 551q0 64 -69 64q-57 0 -98.5 -48t-58.5 -142
l-8 -46l81 24q73 22 113 60t40 88zM400 208q2 9 2 26q0 40 -23 63.5t-64 23.5q-31 0 -64 -10l-74 -23l-6 -36q-5 -35 -5 -57q0 -109 90 -109q56 0 95 33.5t49 88.5z" />
    <glyph glyph-name="uni0433.ss02" horiz-adv-x="400" 
d="M169 -11q-69 0 -112 33t-44 89q0 62 42.5 98.5t122.5 61.5q47 15 67.5 29t20.5 36q0 15 -13.5 24t-37.5 9q-51 0 -110 -28l-28 76q67 37 148 37q65 0 105 -32t40 -83q0 -58 -38 -92.5t-110 -56.5q-51 -16 -76 -31.5t-24 -40.5q0 -41 61 -41q60 0 119 39l34 -79
q-80 -48 -167 -48z" />
    <glyph glyph-name="uni0434.ss02" horiz-adv-x="571" 
d="M472 446h73l-82 -472q-18 -103 -88 -154.5t-172 -51.5q-117 0 -195 73l52 80q61 -55 139 -55q63 0 104 30.5t52 87.5q7 36 15 66q-65 -58 -154 -58q-84 0 -132.5 51.5t-48.5 135.5q0 22 5 54q18 101 84 162.5t161 61.5q106 0 153 -78zM402 225q3 15 3 30q0 47 -27.5 76.5
t-79.5 29.5q-57 0 -97.5 -37t-51.5 -101q-3 -18 -3 -33q0 -49 28.5 -77t75.5 -28q60 0 100 38.5t52 101.5z" />
    <glyph glyph-name="uni0436.ss02" horiz-adv-x="669" 
d="M685 446v-3l-202 -216l139 -225v-2h-116l-120 197l-35 -197h-109l35 199l-180 -199h-129v2l225 238l-129 203v3h115l110 -179l77 432h109l-76 -431l160 178h126z" />
    <glyph glyph-name="uni0437.ss02" horiz-adv-x="408" 
d="M101 -232q-103 0 -180 50l47 83q54 -36 133 -36q65 0 102.5 37t37.5 95q0 84 -101 84h-75l16 89h63q48 0 79 27t39 70q2 12 2 18q0 34 -22 53.5t-62 19.5q-50 0 -106 -26l-21 83q80 40 154 40q78 0 122 -38.5t44 -105.5q0 -19 -3 -38q-18 -94 -103 -142q85 -39 85 -137
q0 -11 -4 -39q-15 -87 -79.5 -137t-167.5 -50z" />
    <glyph glyph-name="uni0438.ss02" horiz-adv-x="523" 
d="M389 446h110l-79 -446h-76l-9 67q-59 -76 -154 -76q-63 0 -99.5 36.5t-36.5 99.5q0 22 4 41l49 278h109l-48 -274q-2 -14 -2 -21q0 -28 16 -45t47 -17q52 0 85.5 36t43.5 94z" />
    <glyph glyph-name="uni0439.ss02" horiz-adv-x="523" 
d="M309 525q-49 0 -84.5 22t-49.5 64l62 41q22 -48 76 -48q57 0 99 48l54 -43q-54 -84 -157 -84zM389 446h110l-79 -446h-76l-9 67q-59 -76 -154 -76q-63 0 -99.5 36.5t-36.5 99.5q0 22 4 41l49 278h109l-48 -274q-2 -14 -2 -21q0 -28 16 -45t47 -17q52 0 85.5 36t43.5 94z
" />
    <glyph glyph-name="uni045D.ss02" horiz-adv-x="525" 
d="M417 573l-49 -47l-145 102l69 69zM389 446h110l-79 -446h-76l-9 67q-59 -76 -154 -76q-63 0 -99.5 36.5t-36.5 99.5q0 22 4 41l49 278h109l-48 -274q-2 -14 -2 -21q0 -28 16 -45t47 -17q52 0 85.5 36t43.5 94z" />
    <glyph glyph-name="uni043A.ss02" horiz-adv-x="468" 
d="M483 446v-3l-214 -216l152 -225v-2h-120l-132 195l-34 -195h-110l123 699h110l-75 -423l169 170h131z" />
    <glyph glyph-name="uni043B.ss02" horiz-adv-x="480" 
d="M-32 0v2l291 449h40l134 -449v-2h-113l-56 219q-8 30 -11 56q-12 -30 -30 -58l-133 -217h-122z" />
    <glyph glyph-name="uni043F.ss02" horiz-adv-x="525" 
d="M347 458q64 0 99 -33.5t35 -97.5q0 -20 -5 -50l-49 -277h-109l48 272q2 9 2 25q0 63 -65 63q-51 0 -85 -36.5t-44 -94.5l-40 -229h-110l79 446h73l10 -72q66 84 161 84z" />
    <glyph glyph-name="uni0442.ss02" horiz-adv-x="793" 
d="M617 458q61 0 96.5 -35t35.5 -97q0 -23 -4 -43l-50 -283h-108l49 278q2 16 2 21q0 61 -62 61q-47 0 -79.5 -37.5t-41.5 -90.5l-41 -232h-108l48 278q2 14 2 22q0 27 -14.5 43.5t-42.5 16.5q-49 0 -82.5 -37.5t-42.5 -89.5l-40 -233h-109l78 446h73l10 -71q60 83 152 83
q97 0 119 -80q63 80 160 80z" />
    <glyph glyph-name="uni0446.ss02" horiz-adv-x="544" 
d="M483 93h19l-37 -206h-99l21 119q-44 14 -51 55q-56 -73 -149 -73q-66 0 -103.5 39.5t-37.5 102.5q0 18 3 38l49 278h109l-49 -279q-2 -12 -2 -18q0 -29 17 -46t48 -17q51 0 85.5 36t43.5 91l40 233h110l-55 -315q-1 -5 -1 -12q0 -26 39 -26z" />
    <glyph glyph-name="uni0448.ss02" horiz-adv-x="794" 
d="M660 446h109l-78 -446h-76l-9 67q-58 -75 -149 -75q-47 0 -78 21t-42 59q-63 -80 -159 -80q-62 0 -97.5 35t-35.5 97q0 22 4 42l49 280h109l-48 -275q-2 -16 -2 -22q0 -29 16.5 -44.5t44.5 -15.5q47 0 79.5 37.5t41.5 90.5l40 229h109l-48 -275q-2 -14 -2 -22
q0 -27 14.5 -43.5t42.5 -16.5q49 0 82.5 37t42.5 89z" />
    <glyph glyph-name="uni0449.ss02" horiz-adv-x="813" 
d="M752 95h19l-37 -209h-99l22 124q-43 16 -49 57q-61 -75 -153 -75q-48 0 -78 22.5t-40 58.5q-60 -81 -157 -81q-66 0 -100.5 36t-34.5 97q0 23 4 43l49 278h109l-48 -273q-2 -16 -2 -24q0 -60 59 -60q50 0 82.5 38t41.5 89l39 230h109l-48 -275q-2 -14 -2 -21
q0 -27 14.5 -44t41.5 -17q49 0 82 36.5t43 90.5l41 230h109l-55 -314q-1 -5 -1 -13q0 -24 39 -24z" />
    <glyph glyph-name="uni044C.ss02" horiz-adv-x="479" 
d="M284 336q72 0 116.5 -37.5t44.5 -103.5q0 -12 -4 -38q-14 -82 -70.5 -125.5t-147.5 -43.5q-82 0 -129 42t-47 111q0 18 3 36l48 269h110l-24 -136q43 26 100 26zM335 164q2 12 2 18q0 32 -20.5 49t-57.5 17q-88 0 -103 -81q-2 -8 -2 -22q0 -32 20 -49.5t56 -17.5
q41 0 69.5 22t35.5 64z" />
    <glyph glyph-name="uni044A.ss02" horiz-adv-x="537" 
d="M343 336q72 0 116 -37.5t44 -104.5q0 -18 -3 -37q-15 -82 -71 -125.5t-147 -43.5q-83 0 -129.5 42t-46.5 111q0 17 3 36l31 175h-110l16 94h220l-24 -136q45 26 101 26zM393 164q2 14 2 19q0 65 -77 65q-88 0 -103 -81q-2 -8 -2 -23q0 -66 76 -66q41 0 69 22t35 64z" />
    <glyph glyph-name="uni044B.ss02" horiz-adv-x="687" 
d="M284 336q72 0 116.5 -37.5t44.5 -103.5q0 -12 -4 -38q-14 -82 -70.5 -125.5t-147.5 -43.5q-82 0 -129 42t-47 111q0 18 3 36l48 269h110l-24 -136q43 26 100 26zM554 446h109l-79 -446h-109zM335 164q2 12 2 18q0 32 -20.5 49t-57.5 17q-88 0 -103 -81q-2 -8 -2 -22
q0 -32 20 -49.5t56 -17.5q41 0 69.5 22t35.5 64z" />
    <glyph glyph-name="uni0430.ss03" horiz-adv-x="486" 
d="M281 453q77 0 118.5 -34.5t41.5 -100.5q0 -18 -3 -39l-49 -279h-74l-9 69q-61 -78 -165 -78q-56 0 -90 29t-34 82q0 86 72.5 129t180.5 43q29 0 56 -3l4 20q2 12 2 16q0 55 -72 55q-71 0 -151 -35l-24 80q102 46 196 46zM181 73q48 0 87.5 34.5t51.5 94.5q-23 3 -51 3
q-57 0 -101 -20.5t-44 -64.5q0 -47 57 -47z" />
    <glyph glyph-name="uni0432.ss03" horiz-adv-x="552" 
d="M535 538q-8 -46 -41.5 -86.5t-84.5 -68.5q50 -14 77.5 -53t27.5 -94q0 -18 -3 -37q-17 -97 -88 -154t-177 -57q-88 0 -140 52.5t-52 151.5q0 38 7 77l25 141q26 150 101 225t187 75q76 0 120 -38t44 -101q0 -17 -3 -33zM427 551q0 64 -69 64q-57 0 -98.5 -48t-58.5 -142
l-8 -46l81 24q73 22 113 60t40 88zM400 208q2 9 2 26q0 40 -23 63.5t-64 23.5q-31 0 -64 -10l-74 -23l-6 -36q-5 -35 -5 -57q0 -109 90 -109q56 0 95 33.5t49 88.5z" />
    <glyph glyph-name="uni0433.ss03" horiz-adv-x="400" 
d="M169 -11q-69 0 -112 33t-44 89q0 62 42.5 98.5t122.5 61.5q47 15 67.5 29t20.5 36q0 15 -13.5 24t-37.5 9q-51 0 -110 -28l-28 76q67 37 148 37q65 0 105 -32t40 -83q0 -58 -38 -92.5t-110 -56.5q-51 -16 -76 -31.5t-24 -40.5q0 -41 61 -41q60 0 119 39l34 -79
q-80 -48 -167 -48z" />
    <glyph glyph-name="uni0434.ss03" horiz-adv-x="571" 
d="M472 446h73l-82 -472q-18 -103 -88 -154.5t-172 -51.5q-117 0 -195 73l52 80q61 -55 139 -55q63 0 104 30.5t52 87.5q7 36 15 66q-65 -58 -154 -58q-84 0 -132.5 51.5t-48.5 135.5q0 22 5 54q18 101 84 162.5t161 61.5q106 0 153 -78zM402 225q3 15 3 30q0 47 -27.5 76.5
t-79.5 29.5q-57 0 -97.5 -37t-51.5 -101q-3 -18 -3 -33q0 -49 28.5 -77t75.5 -28q60 0 100 38.5t52 101.5z" />
    <glyph glyph-name="uni0436.ss03" horiz-adv-x="669" 
d="M685 446v-3l-202 -216l139 -225v-2h-116l-120 197l-35 -197h-109l35 199l-180 -199h-129v2l225 238l-129 203v3h115l110 -179l77 432h109l-76 -431l160 178h126z" />
    <glyph glyph-name="uni0437.ss03" horiz-adv-x="408" 
d="M101 -232q-103 0 -180 50l47 83q54 -36 133 -36q65 0 102.5 37t37.5 95q0 84 -101 84h-75l16 89h63q48 0 79 27t39 70q2 12 2 18q0 34 -22 53.5t-62 19.5q-50 0 -106 -26l-21 83q80 40 154 40q78 0 122 -38.5t44 -105.5q0 -19 -3 -38q-18 -94 -103 -142q85 -39 85 -137
q0 -11 -4 -39q-15 -87 -79.5 -137t-167.5 -50z" />
    <glyph glyph-name="uni0438.ss03" horiz-adv-x="523" 
d="M389 446h110l-79 -446h-76l-9 67q-59 -76 -154 -76q-63 0 -99.5 36.5t-36.5 99.5q0 22 4 41l49 278h109l-48 -274q-2 -14 -2 -21q0 -28 16 -45t47 -17q52 0 85.5 36t43.5 94z" />
    <glyph glyph-name="uni0439.ss03" horiz-adv-x="523" 
d="M309 525q-49 0 -84.5 22t-49.5 64l62 41q22 -48 76 -48q57 0 99 48l54 -43q-54 -84 -157 -84zM389 446h110l-79 -446h-76l-9 67q-59 -76 -154 -76q-63 0 -99.5 36.5t-36.5 99.5q0 22 4 41l49 278h109l-48 -274q-2 -14 -2 -21q0 -28 16 -45t47 -17q52 0 85.5 36t43.5 94z
" />
    <glyph glyph-name="uni045D.ss03" horiz-adv-x="525" 
d="M417 573l-49 -47l-145 102l69 69zM389 446h110l-79 -446h-76l-9 67q-59 -76 -154 -76q-63 0 -99.5 36.5t-36.5 99.5q0 22 4 41l49 278h109l-48 -274q-2 -14 -2 -21q0 -28 16 -45t47 -17q52 0 85.5 36t43.5 94z" />
    <glyph glyph-name="uni043A.ss03" horiz-adv-x="468" 
d="M483 446v-3l-214 -216l152 -225v-2h-120l-132 195l-34 -195h-110l123 699h110l-75 -423l169 170h131z" />
    <glyph glyph-name="uni043B.ss03" horiz-adv-x="480" 
d="M-32 0v2l291 449h40l134 -449v-2h-113l-56 219q-8 30 -11 56q-12 -30 -30 -58l-133 -217h-122z" />
    <glyph glyph-name="uni043F.ss03" horiz-adv-x="525" 
d="M347 458q64 0 99 -33.5t35 -97.5q0 -20 -5 -50l-49 -277h-109l48 272q2 9 2 25q0 63 -65 63q-51 0 -85 -36.5t-44 -94.5l-40 -229h-110l79 446h73l10 -72q66 84 161 84z" />
    <glyph glyph-name="uni0442.ss03" horiz-adv-x="793" 
d="M617 458q61 0 96.5 -35t35.5 -97q0 -23 -4 -43l-50 -283h-108l49 278q2 16 2 21q0 61 -62 61q-47 0 -79.5 -37.5t-41.5 -90.5l-41 -232h-108l48 278q2 14 2 22q0 27 -14.5 43.5t-42.5 16.5q-49 0 -82.5 -37.5t-42.5 -89.5l-40 -233h-109l78 446h73l10 -71q60 83 152 83
q97 0 119 -80q63 80 160 80z" />
    <glyph glyph-name="uni0443.ss03" horiz-adv-x="524" 
d="M171 -232q-110 0 -177 69l52 78q48 -49 121 -49q54 0 92.5 30t48.5 86l12 70q-56 -63 -133 -63q-66 0 -104 39.5t-38 102.5q0 12 4 38l49 277h109l-48 -276q-2 -14 -2 -20q0 -28 16 -45.5t47 -17.5q52 0 85.5 36t43.5 91l40 232h110l-84 -474q-18 -104 -84.5 -154
t-159.5 -50z" />
    <glyph glyph-name="uni0446.ss03" horiz-adv-x="544" 
d="M483 93h19l-37 -206h-99l21 119q-44 14 -51 55q-56 -73 -149 -73q-66 0 -103.5 39.5t-37.5 102.5q0 18 3 38l49 278h109l-49 -279q-2 -12 -2 -18q0 -29 17 -46t48 -17q51 0 85.5 36t43.5 91l40 233h110l-55 -315q-1 -5 -1 -12q0 -26 39 -26z" />
    <glyph glyph-name="uni0448.ss03" horiz-adv-x="794" 
d="M660 446h109l-78 -446h-76l-9 67q-58 -75 -149 -75q-47 0 -78 21t-42 59q-63 -80 -159 -80q-62 0 -97.5 35t-35.5 97q0 22 4 42l49 280h109l-48 -275q-2 -16 -2 -22q0 -29 16.5 -44.5t44.5 -15.5q47 0 79.5 37.5t41.5 90.5l40 229h109l-48 -275q-2 -14 -2 -22
q0 -27 14.5 -43.5t42.5 -16.5q49 0 82.5 37t42.5 89z" />
    <glyph glyph-name="uni0449.ss03" horiz-adv-x="813" 
d="M752 95h19l-37 -209h-99l22 124q-43 16 -49 57q-61 -75 -153 -75q-48 0 -78 22.5t-40 58.5q-60 -81 -157 -81q-66 0 -100.5 36t-34.5 97q0 23 4 43l49 278h109l-48 -273q-2 -16 -2 -24q0 -60 59 -60q50 0 82.5 38t41.5 89l39 230h109l-48 -275q-2 -14 -2 -21
q0 -27 14.5 -44t41.5 -17q49 0 82 36.5t43 90.5l41 230h109l-55 -314q-1 -5 -1 -13q0 -24 39 -24z" />
    <glyph glyph-name="uni044C.ss03" horiz-adv-x="479" 
d="M284 336q72 0 116.5 -37.5t44.5 -103.5q0 -12 -4 -38q-14 -82 -70.5 -125.5t-147.5 -43.5q-82 0 -129 42t-47 111q0 18 3 36l48 269h110l-24 -136q43 26 100 26zM335 164q2 12 2 18q0 32 -20.5 49t-57.5 17q-88 0 -103 -81q-2 -8 -2 -22q0 -32 20 -49.5t56 -17.5
q41 0 69.5 22t35.5 64z" />
    <glyph glyph-name="uni044A.ss03" horiz-adv-x="537" 
d="M343 336q72 0 116 -37.5t44 -104.5q0 -18 -3 -37q-15 -82 -71 -125.5t-147 -43.5q-83 0 -129.5 42t-46.5 111q0 17 3 36l31 175h-110l16 94h220l-24 -136q45 26 101 26zM393 164q2 14 2 19q0 65 -77 65q-88 0 -103 -81q-2 -8 -2 -23q0 -66 76 -66q41 0 69 22t35 64z" />
    <glyph glyph-name="uni044B.ss03" horiz-adv-x="687" 
d="M284 336q72 0 116.5 -37.5t44.5 -103.5q0 -12 -4 -38q-14 -82 -70.5 -125.5t-147.5 -43.5q-82 0 -129 42t-47 111q0 18 3 36l48 269h109l-24 -136q45 26 101 26zM553 446h110l-79 -446h-109zM335 164q2 12 2 18q0 32 -20.5 49t-57.5 17q-88 0 -103 -81q-2 -8 -2 -22
q0 -32 20 -49.5t56 -17.5q41 0 69.5 22t35.5 64z" />
    <glyph glyph-name="zero.sinf" horiz-adv-x="314" 
d="M112 -71q-45 0 -71 32t-26 85q0 23 4 44q12 66 46.5 105t86.5 39q45 0 71 -31.5t26 -85.5q0 -23 -4 -43q-12 -67 -46.5 -106t-86.5 -39zM115 -8q50 0 66 90q4 24 4 35q0 55 -36 55q-51 0 -66 -90q-4 -24 -4 -36q0 -54 36 -54z" />
    <glyph glyph-name="one.sinf" horiz-adv-x="227" 
d="M51 -60l33 179l-43 -33l-33 41l119 99h38l-50 -286h-64z" />
    <glyph glyph-name="two.sinf" horiz-adv-x="289" 
d="M226 151q0 -45 -41 -86l-67 -68h92l-9 -57h-203l3 24l132 132q28 28 28 51q0 25 -25 25q-29 0 -46 -36l-53 28q35 70 106 70q36 0 59.5 -24t23.5 -59z" />
    <glyph glyph-name="three.sinf" horiz-adv-x="288" 
d="M94 -71q-63 0 -96 38l34 44q23 -23 57 -23q47 0 55 35q1 3 1 8q0 30 -35 30h-38l10 51h23q41 0 47 32q3 14 -5.5 22t-23.5 8q-27 0 -49 -18l-32 48q41 29 92 29q34 0 59 -20.5t25 -51.5q0 -55 -53 -74q17 -5 30.5 -22.5t13.5 -40.5q0 -9 -1 -13q-7 -39 -37.5 -60.5
t-76.5 -21.5z" />
    <glyph glyph-name="four.sinf" horiz-adv-x="306" 
d="M117 -60l8 46h-132l4 28l200 212h29l-33 -189h34l-9 -51h-34l-8 -46h-59zM84 37h50l13 66z" />
    <glyph glyph-name="five.sinf" horiz-adv-x="284" 
d="M89 -71q-58 0 -92 36l38 43q18 -21 51 -21q24 0 40.5 13.5t16.5 34.5q0 18 -14.5 29t-38.5 11q-23 0 -47 -10l-8 7l47 151h146l-10 -59h-93l-15 -47q4 1 13 1q35 0 59 -21.5t24 -58.5q0 -48 -33.5 -78.5t-83.5 -30.5z" />
    <glyph glyph-name="six.sinf" horiz-adv-x="293" 
d="M142 116q30 0 52 -21t22 -56q0 -49 -30.5 -79.5t-79.5 -30.5q-46 0 -70.5 27t-24.5 72q0 16 3 32l2 10q12 71 61 116t129 44l5 -58q-92 3 -125 -74q22 18 56 18zM155 31q0 15 -9.5 24.5t-25.5 9.5q-40 0 -47 -39q-3 -19 7 -31t28 -12q21 0 34 13.5t13 34.5z" />
    <glyph glyph-name="seven.sinf" horiz-adv-x="277" 
d="M7 -60l128 224h-103l10 59h192l-3 -13l-153 -270h-71z" />
    <glyph glyph-name="eight.sinf" horiz-adv-x="297" 
d="M103 -71q-42 0 -70 20.5t-28 56.5q0 29 18.5 54.5t44.5 34.5q-27 17 -27 50q0 40 30 64.5t73 24.5q38 0 61.5 -19.5t23.5 -52.5q0 -51 -49 -73q38 -20 38 -64q0 -46 -33 -71t-82 -25zM131 115q11 0 21.5 8t12.5 21q1 4 1 10q0 25 -26 25q-32 0 -37 -32q-3 -15 5 -23.5
t23 -8.5zM105 -15q22 0 36.5 12.5t14.5 35.5q0 32 -36 32q-19 0 -32.5 -11.5t-17.5 -28.5q-1 -3 -1 -9q0 -15 10.5 -23t25.5 -8z" />
    <glyph glyph-name="nine.sinf" horiz-adv-x="292" 
d="M135 233q46 0 70.5 -27t24.5 -72q0 -16 -3 -32l-1 -10q-12 -71 -60.5 -113t-130.5 -41l-4 56q94 3 124 69q-25 -17 -55 -17t-52 21t-22 56q0 49 30.5 79.5t78.5 30.5zM87 130q0 -15 9 -24t25 -9q48 0 48 47q0 16 -10 25.5t-26 9.5q-20 0 -33 -14t-13 -35z" />
    <glyph glyph-name="zero.tf" horiz-adv-x="549" 
d="M241 -12q-97 0 -150 66t-53 183q0 48 9 102q59 333 298 335q97 0 151 -66t54 -182q0 -41 -10 -103q-29 -159 -105.5 -247t-193.5 -88zM246 90q68 0 113.5 64t65.5 178q9 51 9 94q0 69 -24 107.5t-71 38.5q-136 0 -178 -242q-9 -51 -9 -93q0 -69 24 -108t70 -39z" />
    <glyph glyph-name="one.tf" horiz-adv-x="549" 
d="M344 100h142l-17 -100h-419l18 100h160l66 362q5 28 10 47q-22 -14 -33 -20l-133 -76l-47 85l281 170h73z" />
    <glyph glyph-name="two.tf" horiz-adv-x="549" 
d="M429 298l-148 -147q-17 -17 -57 -53q50 2 74 2l170 1l-17 -101h-432l8 47l317 316q71 70 71 132q0 33 -20 53t-55 20q-74 0 -147 -86l-70 68q94 123 231 123q78 0 129 -46t51 -118q0 -15 -3 -31q-12 -90 -102 -180z" />
    <glyph glyph-name="three.tf" horiz-adv-x="549" 
d="M226 -12q-138 0 -211 86l70 74q49 -58 140 -58q68 0 112 33.5t44 90.5q0 42 -31 62t-80 20h-90l17 96h68q62 0 99 35t37 78q0 32 -23 49.5t-64 17.5q-78 0 -143 -58l-48 75q87 84 208 84q81 0 133.5 -43.5t52.5 -111.5q0 -52 -32.5 -100t-88.5 -74q46 -14 72.5 -52
t26.5 -87q0 -15 -3 -30q-15 -84 -88.5 -135.5t-177.5 -51.5z" />
    <glyph glyph-name="four.tf" horiz-adv-x="549" 
d="M519 668l-79 -448h68l-17 -95h-68l-22 -125h-108l22 125h-307l11 62l435 481h65zM334 218l29 159q4 29 16 79q-34 -40 -47 -55l-124 -140q-26 -28 -42 -44q20 1 60 1h108z" />
    <glyph glyph-name="five.tf" horiz-adv-x="549" 
d="M526 561h-250l-40 -150q26 3 48 3q92 0 151 -49t59 -132q0 -22 -4 -41q-17 -93 -90.5 -149t-181.5 -56q-134 0 -206 88l69 76q45 -58 137 -58q69 0 114 36t45 97q0 51 -38 75.5t-97 24.5q-62 0 -126 -23l-14 14l96 344h346z" />
    <glyph glyph-name="six.tf" horiz-adv-x="549" 
d="M330 406q72 0 122.5 -48.5t50.5 -125.5q0 -22 -4 -41q-16 -91 -82.5 -147t-159.5 -56q-98 0 -151 59t-53 156q0 37 7 72l3 14q32 171 141 275.5t292 108.5l6 -99q-115 -2 -192 -57t-115 -154q56 43 135 43zM388 200q2 16 2 22q0 39 -24.5 63t-68.5 24q-56 0 -89.5 -27
t-41.5 -77q-2 -16 -2 -23q0 -41 26.5 -66.5t69.5 -25.5q50 0 85 29t43 81z" />
    <glyph glyph-name="seven.tf" horiz-adv-x="549" 
d="M112 661h472l-7 -43l-366 -618h-124l300 504q11 19 35 57q-22 -1 -67 -1h-261z" />
    <glyph glyph-name="eight.tf" horiz-adv-x="549" 
d="M236 -11q-95 0 -151 43t-56 117q0 18 3 36q10 57 50 102.5t97 62.5q-33 14 -53 47t-20 74q0 18 2 27q14 80 80.5 127.5t164.5 47.5q86 0 137 -41t51 -107q0 -14 -3 -31q-9 -51 -42.5 -88t-78.5 -56q41 -19 65 -55.5t24 -86.5q0 -16 -3 -34q-16 -88 -86.5 -136.5
t-180.5 -48.5zM307 397q47 0 79 25.5t40 66.5q1 6 1 16q0 33 -24 52.5t-66 19.5q-47 0 -79.5 -23.5t-39.5 -64.5q-2 -12 -2 -19q0 -34 24 -53.5t67 -19.5zM253 90q52 0 89.5 27.5t46.5 75.5q2 16 2 22q0 40 -27 63.5t-76 23.5q-54 0 -92 -30.5t-47 -79.5q-2 -14 -2 -19
q0 -40 29 -61.5t77 -21.5z" />
    <glyph glyph-name="nine.tf" horiz-adv-x="549" 
d="M326 673q100 0 152.5 -58t52.5 -156q0 -38 -7 -73l-3 -14q-31 -168 -140 -270t-292 -106l-6 100q112 -2 190.5 52.5t116.5 151.5q-57 -45 -138 -45q-73 0 -123 48t-50 126q0 22 4 41q16 91 82.5 147t160.5 56zM288 352q113 2 131 104q2 14 2 21q0 43 -27.5 69t-72.5 26
q-50 -1 -84.5 -30t-43.5 -80q-2 -14 -2 -21q0 -40 25.5 -64.5t71.5 -24.5z" />
    <glyph glyph-name="zero.dnom" horiz-adv-x="314" 
d="M123 -11q-45 0 -71 32t-26 85q0 23 4 44q12 66 46.5 105t86.5 39q45 0 71 -31.5t26 -85.5q0 -23 -4 -43q-12 -67 -46.5 -106t-86.5 -39zM126 52q50 0 66 90q4 24 4 35q0 55 -36 55q-51 0 -66 -90q-4 -24 -4 -36q0 -54 36 -54z" />
    <glyph glyph-name="one.dnom" horiz-adv-x="227" 
d="M62 0l33 179l-43 -33l-33 41l119 99h38l-50 -286h-64z" />
    <glyph glyph-name="two.dnom" horiz-adv-x="289" 
d="M237 211q0 -45 -41 -86l-67 -68h92l-9 -57h-203l3 24l132 132q28 28 28 51q0 25 -25 25q-29 0 -46 -36l-53 28q35 70 106 70q36 0 59.5 -24t23.5 -59z" />
    <glyph glyph-name="three.dnom" horiz-adv-x="288" 
d="M105 -11q-63 0 -96 38l34 44q23 -23 57 -23q47 0 55 35q1 3 1 8q0 30 -35 30h-38l10 51h23q41 0 47 32q3 14 -5.5 22t-23.5 8q-26 0 -49 -18l-32 48q41 29 92 29q34 0 59 -20.5t25 -51.5q0 -55 -53 -74q17 -5 30.5 -22.5t13.5 -40.5q0 -9 -1 -13q-7 -39 -37.5 -60.5
t-76.5 -21.5z" />
    <glyph glyph-name="four.dnom" horiz-adv-x="306" 
d="M128 0l8 46h-132l4 28l200 212h29l-33 -189h34l-9 -51h-34l-8 -46h-59zM95 97h50l13 66z" />
    <glyph glyph-name="five.dnom" horiz-adv-x="284" 
d="M100 -11q-58 0 -92 36l38 43q18 -21 51 -21q24 0 40.5 13.5t16.5 34.5q0 18 -14.5 29t-38.5 11q-23 0 -47 -10l-8 7l47 151h146l-10 -59h-93l-15 -47q4 1 13 1q35 0 59 -21.5t24 -58.5q0 -48 -33.5 -78.5t-83.5 -30.5z" />
    <glyph glyph-name="six.dnom" horiz-adv-x="293" 
d="M153 176q30 0 52 -21t22 -56q0 -49 -30.5 -79.5t-79.5 -30.5q-46 0 -70.5 27t-24.5 72q0 16 3 32l2 10q12 71 61 116t129 44l5 -58q-92 3 -125 -74q22 18 56 18zM166 91q0 15 -9.5 24.5t-25.5 9.5q-39 0 -47 -39q-3 -19 7 -31t28 -12q21 0 34 13.5t13 34.5z" />
    <glyph glyph-name="seven.dnom" horiz-adv-x="277" 
d="M18 0l128 224h-103l10 59h192l-3 -13l-153 -270h-71z" />
    <glyph glyph-name="eight.dnom" horiz-adv-x="297" 
d="M114 -11q-42 0 -70 20.5t-28 56.5q0 29 18.5 54.5t44.5 34.5q-27 17 -27 50q0 40 30 64.5t73 24.5q38 0 61.5 -19.5t23.5 -52.5q0 -51 -49 -73q38 -20 38 -64q0 -46 -33 -71t-82 -25zM142 175q11 0 21.5 8t12.5 21q1 4 1 10q0 25 -26 25q-32 0 -37 -32q-3 -15 5 -23.5
t23 -8.5zM116 45q22 0 36.5 12.5t14.5 35.5q0 32 -36 32q-19 0 -32.5 -11.5t-17.5 -28.5q-1 -3 -1 -9q0 -15 10.5 -23t25.5 -8z" />
    <glyph glyph-name="nine.dnom" horiz-adv-x="292" 
d="M146 293q46 0 70.5 -27t24.5 -72q0 -16 -3 -32l-1 -10q-12 -71 -60.5 -113t-130.5 -41l-4 56q94 3 124 69q-25 -17 -55 -17t-52 21t-22 56q0 49 30.5 79.5t78.5 30.5zM98 190q0 -15 9 -24t25 -9q48 0 48 47q0 16 -10 25.5t-26 9.5q-20 0 -33 -14t-13 -35z" />
    <glyph glyph-name="zero.numr" horiz-adv-x="314" 
d="M193 386q-45 0 -71 32t-26 85q0 23 4 44q12 66 46.5 105t86.5 39q45 0 71 -31.5t26 -85.5q0 -23 -4 -43q-12 -67 -46.5 -106t-86.5 -39zM196 449q50 0 66 90q4 24 4 35q0 55 -36 55q-51 0 -66 -90q-4 -24 -4 -36q0 -54 36 -54z" />
    <glyph glyph-name="one.numr" horiz-adv-x="227" 
d="M132 397l33 179l-43 -33l-33 41l119 99h38l-50 -286h-64z" />
    <glyph glyph-name="two.numr" horiz-adv-x="289" 
d="M307 608q0 -45 -41 -86l-67 -68h92l-9 -57h-203l3 24l132 132q28 28 28 51q0 25 -25 25q-29 0 -46 -36l-53 28q35 70 106 70q36 0 59.5 -24t23.5 -59z" />
    <glyph glyph-name="three.numr" horiz-adv-x="288" 
d="M175 386q-63 0 -96 38l34 44q23 -23 57 -23q47 0 55 35q1 3 1 8q0 30 -35 30h-38l10 51h23q41 0 47 32q3 14 -5.5 22t-23.5 8q-26 0 -49 -18l-32 48q41 29 92 29q34 0 59 -20.5t25 -51.5q0 -55 -53 -74q17 -5 30.5 -22.5t13.5 -40.5q0 -9 -1 -13q-7 -39 -37.5 -60.5
t-76.5 -21.5z" />
    <glyph glyph-name="four.numr" horiz-adv-x="306" 
d="M198 397l8 46h-132l4 28l200 212h29l-33 -189h34l-9 -51h-34l-8 -46h-59zM165 494h50l13 66z" />
    <glyph glyph-name="five.numr" horiz-adv-x="284" 
d="M170 386q-58 0 -92 36l38 43q18 -21 51 -21q24 0 40.5 13.5t16.5 34.5q0 18 -14.5 29t-38.5 11q-23 0 -47 -10l-8 7l47 151h146l-10 -59h-93l-15 -47q4 1 13 1q35 0 59 -21.5t24 -58.5q0 -48 -33.5 -78.5t-83.5 -30.5z" />
    <glyph glyph-name="six.numr" horiz-adv-x="293" 
d="M224 579q30 0 52 -21t22 -56q0 -49 -30.5 -79.5t-79.5 -30.5q-46 0 -70.5 27t-24.5 72q0 15 3 32l2 10q12 71 61 116t129 44l5 -58q-92 3 -125 -74q22 18 56 18zM237 494q0 15 -9.5 24.5t-25.5 9.5q-40 0 -47 -39q-3 -19 7 -31t28 -12q21 0 34 13.5t13 34.5z" />
    <glyph glyph-name="seven.numr" horiz-adv-x="277" 
d="M88 397l128 224h-103l10 59h192l-3 -13l-153 -270h-71z" />
    <glyph glyph-name="eight.numr" horiz-adv-x="297" 
d="M184 386q-42 0 -70 20.5t-28 56.5q0 29 18.5 54.5t44.5 34.5q-27 17 -27 50q0 40 30 64.5t73 24.5q38 0 61.5 -19.5t23.5 -52.5q0 -51 -49 -73q38 -20 38 -64q0 -46 -33 -71t-82 -25zM212 572q11 0 21.5 8t12.5 21q1 4 1 10q0 25 -26 25q-32 0 -37 -32q-3 -15 5 -23.5
t23 -8.5zM186 442q22 0 36.5 12.5t14.5 35.5q0 32 -36 32q-19 0 -32.5 -11.5t-17.5 -28.5q-1 -3 -1 -9q0 -15 10.5 -23t25.5 -8z" />
    <glyph glyph-name="nine.numr" horiz-adv-x="292" 
d="M216 690q46 0 70.5 -27t24.5 -72q0 -15 -3 -32l-1 -10q-12 -71 -60.5 -113t-130.5 -41l-4 56q94 3 124 69q-25 -17 -55 -17t-52 21t-22 56q0 49 30.5 79.5t78.5 30.5zM168 587q0 -15 9 -24t25 -9q48 0 48 47q0 16 -10 25.5t-26 9.5q-20 0 -33 -14t-13 -35z" />
    <glyph glyph-name="zero.sups" horiz-adv-x="314" 
d="M193 385q-45 0 -71 32t-26 85q0 23 4 44q12 66 46.5 105t86.5 39q45 0 71 -31.5t26 -85.5q0 -23 -4 -43q-12 -67 -46.5 -106t-86.5 -39zM196 448q50 0 66 90q4 24 4 35q0 55 -36 55q-51 0 -66 -90q-4 -24 -4 -36q0 -54 36 -54z" />
    <glyph glyph-name="one.sups" horiz-adv-x="227" 
d="M132 397l33 179l-43 -33l-33 41l119 99h38l-50 -286h-64z" />
    <glyph glyph-name="two.sups" horiz-adv-x="289" 
d="M307 608q0 -45 -41 -86l-67 -68h92l-9 -57h-203l3 24l132 132q28 28 28 51q0 25 -25 25q-29 0 -46 -36l-53 28q35 70 106 70q36 0 59.5 -24t23.5 -59z" />
    <glyph glyph-name="three.sups" horiz-adv-x="288" 
d="M175 386q-63 0 -96 38l34 44q23 -23 57 -23q47 0 55 35q1 3 1 8q0 30 -35 30h-38l10 51h23q41 0 47 32q3 14 -5.5 22t-23.5 8q-26 0 -49 -18l-32 48q41 29 92 29q34 0 59 -20.5t25 -51.5q0 -55 -53 -74q17 -5 30.5 -22.5t13.5 -40.5q0 -9 -1 -13q-7 -39 -37.5 -60.5
t-76.5 -21.5z" />
    <glyph glyph-name="four.sups" horiz-adv-x="306" 
d="M198 397l8 46h-132l4 28l200 212h29l-33 -189h34l-9 -51h-34l-8 -46h-59zM165 494h50l13 66z" />
    <glyph glyph-name="five.sups" horiz-adv-x="284" 
d="M170 386q-58 0 -92 36l38 43q18 -21 51 -21q24 0 40.5 13.5t16.5 34.5q0 18 -14.5 29t-38.5 11q-23 0 -47 -10l-8 7l47 151h146l-10 -59h-93l-15 -47q4 1 13 1q35 0 59 -21.5t24 -58.5q0 -48 -33.5 -78.5t-83.5 -30.5z" />
    <glyph glyph-name="six.sups" horiz-adv-x="293" 
d="M224 576q30 0 52 -21t22 -56q0 -49 -30.5 -79.5t-79.5 -30.5q-46 0 -70.5 27t-24.5 72q0 16 3 32l2 10q12 71 61 116t129 44l5 -58q-92 3 -125 -74q22 18 56 18zM237 491q0 15 -9.5 24.5t-25.5 9.5q-40 0 -47 -39q-3 -19 7 -31t28 -12q21 0 34 13.5t13 34.5z" />
    <glyph glyph-name="seven.sups" horiz-adv-x="277" 
d="M88 397l128 224h-103l10 59h192l-3 -13l-153 -270h-71z" />
    <glyph glyph-name="eight.sups" horiz-adv-x="297" 
d="M184 386q-42 0 -70 20.5t-28 56.5q0 29 18.5 54.5t44.5 34.5q-27 17 -27 50q0 40 30 64.5t73 24.5q38 0 61.5 -19.5t23.5 -52.5q0 -51 -49 -73q38 -20 38 -64q0 -46 -33 -71t-82 -25zM212 572q11 0 21.5 8t12.5 21q1 4 1 10q0 25 -26 25q-32 0 -37 -32q-3 -15 5 -23.5
t23 -8.5zM186 442q22 0 36.5 12.5t14.5 35.5q0 32 -36 32q-19 0 -32.5 -11.5t-17.5 -28.5q-1 -3 -1 -9q0 -15 10.5 -23t25.5 -8z" />
    <glyph glyph-name="nine.sups" horiz-adv-x="292" 
d="M216 690q46 0 70.5 -27t24.5 -72q0 -15 -3 -32l-1 -10q-12 -71 -60.5 -113t-130.5 -41l-4 56q94 3 124 69q-25 -17 -55 -17t-52 21t-22 56q0 49 30.5 79.5t78.5 30.5zM168 587q0 -15 9 -24t25 -9q48 0 48 47q0 16 -10 25.5t-26 9.5q-20 0 -33 -14t-13 -35z" />
    <glyph glyph-name="colon.case" horiz-adv-x="219" 
d="M151 414q-28 0 -46 16.5t-18 44.5q0 35 21 55t51 20q28 0 46.5 -16.5t18.5 -44.5q0 -35 -21.5 -55t-51.5 -20zM94 91q-28 0 -46.5 16.5t-18.5 45.5q0 34 21.5 54t51.5 20q28 0 46.5 -16.5t18.5 -44.5q0 -35 -21.5 -55t-51.5 -20z" />
    <glyph glyph-name="parenleft.case" horiz-adv-x="345" 
d="M182 -129q-42 63 -65.5 155t-23.5 195q0 71 12 141q23 134 85.5 256.5t150.5 210.5l62 -54q-75 -85 -129 -196t-72 -226q-10 -66 -10 -137q0 -184 62 -296z" />
    <glyph glyph-name="parenright.case" horiz-adv-x="345" 
d="M207 829q42 -63 66 -155t24 -195q0 -70 -12 -141q-23 -134 -85.5 -256.5t-150.5 -210.5l-62 54q75 85 129 196t71 226q11 72 11 139q0 180 -62 294z" />
    <glyph glyph-name="braceleft.case" horiz-adv-x="344" 
d="M245 -127q-8 -1 -23 -1q-59 0 -93 28.5t-34 81.5q0 10 4 36l35 200q3 18 3 31q0 29 -16 42.5t-54 12.5l16 90q47 0 68.5 23t30.5 72l35 200q13 75 51.5 106.5t103.5 31.5q27 0 41 -2l-15 -90q-42 3 -61 -13t-26 -56l-36 -202q-10 -56 -30 -81t-65 -35q56 -16 56 -86
q0 -16 -3 -36l-35 -202q-2 -16 -2 -21q0 -24 15.5 -32.5t49.5 -6.5z" />
    <glyph glyph-name="braceright.case" horiz-adv-x="344" 
d="M144 826q9 1 25 1q59 0 91.5 -28.5t32.5 -83.5q0 -16 -3 -34l-36 -200q-3 -17 -3 -30q0 -57 71 -56l-16 -90q-47 1 -68.5 -22t-31.5 -72l-35 -201q-12 -75 -50.5 -106t-103.5 -31q-27 0 -41 2l15 89q41 -2 60.5 14t26.5 55l35 203q11 56 31 80.5t65 34.5q-57 16 -57 88
q0 16 3 34l36 203q2 16 2 20q0 24 -16 32.5t-50 6.5z" />
    <glyph glyph-name="bracketleft.case" horiz-adv-x="307" 
d="M25 -123l166 946h180l-15 -90h-82l-135 -766h81l-15 -90h-180z" />
    <glyph glyph-name="bracketright.case" horiz-adv-x="307" 
d="M327 823l-166 -946h-180l16 90h81l135 766h-81l15 90h180z" />
    <glyph glyph-name="hyphen.case" horiz-adv-x="409" 
d="M78 303l17 94h280l-16 -94h-281z" />
    <glyph glyph-name="endash.case" horiz-adv-x="539" 
d="M79 308l15 86h411l-15 -86h-411z" />
    <glyph glyph-name="emdash.case" horiz-adv-x="703" 
d="M79 308l15 86h575l-15 -86h-575z" />
    <glyph glyph-name="guillemotleft.case" horiz-adv-x="468" 
d="M161 153l-106 200l151 197l77 -49l-110 -156l74 -156zM327 153l-93 197l157 200l78 -49l-117 -156l60 -156z" />
    <glyph glyph-name="guillemotright.case" horiz-adv-x="469" 
d="M122 153l-77 50l118 160l-60 151l86 36l92 -193zM308 153l-78 50l112 160l-73 151l86 36l105 -197z" />
    <glyph glyph-name="guilsinglleft.case" horiz-adv-x="289" 
d="M148 153l-93 200l157 197l78 -49l-117 -156l60 -156z" />
    <glyph glyph-name="guilsinglright.case" horiz-adv-x="290" 
d="M122 153l-77 50l118 160l-60 151l86 36l92 -197z" />
    <glyph glyph-name="cent.tf" horiz-adv-x="549" 
d="M419 218l42 -78q-63 -56 -147 -63l-15 -85h-75l16 87q-70 13 -112.5 63t-42.5 124q0 24 4 45q17 93 80 149.5t150 67.5l14 83h75l-15 -84q69 -12 115 -65l-59 -67q-32 38 -92 38q-59 0 -104 -34.5t-56 -96.5q-3 -15 -3 -29q0 -47 28.5 -74.5t79.5 -27.5q65 0 117 47z" />
    <glyph glyph-name="dollar.tf" horiz-adv-x="549" 
d="M181 -101l16 91q-113 12 -190 84l67 83q72 -67 167 -67q61 0 103.5 27t42.5 68q0 36 -30.5 61t-91.5 53q-77 34 -118.5 75.5t-41.5 104.5q0 78 61 130.5t156 61.5l16 91h84l-17 -93q83 -13 155 -68l-59 -83q-64 53 -146 53q-56 0 -94 -23.5t-38 -62.5q0 -19 7.5 -34
t26.5 -28.5t35 -22t47 -23.5q79 -37 121.5 -77.5t42.5 -108.5q0 -80 -62 -135t-159 -66l-16 -91h-85z" />
    <glyph glyph-name="Euro.tf" horiz-adv-x="549" 
d="M469 568q-142 0 -206 -137h200l-37 -69h-187q-1 -4 -2.5 -12.5t-2.5 -12.5q-4 -23 -5 -31h167l-37 -70h-131q8 -68 47 -105.5t105 -37.5q55 0 99 22l21 -97q-61 -30 -137 -30q-109 0 -176.5 67.5t-75.5 180.5h-80l13 70h68q1 10 5 37q2 14 4 19h-67l12 69h74
q42 116 129.5 179t199.5 63q83 0 135 -34l-50 -91q-29 20 -85 20z" />
    <glyph glyph-name="florin.tf" horiz-adv-x="549" 
d="M482 673q70 0 111 -39l-52 -80q-20 16 -52 16q-34 0 -61 -24t-40 -71l-20 -75h119l-23 -97h-123l-80 -297q-25 -89 -76 -133.5t-117 -44.5q-71 0 -114 37l47 86q24 -20 55 -20q70 0 97 96l76 276l-109 3l24 94h111l26 95q25 91 77 134.5t124 43.5z" />
    <glyph glyph-name="uni20BD.tf" horiz-adv-x="549" 
d="M374 681q86 0 139 -54t53 -131q0 -17 -3 -35q-15 -87 -79.5 -143t-182.5 -56h-77l-11 -61h198l-13 -75h-198l-22 -126h-117l22 126h-77l13 75h77l11 61h-77l15 89h78l58 330h193zM448 465q2 14 2 22q0 39 -24.5 65.5t-67.5 26.5h-78l-40 -228h64q64 0 99.5 31.5
t44.5 82.5z" />
    <glyph glyph-name="sterling.tf" horiz-adv-x="549" 
d="M395 578q-60 0 -91.5 -29.5t-31.5 -76.5q0 -16 2.5 -33.5t5 -27t8.5 -29.5t8 -25h187l-14 -76h-164q-4 -44 -32.5 -93t-68.5 -87l303 1l-17 -102h-443l-17 70q61 39 107.5 98.5t53.5 112.5h-97l13 76h75q-2 6 -7 21.5t-7.5 24.5t-5.5 22.5t-4.5 27.5t-1.5 29
q0 88 65.5 143t162.5 55q122 0 198 -87l-71 -65q-40 50 -116 50z" />
    <glyph glyph-name="yen.tf" horiz-adv-x="549" 
d="M181 0l28 160h-153l14 74h152l10 55h-153l13 73h121l-125 306h122l96 -263l187 263h138l-233 -306h118l-13 -73h-153l-9 -55h153l-14 -74h-153l-27 -160h-119z" />
    <glyph glyph-name="uni0308.case" 
d="M-204 766q-26 0 -42.5 17t-16.5 40q0 7 1 11q5 22 22 37.5t41 15.5q26 0 42 -16.5t16 -40.5t-18 -44t-45 -20zM-7 766q-27 0 -42.5 17t-15.5 41q0 7 1 11q3 21 21 36.5t41 15.5q26 0 41.5 -16.5t15.5 -39.5q0 -25 -17.5 -45t-44.5 -20z" />
    <glyph glyph-name="uni0307.case" 
d="M-17 756q-28 0 -45 17t-17 43q0 28 20 49.5t50 21.5t46.5 -17t16.5 -44t-20.5 -48.5t-50.5 -21.5z" />
    <glyph glyph-name="gravecomb.case" 
d="M10 746l-150 105l72 73l129 -129z" />
    <glyph glyph-name="acutecomb.case" 
d="M-119 744l-41 57l167 125l55 -82z" />
    <glyph glyph-name="uni030B.case" 
d="M-223 737l-58 38l122 151l71 -48zM-59 737l-56 41l126 148l70 -52z" />
    <glyph glyph-name="uni0302.case" 
d="M-206 738l-40 52l159 110h18l123 -112l-46 -50l-97 68z" />
    <glyph glyph-name="uni030C.case" 
d="M-113 741l-121 112l46 49l92 -69l118 69l42 -49l-159 -112h-18z" />
    <glyph glyph-name="uni0306.case" 
d="M-94 742q-54 0 -91 30t-42 83l61 28q13 -59 72 -59q34 0 59 16.5t36 42.5l62 -28q-16 -55 -60 -84t-97 -29z" />
    <glyph glyph-name="uni030A.case" 
d="M-62 722q-47 0 -76.5 26.5t-29.5 68.5q0 52 37.5 87t91.5 35q46 0 75.5 -27t29.5 -70q0 -51 -37 -85.5t-91 -34.5zM-59 783q25 0 41.5 16.5t16.5 40.5q0 17 -11.5 28t-30.5 11q-24 0 -41 -16t-17 -40q0 -18 11.5 -29t30.5 -11z" />
    <glyph glyph-name="tildecomb.case" 
d="M-197 760l-63 43q34 79 99 79q29 0 65 -17q28 -13 44 -13q26 0 48 36l63 -44q-39 -77 -99 -77q-28 0 -60 16q-32 14 -47 14q-29 0 -50 -37z" />
    </font>
</defs>
</svg>
