<svg width="52" height="28" viewBox="0 0 52 28" fill="none" xmlns="http://www.w3.org/2000/svg">
<path d="M41 20V25H3V3H41V8L49 9V19L41 20Z" stroke="#F7931E" stroke-width="6" stroke-miterlimit="10" stroke-linecap="square"/>
<path d="M12 13.9999C12 16.2799 12 18.1199 12 18.1199C12 18.1199 12 16.2799 12 13.9999ZM12 13.9999C12 11.7199 12 9.87988 12 9.87988C12 9.87988 12 11.7199 12 13.9999Z" stroke="#F7931E" stroke-width="6" stroke-miterlimit="10" stroke-linecap="square"/>
<path d="M21.5 13.9999C21.5 16.2799 21.5 18.1199 21.5 18.1199C21.5 18.1199 21.5 16.2799 21.5 13.9999ZM21.5 13.9999C21.5 11.7199 21.5 9.87988 21.5 9.87988C21.5 9.87988 21.5 11.7199 21.5 13.9999Z" stroke="#F7931E" stroke-width="6" stroke-miterlimit="10" stroke-linecap="square"/>
<path d="M31 13.9999C31 16.2799 31 18.1199 31 18.1199C31 18.1199 31 16.2799 31 13.9999ZM31 13.9999C31 11.7199 31 9.87988 31 9.87988C31 9.87988 31 11.7199 31 13.9999Z" stroke="#F7931E" stroke-width="6" stroke-miterlimit="10" stroke-linecap="square"/>
</svg>
